<svg width="395" height="80" viewBox="0 0 395 80" fill="none" xmlns="http://www.w3.org/2000/svg">
<g clip-path="url(#clip0_719_148)">
<path d="M93.6357 17.3812C93.8884 17.368 94.1215 17.348 94.3545 17.348C99.9716 17.3613 105.589 17.2548 111.2 17.4278C116.598 17.5943 121.604 19.1184 125.77 22.7593C129.158 25.7211 131.102 29.515 131.974 33.8746C132.986 38.9398 132.845 43.9717 131.095 48.8571C128.633 55.7261 123.581 59.7595 116.592 61.3836C114.262 61.9227 111.819 62.1357 109.417 62.1956C104.471 62.3154 99.5195 62.2289 94.5672 62.2289H93.6357V17.3746V17.3812ZM104.165 54.1087C106.242 54.1087 108.232 54.1619 110.229 54.0953C114.841 53.9423 118.256 51.8523 120.106 47.5725C121.963 43.2795 121.983 38.8067 120.911 34.3206C119.747 29.4551 116.199 25.4616 109.743 25.4749C107.892 25.4749 106.042 25.4749 104.165 25.4749V54.1087Z" fill="#2052A0"/>
<path d="M272.314 40.9436C272.66 39.5392 272.9 37.9883 273.419 36.5373C274.903 32.4107 278.477 30.5204 282.783 30.8998C287.516 31.3191 290.578 34.454 291.569 39.1798C291.856 40.5442 292.009 41.9686 292.022 43.3597C292.069 49.4499 292.042 55.54 292.042 61.6302C292.042 61.7899 292.042 61.9431 292.042 62.1627H281.865C281.865 61.9231 281.865 61.6435 281.865 61.3639C281.865 55.5933 281.872 49.8226 281.858 44.0519C281.858 43.3397 281.812 42.6076 281.632 41.9286C281.173 40.1715 280.035 39.0866 278.197 38.8403C276.42 38.6007 274.87 39.0599 273.725 40.5043C272.86 41.6026 272.441 42.9005 272.434 44.2716C272.387 49.9091 272.387 55.5467 272.374 61.1843C272.374 61.4971 272.374 61.8099 272.374 62.176H262.216C262.216 61.8831 262.216 61.5969 262.216 61.3173C262.216 55.4934 262.217 49.6695 262.204 43.8456C262.204 43.2133 262.13 42.5676 261.971 41.9619C261.484 40.0916 260.227 39.0133 258.316 38.8137C256.439 38.614 254.842 39.213 253.77 40.8438C252.912 42.1483 252.646 43.6393 252.639 45.1701C252.619 50.5414 252.632 55.9128 252.632 61.2841C252.632 61.5703 252.632 61.8565 252.632 62.1893H242.582V31.4922H252.606V40.8837C252.998 38.1614 253.67 35.5656 255.627 33.5089C257.637 31.399 260.22 30.6469 263.029 30.8732C268.706 31.3391 271.795 34.7935 272.307 40.9436H272.314Z" fill="#2052A0"/>
<path d="M209.389 31.5117C207.226 34.4736 205.123 37.3423 203.026 40.2176C201.742 41.9748 200.477 43.7519 199.159 45.4825C198.793 45.9617 198.833 46.2545 199.172 46.7072C202.986 51.7191 206.78 56.7376 210.574 61.7628C210.654 61.8694 210.727 61.9759 210.847 62.1555C210.62 62.1888 210.454 62.2288 210.294 62.2288C206.674 62.2288 203.059 62.2288 199.439 62.2421C198.979 62.2421 198.733 62.0757 198.48 61.7162C195.112 56.9107 191.731 52.1118 188.356 47.3129C188.21 47.1065 188.056 46.9002 187.784 46.5141V62.1755H177.647V15.5508H187.731V45.9284C187.997 45.6156 188.136 45.4825 188.243 45.3294C191.312 40.8966 194.366 36.457 197.448 32.0375C197.641 31.758 198.048 31.4585 198.354 31.4585C201.921 31.4185 205.482 31.4318 209.05 31.4385C209.123 31.4385 209.196 31.4651 209.396 31.505L209.389 31.5117Z" fill="#2052A0"/>
<path d="M207.192 46.8138C207.272 43.9252 207.758 41.1496 209.09 38.5805C210.827 35.2326 213.556 33.0228 217.137 31.8913C221.862 30.4004 226.608 30.4004 231.267 32.091C236.326 33.928 239.181 37.7019 240.166 42.9134C240.778 46.1616 240.678 49.403 239.72 52.5978C238.389 57.044 235.547 60.139 231.174 61.6699C226.195 63.4137 221.15 63.4004 216.225 61.4901C211.299 59.5866 208.57 55.7993 207.632 50.6876C207.399 49.4163 207.339 48.1117 207.192 46.8205V46.8138ZM217.509 46.8405C217.669 47.9387 217.742 49.0569 218.008 50.1285C218.714 52.9706 220.637 54.6545 223.493 54.8475C226.015 55.0206 228.291 54.0289 229.39 51.3998C230.674 48.3247 230.668 45.1832 229.323 42.128C228.338 39.8917 226.468 38.8267 224.065 38.7868C221.596 38.7468 219.719 39.7919 218.574 42.0416C217.809 43.5458 217.609 45.1698 217.509 46.8405Z" fill="#2052A0"/>
<path d="M394.717 46.8739C394.683 49.2766 394.304 51.5996 393.425 53.8159C391.908 57.6697 389.158 60.3321 385.258 61.6832C380.546 63.314 375.76 63.3539 371.041 61.7432C365.717 59.9328 362.735 56.059 361.723 50.6212C361.144 47.5261 361.237 44.4311 362.109 41.396C363.473 36.6304 366.522 33.4022 371.254 31.8914C376.08 30.3472 380.939 30.3805 385.684 32.1975C390.536 34.0545 393.265 37.7486 394.25 42.7605C394.517 44.105 394.563 45.4961 394.717 46.8605V46.8739ZM371.587 46.541C371.78 47.9055 371.853 48.9971 372.106 50.0487C372.792 52.9307 374.736 54.6679 377.604 54.8543C380.153 55.0207 382.423 54.0423 383.541 51.3333C384.766 48.3648 384.759 45.323 383.541 42.3478C382.543 39.9118 380.466 38.6671 377.784 38.7869C375.188 38.9 373.324 40.1846 372.452 42.6207C371.98 43.9452 371.833 45.3829 371.587 46.541Z" fill="#EF8641"/>
<path d="M308.921 31.4719H318.998V40.3709C318.998 40.3709 319.045 40.3643 319.065 40.3576C319.371 39.1795 319.598 37.9748 319.997 36.83C321.501 32.5502 325.288 30.5201 329.787 30.9062C335.046 31.3521 338.214 35.1061 339.006 40.1246C339.246 41.6356 339.319 43.1864 339.325 44.7239C339.365 50.2284 339.339 55.7328 339.339 61.2373V62.1757H329.168V61.2772C329.168 55.6929 329.175 50.1086 329.155 44.5242C329.155 43.7055 329.109 42.8669 328.902 42.0815C328.457 40.4175 327.385 39.306 325.654 38.9399C323.664 38.5139 321.887 38.9133 320.536 40.5107C319.537 41.6888 319.092 43.1265 319.085 44.6374C319.038 50.1418 319.052 55.6463 319.045 61.1507C319.045 61.4702 319.045 61.783 319.045 62.1691H308.928V31.4719H308.921Z" fill="#EF8641"/>
<path d="M77.8806 38.9133H72.1098C71.7841 28.0442 67.4711 19.1519 58.7515 12.5692C52.5548 7.89009 45.4663 5.76017 37.7254 6.10628C20.46 6.87834 6.44258 20.8359 6.20299 38.8934H0.438965C0.958129 25.2088 6.45591 14.1267 18.0172 6.73193C31.7551 -2.05389 46.0653 -2.14041 59.8964 6.46571C71.7105 13.8205 77.3479 25.0025 77.8806 38.9067V38.9133Z" fill="#F08519"/>
<path d="M146.49 52.2848H155.829C155.902 52.6975 155.942 53.1168 156.048 53.5228C156.408 54.8806 157.279 55.8191 158.591 56.2584C160.434 56.8773 162.298 56.8574 164.122 56.1652C165.427 55.6726 166.086 54.7009 166.099 53.4629C166.105 52.1184 165.327 51.2798 164.168 50.9403C162.471 50.4478 160.721 50.1615 158.991 49.7822C157.027 49.3562 155.024 49.07 153.113 48.4709C149.625 47.3727 147.502 45.0098 147.302 41.2426C147.116 37.6484 148.54 34.8596 151.669 32.9893C153.665 31.7978 155.876 31.2454 158.152 30.9991C161.399 30.6464 164.628 30.7662 167.77 31.7646C171.051 32.8029 173.6 34.6799 174.612 38.1476C174.871 39.0262 174.951 39.958 175.131 40.9497H165.7C165.599 40.4639 165.533 39.9447 165.373 39.4521C164.854 37.8481 163.45 36.9163 161.286 36.9296C160.335 36.9296 159.343 37.1758 158.438 37.502C157.493 37.8414 157 38.6535 157 39.6851C157 40.6569 157.566 41.3424 158.405 41.622C159.796 42.0945 161.24 42.4274 162.678 42.7668C165.274 43.3792 167.936 43.7851 170.465 44.5905C173.134 45.4425 175.031 47.2928 175.61 50.1615C176.369 53.9155 175.131 57.9822 171.47 60.3451C169.373 61.6963 167.038 62.3618 164.601 62.6547C161.093 63.0807 157.606 62.9476 154.191 61.9093C152.394 61.3634 150.744 60.5315 149.366 59.2336C147.376 57.3632 146.544 55.0204 146.484 52.2848H146.49Z" fill="#2052A0"/>
<path d="M354.667 62.1957H344.464V38.3342H340.084V31.4653H352.95C351.499 31.0526 349.902 30.7265 348.397 30.1408C346.102 29.2422 344.337 27.6648 344.025 25.1022C343.605 21.7144 344.803 18.9455 347.745 17.0486C349.643 15.8239 351.779 15.298 353.975 15.0452C357.377 14.6591 360.698 15.0452 363.933 16.2032C364.671 16.4695 364.971 16.7158 364.778 17.601C364.345 19.5911 364.079 21.6145 363.74 23.6246C363.719 23.7245 363.66 23.8177 363.593 23.9707C363.367 23.8775 363.154 23.811 362.954 23.7112C361.397 22.9524 359.733 22.7926 358.049 23.0123C355.706 23.3184 354.335 24.8293 354.088 27.3919C353.962 28.7031 354.069 30.0343 354.069 31.4453H362.981V38.2743H354.674V62.2024L354.667 62.1957Z" fill="#EF8641"/>
<path d="M14.3163 38.9197H8.55225C8.86507 28.3966 13.0383 19.8371 21.7177 13.94C32.254 6.78486 43.4693 6.29897 54.5314 12.6287C64.5086 18.3395 69.301 27.4049 69.8134 38.9463H64.0159C63.7829 30.5865 60.4219 23.8306 53.7127 18.8654C48.774 15.2113 43.1364 13.7137 37.0529 14.2262C23.9608 15.3311 14.2497 26.34 14.323 38.9063L14.3163 38.9197Z" fill="#F08519"/>
<path d="M76.1571 50.0221C75.4517 51.7859 74.8124 53.4299 74.1203 55.054C74.0403 55.247 73.6479 55.4267 73.4085 55.4134C69.9273 55.2803 66.4993 54.7145 63.1182 53.9158C59.0181 52.944 54.958 53.1637 50.9112 54.1754C46.0324 55.4001 41.0804 55.9991 36.0752 55.48C33.1599 55.1738 30.2712 54.5548 27.4092 53.9158C23.2026 52.984 19.0626 53.0772 14.896 54.1687C11.6812 55.0074 8.39986 55.4666 5.07187 55.5598C4.56603 55.5732 4.3131 55.4534 4.13339 54.9741C3.53436 53.3967 2.89539 51.8392 2.22314 50.1619C3.16828 50.1219 3.9204 50.0753 4.67252 50.0554C8.37319 49.9289 11.9807 49.1901 15.5749 48.3581C20.061 47.3198 24.5338 47.5261 28.9733 48.6177C32.8271 49.5628 36.7075 50.2218 40.6944 50.082C44.0756 49.9688 47.3703 49.3099 50.6583 48.5378C55.5837 47.3797 60.4957 47.5128 65.4009 48.7109C68.6892 49.5163 72.0308 49.869 75.4047 49.9688C75.5914 49.9688 75.7711 49.9955 76.1641 50.0288L76.1571 50.0221Z" fill="#2052A0"/>
<path d="M53.907 40.9097V43.2925H61.954V40.923H72.5102V43.3325H77.5089C77.3889 44.1911 77.2962 44.9631 77.1762 45.7353C77.0562 46.4873 76.9166 47.2328 76.7699 48.1047C75.1394 48.0049 73.5356 48.0116 71.9712 47.7786C68.4899 47.2528 65.0423 46.5339 61.5547 46.0281C58.2467 45.5488 54.9321 45.7419 51.644 46.3542C48.6289 46.9134 45.6204 47.6122 42.5787 47.965C39.0842 48.371 35.5899 48.0382 32.1288 47.3193C29.2801 46.7269 26.418 46.1612 23.5294 45.8351C19.8486 45.4224 16.2345 46.1013 12.6602 46.9799C9.2391 47.8252 5.7514 48.0981 2.24373 48.1913C1.77116 48.2046 1.52489 48.1047 1.45168 47.5723C1.26531 46.2078 1.01239 44.8567 0.766113 43.399H6.72316V40.923H16.6006V43.3125H25.1268V40.9163H35.2638V43.3191H43.5571V40.9163H53.9136L53.907 40.9097Z" fill="#2052A0"/>
<path d="M5.72363 58.3022C7.42087 58.0759 8.89852 57.9361 10.3562 57.6698C12.566 57.2639 14.7557 56.7447 16.9655 56.3253C20.8392 55.5865 24.6997 55.8128 28.5002 56.758C32.9064 57.8496 37.346 58.6217 41.8919 58.2156C44.5743 57.976 47.2633 57.5434 49.879 56.9311C55.1838 55.6864 60.4287 55.753 65.7201 57.0043C67.6705 57.4636 69.694 57.6432 71.6769 57.9494C71.9366 57.9893 72.1962 58.0359 72.6623 58.1091C71.6375 59.5934 70.6458 60.9579 69.7404 62.369C69.2477 63.141 68.6756 63.2742 67.8166 63.0944C65.4337 62.5952 63.0444 62.116 60.6416 61.7499C57.7796 61.3107 54.9176 61.497 52.1021 62.1693C47.4896 63.2742 42.8571 64.0199 38.0847 63.8535C34.9631 63.7469 31.888 63.334 28.8995 62.5154C23.9009 61.1443 18.9623 61.2041 13.9903 62.6152C12.6724 62.9879 11.288 63.141 9.9302 63.3474C9.69719 63.3806 9.31782 63.2742 9.19135 63.0944C8.05319 61.5636 6.95497 60.0061 5.73029 58.3088L5.72363 58.3022Z" fill="#2052A0"/>
<path d="M61.6273 38.913H55.9565C55.7568 33.4885 53.6469 29.0024 49.3272 25.6544C46.1456 23.1851 42.4848 22.0336 38.478 22.2067C30.3445 22.5528 22.7434 28.816 22.3374 38.8931H16.6133C16.9194 31.0857 20.0145 24.7426 26.5107 20.403C34.125 15.3178 42.1853 15.0117 50.2257 19.3845C58.0864 23.6644 61.7605 31.8378 61.634 38.8997L61.6273 38.913Z" fill="#F08519"/>
<path d="M144.799 62.2158H134.822V31.5054H144.799V62.2158Z" fill="#2052A0"/>
<path d="M295.317 31.4854H305.294V62.1692H295.317V31.4854Z" fill="#EF8641"/>
<path d="M11.6478 65.6698C13.5847 65.2705 15.5083 64.8247 17.4518 64.4787C21.9112 63.6933 26.2842 64.3657 30.6105 65.4501C36.7939 67.0076 42.9639 66.8749 49.1207 65.3574C52.8081 64.4451 56.5354 63.9327 60.3226 64.3454C62.5191 64.5854 64.682 65.0711 66.8655 65.4501C66.9055 65.5505 66.9385 65.6501 66.9785 65.7568C65.301 67.1676 63.6242 68.5784 61.9333 69.9695C61.7803 70.0895 61.4674 70.0832 61.2478 70.0432C57.3674 69.3378 53.5801 69.9898 49.8262 70.8952C42.8242 72.5854 35.8488 72.532 28.8667 70.7619C26.0778 70.0565 23.2557 69.5574 20.367 69.7435C19.3354 69.8101 18.3171 70.0032 17.2921 70.1232C17.0458 70.1492 16.713 70.2025 16.5532 70.0698C14.8626 68.7117 13.2053 67.3276 11.5347 65.9428C11.5746 65.8495 11.6145 65.7632 11.6545 65.6698H11.6478Z" fill="#2052A0"/>
<path d="M53.6333 38.9065H47.836C47.7694 36.0844 46.6446 33.7948 44.4481 32.0776C42.6776 30.6931 40.6409 30.2006 38.4046 30.3004C34.2446 30.4868 31.1562 33.7615 30.4241 38.8999H24.7466C24.7932 34.4537 26.4638 30.7331 29.8783 27.9376C34.5308 24.1304 39.7956 23.3983 45.2335 25.9142C50.6248 28.4035 53.2938 32.8963 53.6333 38.9065Z" fill="#F08519"/>
<path d="M20.2612 72.4928C23.3496 72.2731 26.185 72.6191 28.9605 73.3309C33.5198 74.4959 38.1324 75.1747 42.8248 74.649C45.5804 74.3359 48.2894 73.6509 51.0249 73.2045C53.2613 72.8388 55.511 72.5855 57.7873 72.4458C51.9967 75.8071 45.7734 77.4312 39.0975 77.4248C32.4482 77.4179 26.2516 75.774 20.2612 72.4991V72.4928Z" fill="#2052A0"/>
<path d="M134.796 26.2605V17.9272H144.806V26.2605H134.796Z" fill="#2052A0"/>
<path d="M305.294 17.9336V26.2868H295.33V17.9336H305.294Z" fill="#EF8641"/>
<path d="M227.912 26.0077V16.1237C230.035 16.1237 232.131 15.9972 234.201 16.1703C235.619 16.2834 236.385 17.4349 236.351 18.7861C236.331 19.7179 235.939 20.2437 234.927 20.7695C235.359 21.1423 235.959 21.4551 236.251 21.9543C236.538 22.4402 236.664 23.119 236.604 23.6915C236.465 25.0027 235.359 25.9479 233.875 26.0011C231.912 26.0676 229.948 26.0144 227.912 26.0144V26.0077ZM230.314 24.0576C231.22 24.0576 232.091 24.1041 232.957 24.0376C233.569 23.991 234.122 23.7181 234.108 22.9659C234.095 22.2738 233.589 21.9809 232.997 21.9409C232.105 21.8811 231.213 21.9277 230.314 21.9277V24.0576ZM230.321 17.994V19.9708C231.16 19.9708 231.945 19.9908 232.737 19.9708C233.336 19.9508 233.769 19.6513 233.788 19.0124C233.802 18.38 233.402 18.0339 232.79 18.0007C231.978 17.9607 231.166 17.994 230.321 17.994Z" fill="#2052A0"/>
<path d="M202.1 15.9638C200.702 17.488 199.424 18.8724 198.12 20.2968C199.504 22.1871 200.869 24.0374 202.346 26.0475C201.302 26.0475 200.396 26.0741 199.491 26.0276C199.318 26.0209 199.138 25.7347 199.005 25.5483C198.12 24.3636 197.241 23.1788 196.349 21.9741C194.725 23.0457 195.77 24.6764 195.338 26.0209H192.968V16.0237H195.411V19.9041C195.47 19.9241 195.531 19.944 195.59 19.964C196.582 18.8724 197.608 17.8075 198.559 16.6826C199.011 16.1568 199.471 15.8773 200.183 15.9505C200.756 16.0104 201.341 15.9638 202.107 15.9638H202.1Z" fill="#2052A0"/>
<path d="M288.181 18.0737V20.0439C287.849 20.0971 287.543 20.1504 287.243 20.197C287.529 22.7129 285.825 24.0641 283.083 23.5848C282.823 23.5382 282.538 23.658 282.265 23.698C282.531 23.8843 282.784 24.2038 283.063 24.2238C284.042 24.2904 285.027 24.2438 286.012 24.2571C287.163 24.2704 287.882 24.7962 288.148 25.788C288.395 26.7264 287.988 27.645 286.977 28.1508C285.127 29.076 283.197 29.0826 281.253 28.4769C280.627 28.2839 280.115 27.8979 280.081 27.1391C280.048 26.3537 280.554 26.0209 281.2 25.7946C280.075 24.7297 280.134 23.9575 281.439 22.9791C281.366 22.8859 281.293 22.7861 281.213 22.6996C280.141 21.4349 280.467 19.8509 281.978 19.1453C283.39 18.4864 284.807 18.5995 286.085 19.2052C286.784 18.8259 287.409 18.493 288.175 18.0804L288.181 18.0737ZM283.962 27.5584C284.494 27.4519 285.067 27.3654 285.613 27.199C285.779 27.1457 285.872 26.8529 285.999 26.6665C285.819 26.5467 285.639 26.3271 285.46 26.3204C284.534 26.2805 283.602 26.2738 282.677 26.3137C282.471 26.3204 282.278 26.5733 282.085 26.7064C282.225 26.9061 282.331 27.2256 282.517 27.2855C282.957 27.4386 283.442 27.4652 283.962 27.5518V27.5584ZM283.096 21.2819C283.07 21.7678 283.303 22.2071 283.948 22.2803C284.508 22.3468 284.907 21.861 284.9 21.182C284.9 20.5763 284.654 20.1304 284.002 20.1171C283.329 20.1038 283.103 20.5564 283.096 21.2819Z" fill="#2052A0"/>
<path d="M259.821 19.9241V16.0171H262.17V26.001H259.881C259.854 25.7481 259.827 25.4685 259.794 25.1823C258.537 26.3471 257.259 26.5867 255.98 25.9078C254.816 25.2888 254.083 23.6314 254.283 22.054C254.536 20.0772 255.395 19.0322 257.045 18.7526C258.144 18.5663 259.049 18.9723 259.827 19.9175L259.821 19.9241ZM259.827 22.5199C259.827 21.3086 259.229 20.5831 258.224 20.5897C257.265 20.5964 256.659 21.3352 256.653 22.4933C256.653 23.6847 257.278 24.4368 258.277 24.4235C259.242 24.4036 259.827 23.6914 259.827 22.5199Z" fill="#2052A0"/>
<path d="M117.064 77.6773H115.127C115.127 76.4792 115.18 75.3141 115.1 74.156C115.074 73.7833 114.775 73.2709 114.455 73.1312C114.202 73.0182 113.636 73.2646 113.403 73.5236C113.17 73.7833 113.131 74.2563 113.11 74.6423C113.064 75.3274 113.097 76.0201 113.097 76.7122C113.097 77.0049 113.097 77.2976 113.097 77.6506H111.22V71.7071H113.044C113.07 71.8798 113.104 72.0931 113.137 72.3388C114.461 71.2277 115.713 71.0481 116.738 72.3788C117.463 72.0665 118.115 71.6201 118.821 71.5204C120.093 71.3407 120.911 72.1725 121.044 73.5573C121.058 73.7166 121.058 73.8766 121.058 74.0366C121.058 75.2277 121.058 76.4195 121.058 77.6569H119.121C119.121 76.6919 119.121 75.7204 119.121 74.7554C119.121 74.436 119.174 74.0696 119.041 73.8169C118.881 73.5103 118.541 73.1109 118.268 73.1046C117.929 73.0912 117.404 73.3642 117.284 73.6506C117.077 74.1363 117.097 74.7287 117.077 75.2811C117.051 76.0665 117.07 76.8582 117.07 77.6703L117.064 77.6773Z" fill="#2052A0"/>
<path d="M124.272 77.6777H122.395V71.7075H124.219C124.246 71.8802 124.279 72.0936 124.286 72.1463C124.958 71.9266 125.637 71.5209 126.302 71.5475C126.921 71.5742 127.52 72.0599 128.079 72.3132C128.639 72.0732 129.297 71.6275 130.003 71.5209C131.274 71.3412 132.093 72.1729 132.219 73.5577C132.232 73.717 132.232 73.877 132.232 74.037C132.232 75.2282 132.232 76.4199 132.232 77.6574H130.296C130.296 76.6923 130.296 75.7209 130.296 74.7558C130.296 74.4364 130.349 74.0701 130.216 73.8174C130.056 73.5107 129.717 73.1113 129.444 73.105C129.104 73.0916 128.585 73.3647 128.452 73.651C128.246 74.1031 128.266 74.6758 128.246 75.2015C128.219 75.9939 128.239 76.7926 128.239 77.651H126.302C126.302 76.4726 126.356 75.3082 126.276 74.1564C126.249 73.7837 125.949 73.2713 125.63 73.1316C125.377 73.0186 124.812 73.265 124.579 73.531C124.345 73.7907 124.305 74.2631 124.286 74.6491C124.239 75.3348 124.272 76.0269 124.272 76.719C124.272 77.0123 124.272 77.305 124.272 77.684V77.6777Z" fill="#2052A0"/>
<path d="M103.101 72.7252H101.297C101.243 72.5925 101.17 72.4058 101.104 72.2128C100.784 71.2611 100.072 70.7353 99.0803 70.7157C98.1685 70.7023 97.2765 71.2014 97.0835 72.1131C96.9101 72.9315 96.9038 73.8503 97.0701 74.6693C97.2631 75.6141 98.1882 76.1334 99.1266 76.0934C100.125 76.0534 100.797 75.5341 101.11 74.5557C101.156 74.4027 101.21 74.2566 101.276 74.0433C101.583 74.0433 101.896 74.0433 102.202 74.0433C102.495 74.0503 102.781 74.0769 103.067 74.0896C103.207 76.1398 101.596 77.7373 99.3133 77.8636C96.7571 78.0039 94.7939 76.1601 94.7139 73.5442C94.6339 70.9284 96.4708 68.9779 99.0333 68.9385C101.39 68.9049 103.087 70.456 103.101 72.7252Z" fill="#2052A0"/>
<path d="M261.125 72.7988C260.872 71.7937 260.486 70.948 259.388 70.795C259.008 70.7417 258.589 70.7417 258.223 70.8484C256.925 71.2211 256.313 72.8852 256.825 74.529C257.198 75.7404 258.37 76.3461 259.608 75.9734C260.539 75.6941 260.925 74.9684 261.085 74.0699H262.922C263.042 76.1201 261.491 77.6839 259.235 77.8439C256.739 78.0236 254.789 76.3195 254.575 73.7639C254.363 71.188 256.033 69.1779 258.569 68.9449C260.999 68.7252 262.742 70.1626 262.982 72.6922C262.39 72.7188 261.798 72.7455 261.125 72.7785V72.7988Z" fill="#2052A0"/>
<path d="M189.674 72.7319H187.816C187.583 71.8468 187.231 70.9744 186.14 70.8081C185.733 70.7484 185.281 70.7414 184.895 70.8614C183.61 71.2411 183.004 72.9313 183.53 74.5624C183.916 75.7668 185.095 76.3528 186.333 75.9732C187.277 75.6868 187.597 74.9148 187.81 74.083H189.647C189.634 76.3262 187.996 77.85 185.66 77.8703C183.157 77.89 181.314 76.0595 181.254 73.504C181.194 70.9478 182.938 69.0576 185.454 68.9382C187.83 68.8246 189.514 70.3027 189.667 72.7249L189.674 72.7319Z" fill="#2052A0"/>
<path d="M224.139 24.5833C224.152 25.2024 224.385 25.7881 223.573 26.0743C222.521 26.4404 221.636 26.1874 220.877 25.1757C220.118 26.1475 219.08 26.3139 217.949 26.1741C217.07 26.0677 216.378 25.4819 216.245 24.7364C216.065 23.7513 216.365 22.8927 217.263 22.5466C218.361 22.1207 219.533 21.8877 220.864 21.5216C220.651 21.2088 220.478 20.6963 220.212 20.643C219.812 20.5631 219.113 20.6697 218.96 20.9359C218.614 21.5482 218.228 21.5616 217.669 21.4417C217.31 21.3619 216.937 21.3819 216.518 21.3485C216.598 20.3103 217.104 19.5914 217.982 19.1521C219.16 18.5597 220.391 18.5531 221.596 19.0456C222.575 19.445 223.053 20.2437 223.093 21.2887C223.12 22.0009 223.133 22.7263 223.093 23.4385C223.047 24.1906 223.087 24.803 224.139 24.5833ZM220.671 22.9793C220.285 23.0458 219.906 23.1057 219.526 23.179C219.346 23.2122 219.12 23.2322 219.007 23.352C218.801 23.5783 218.534 23.8778 218.541 24.1374C218.541 24.3038 218.973 24.5767 219.233 24.61C220.152 24.7231 220.731 24.0576 220.664 22.9793H220.671Z" fill="#2052A0"/>
<path d="M245.311 24.53C245.198 25.1223 245.61 25.7213 244.832 26.0408C243.82 26.4535 242.922 26.2139 242.029 25.1956C241.278 26.1806 240.233 26.3137 239.101 26.174C238.169 26.0608 237.544 25.4684 237.384 24.5632C237.238 23.7446 237.597 22.8593 238.449 22.5398C239.48 22.1538 240.579 21.9741 241.65 21.7078C241.723 21.6879 241.803 21.6745 242.109 21.6013C241.836 21.2153 241.67 20.7095 241.398 20.6562C240.998 20.5696 240.266 20.6762 240.139 20.9224C239.8 21.6213 239.341 21.5348 238.775 21.4349C238.415 21.375 238.043 21.375 237.63 21.3418C237.803 20.1836 238.409 19.4116 239.454 19.0055C240.452 18.6195 241.471 18.5995 242.489 18.9456C243.667 19.3383 244.24 20.1637 244.286 21.5547C244.313 22.247 244.326 22.9392 244.286 23.6248C244.24 24.3303 244.372 24.7962 245.304 24.53H245.311ZM241.897 22.9258C241.264 23.079 240.678 23.1589 240.153 23.3785C239.94 23.465 239.707 23.8776 239.74 24.1039C239.774 24.3036 240.133 24.5765 240.379 24.6098C241.284 24.7363 241.876 24.0907 241.897 22.9258Z" fill="#2052A0"/>
<path d="M272.174 18.9584H274.457C274.483 19.1915 274.517 19.4443 274.557 19.7572C275.369 18.9518 276.287 18.5258 277.425 18.7921C278.53 19.045 279.222 19.644 279.282 20.7689C279.376 22.4861 279.309 24.21 279.309 26.0004H277.066C277.066 25.0753 277.066 24.1501 277.066 23.2249C277.066 22.8788 277.072 22.5327 277.066 22.1866C277.026 21.115 276.646 20.6025 275.901 20.5892C275.122 20.5758 274.543 21.2215 274.523 22.2199C274.496 23.4645 274.517 24.7158 274.517 26.0137H272.174V18.9518V18.9584Z" fill="#2052A0"/>
<path d="M253.27 26.0208H250.927C250.927 24.6963 250.941 23.4317 250.927 22.1604C250.914 21.0488 250.555 20.5829 249.783 20.5963C249.011 20.6095 248.498 21.2086 248.478 22.1937C248.458 23.4383 248.478 24.6897 248.478 26.0008H246.142C246.142 23.6846 246.142 21.355 246.142 19.0255C247.6 18.6461 248.392 18.8324 248.538 19.6577C249.364 18.9323 250.268 18.5262 251.38 18.7925C252.498 19.0654 253.23 19.8042 253.27 20.9424C253.324 22.613 253.284 24.2836 253.284 26.0142L253.27 26.0208Z" fill="#2052A0"/>
<path d="M268.3 18.9525H270.669V26.0676C270.01 26.0676 269.378 26.1142 268.752 26.041C268.546 26.021 268.373 25.7082 268.12 25.4753C267.461 26.061 266.583 26.4403 265.511 26.2007C264.459 25.9678 263.74 25.3754 263.681 24.2972C263.587 22.5533 263.654 20.8028 263.654 18.9791H265.897C265.897 20.1039 265.897 21.2155 265.897 22.327C265.897 22.6198 265.897 22.9127 265.937 23.1989C266.017 23.8645 266.31 24.377 267.069 24.4036C267.721 24.4302 268.267 23.8845 268.286 23.0857C268.326 21.7346 268.3 20.3835 268.3 18.9458V18.9525Z" fill="#2052A0"/>
<path d="M202.293 22.5129C202.279 20.3031 203.851 18.7323 206.1 18.6991C208.31 18.6724 209.987 20.2765 210.001 22.433C210.02 24.6694 208.403 26.2801 206.133 26.2801C203.89 26.2801 202.3 24.7227 202.293 22.5129ZM204.696 22.5994C204.709 22.7459 204.689 23.072 204.776 23.3715C204.942 23.9239 205.241 24.3699 205.9 24.4365C206.506 24.4897 207.018 24.3566 207.305 23.7842C207.738 22.9322 207.771 22.0337 207.278 21.215C207.092 20.9088 206.639 20.6426 206.273 20.5893C205.235 20.4429 204.709 21.1019 204.689 22.5994H204.696Z" fill="#2052A0"/>
<path d="M211.312 77.6774V69.1377H213.21V72.5123C214.754 71.1809 216.384 71.2075 217.35 72.5123C218.188 73.6437 218.201 75.6539 217.383 76.7986C216.438 78.1167 214.521 78.2431 213.429 77.0583C213.343 76.965 213.256 76.8717 213.116 76.7186C212.984 77.078 212.877 77.3644 212.764 77.6774H211.312ZM216.012 74.7021C216.025 73.6704 215.486 72.998 214.641 72.998C213.796 72.998 213.223 73.664 213.217 74.6691C213.217 75.6736 213.769 76.3593 214.607 76.3726C215.459 76.3929 215.998 75.7472 216.012 74.7021Z" fill="#2052A0"/>
<path d="M213.629 18.9322H215.493V20.543H213.676C213.676 21.6612 213.636 22.7128 213.709 23.7578C213.722 23.9641 214.142 24.2636 214.414 24.3102C214.754 24.3701 215.14 24.2171 215.499 24.1571C215.819 25.6348 215.586 25.9742 214.062 26.2205C212.285 26.5067 211.299 25.6813 211.286 23.8909C211.286 22.8526 211.28 21.8209 211.273 20.7826C211.273 20.736 211.233 20.6894 211.2 20.6095C210.953 20.5962 210.701 20.5762 210.381 20.5563V19.1453C211.725 19.1253 211.945 18.0603 212.132 16.9688H213.623V18.9322H213.629Z" fill="#2052A0"/>
<path d="M164.041 76.5059C164.102 77.0646 164.235 77.5243 163.569 77.744C162.67 78.0367 162.032 77.8303 161.386 76.9319C160.714 77.7573 159.848 78.01 158.83 77.7903C158.078 77.6303 157.572 77.205 157.486 76.4196C157.399 75.6208 157.732 74.9948 158.484 74.6951C159.043 74.4754 159.649 74.3561 160.234 74.203C160.567 74.1161 160.907 74.0634 161.479 73.9434C161.186 73.5637 161.027 73.1713 160.747 73.045C160.501 72.9383 159.902 73.045 159.842 73.2113C159.556 73.963 158.996 73.77 158.464 73.73C158.251 73.7167 158.044 73.7104 157.732 73.6907C157.785 73.4507 157.805 73.2246 157.885 73.0246C158.35 71.8602 159.735 71.2608 161.246 71.5535C162.564 71.8069 163.183 72.5586 163.209 73.9497C163.216 74.5357 163.23 75.1211 163.209 75.7002C163.19 76.2792 163.236 76.7656 164.035 76.4989L164.041 76.5059ZM161.239 75.0481C160.754 75.1681 160.248 75.2278 159.815 75.4342C159.609 75.5338 159.422 75.9332 159.449 76.1732C159.462 76.3326 159.862 76.5523 160.102 76.5726C160.813 76.6189 161.266 75.9999 161.239 75.0481Z" fill="#2052A0"/>
<path d="M237.177 76.4994C237.257 77.1254 237.304 77.5711 236.652 77.7578C235.767 78.0105 235.154 77.8111 234.528 76.9324C233.803 77.7775 232.904 78.0302 231.833 77.7508C231.141 77.5711 230.708 77.1388 230.621 76.4397C230.528 75.681 230.808 75.0156 231.527 74.7426C232.438 74.3965 233.397 74.1965 234.575 73.8708C234.309 73.5508 234.136 73.1318 233.836 73.0118C233.177 72.7457 232.831 73.2315 232.598 73.7972C232.026 73.7572 231.473 73.7242 230.894 73.6842C230.928 72.7857 231.407 72.2067 232.119 71.8473C233.097 71.3546 234.116 71.3477 235.121 71.7807C235.986 72.1534 236.299 72.8924 236.346 73.7642C236.379 74.4296 236.379 75.095 236.346 75.754C236.319 76.3534 236.459 76.7127 237.177 76.493V76.4994ZM234.408 75.0486C233.936 75.1553 233.53 75.2416 233.118 75.335C233.044 75.3546 232.938 75.375 232.904 75.4283C232.765 75.6543 232.518 75.9273 232.558 76.1267C232.605 76.3197 232.944 76.5464 233.177 76.573C233.869 76.6524 234.342 76.067 234.402 75.0486H234.408Z" fill="#2052A0"/>
<path d="M279.369 76.9452C278.69 77.7769 277.825 78.0099 276.8 77.7839C276.074 77.6239 275.595 77.2112 275.495 76.4658C275.389 75.6734 275.702 75.0283 276.447 74.7153C277.026 74.476 277.659 74.356 278.278 74.2029C278.61 74.116 278.943 74.0633 279.569 73.9363C279.176 73.5236 278.916 73.0182 278.67 73.0245C278.238 73.0379 277.805 73.3642 277.379 73.5572C277.412 73.6372 277.439 73.7166 277.472 73.8036C276.92 73.7699 276.367 73.7369 275.715 73.6969C275.808 73.3839 275.848 73.1045 275.968 72.8582C276.507 71.7731 277.945 71.2677 279.449 71.6137C280.64 71.8867 281.206 72.6385 281.226 73.9966C281.233 74.582 281.246 75.168 281.226 75.7471C281.2 76.3191 281.286 76.7318 282.092 76.4925C282.138 76.5458 282.178 76.5991 282.224 76.6588C282.052 77.0048 281.965 77.5039 281.685 77.6702C280.873 78.1566 280.095 77.8569 279.382 76.9515L279.369 76.9452ZM279.243 75.0683C278.956 75.121 278.717 75.1547 278.484 75.208C278.251 75.2614 277.965 75.2741 277.819 75.4207C277.619 75.6137 277.419 75.9267 277.439 76.1661C277.452 76.3261 277.845 76.5521 278.085 76.5725C278.79 76.6258 279.249 76.0131 279.243 75.0614V75.0683Z" fill="#2052A0"/>
<path d="M210.514 76.5062C210.573 77.0719 210.687 77.531 210.028 77.7443C209.129 78.03 208.503 77.8243 207.851 76.9253C207.152 77.7773 206.267 78.0173 205.209 77.764C204.517 77.5977 204.064 77.185 203.964 76.4796C203.858 75.7272 204.11 75.0485 204.83 74.7621C205.635 74.4427 206.507 74.2897 207.345 74.0637C207.472 74.03 207.599 74.0034 207.958 73.9234C207.665 73.5507 207.498 73.1583 207.213 73.0319C206.966 72.9253 206.374 73.0453 206.307 73.2116C206.014 73.9634 205.455 73.757 204.929 73.724C204.716 73.7107 204.51 73.7037 204.19 73.684C204.264 73.4046 204.303 73.1583 204.404 72.9316C204.903 71.7938 206.294 71.2415 207.818 71.5672C209.082 71.8338 209.668 72.5792 209.688 73.95C209.695 74.5094 209.701 75.0688 209.688 75.6275C209.668 76.2135 209.635 76.7926 210.521 76.4929L210.514 76.5062ZM207.731 75.0351C207.213 75.1615 206.72 75.2148 206.307 75.4148C206.094 75.5208 205.854 75.9335 205.908 76.1335C205.954 76.3329 206.354 76.5526 206.613 76.5659C207.292 76.5926 207.698 76.0269 207.731 75.0351Z" fill="#2052A0"/>
<path d="M175.29 75.1612C174.545 75.1612 173.859 75.1612 173.167 75.1612C172.475 75.1612 171.796 75.1612 171.097 75.1612C171.31 76.2863 172.554 76.8787 173.287 76.1396C173.906 75.5143 174.478 75.6539 175.144 75.767C175.17 77.2381 173.467 77.9435 172.208 77.8838C170.278 77.7904 168.987 76.4196 169.127 74.5758C169.273 72.6723 170.757 71.3606 172.601 71.5073C174.445 71.6539 175.503 73.0514 175.284 75.1682L175.29 75.1612ZM171.084 74.0965H173.453C173.373 73.3974 173.074 72.9714 172.375 72.9314C171.61 72.892 171.243 73.3244 171.084 74.0965Z" fill="#2052A0"/>
<path d="M248.466 75.1418H244.285C244.226 75.2014 244.172 75.2681 244.113 75.3278C244.392 75.6408 244.625 76.1335 244.971 76.2332C245.43 76.3665 246.189 76.3862 246.435 76.1132C247.048 75.4345 247.647 75.6941 248.306 75.7672C248.153 77.1583 246.821 78.03 245.158 77.8637C243.28 77.6776 242.116 76.3399 242.269 74.5424C242.429 72.6726 243.873 71.3875 245.69 71.5011C247.534 71.6205 248.552 72.9183 248.466 75.1481V75.1418ZM244.232 74.0833H246.602C246.495 73.4046 246.209 72.9849 245.557 72.9316C244.791 72.8719 244.392 73.2916 244.232 74.0833Z" fill="#2052A0"/>
<path d="M274.723 75.7672C274.291 77.385 272.84 78.1571 271.109 77.7907C269.345 77.4117 268.36 76.0136 268.646 74.2898C268.946 72.4796 270.37 71.3412 272.12 71.4942C273.931 71.6605 274.903 72.9386 274.81 75.1152H270.623C270.57 75.1818 270.51 75.2548 270.457 75.3215C270.743 75.6409 270.976 76.1266 271.322 76.2269C271.781 76.3596 272.54 76.3729 272.786 76.0999C273.398 75.4212 273.998 75.6809 274.723 75.7609V75.7672ZM272.859 74.1031C272.826 73.2917 272.487 72.9253 271.795 72.9253C271.082 72.9253 270.717 73.298 270.663 74.1031H272.853H272.859Z" fill="#2052A0"/>
<path d="M293.333 75.1417H289.146C289.093 75.2014 289.033 75.2617 288.98 75.3277C289.266 75.6477 289.499 76.1334 289.845 76.2331C290.304 76.3665 291.063 76.3798 291.309 76.1068C291.921 75.428 292.521 75.6871 293.18 75.7607C293.014 77.1582 291.688 78.0236 290.025 77.8573C288.147 77.6706 286.983 76.3265 287.143 74.529C287.302 72.6592 288.753 71.3741 290.57 71.4941C292.414 71.6141 293.433 72.9182 293.339 75.1481L293.333 75.1417ZM289.12 74.11H291.416C291.443 73.4179 291.123 73.0382 290.491 72.9315C289.785 72.8185 289.366 73.1715 289.12 74.11Z" fill="#2052A0"/>
<path d="M140.592 71.6671H142.43C142.456 71.8931 142.489 72.1065 142.522 72.3922C142.782 72.1795 142.962 71.9928 143.181 71.8531C144.646 70.9084 146.436 71.7465 146.569 73.5103C146.676 74.8747 146.59 76.2595 146.59 77.6773H144.672C144.672 76.5325 144.719 75.3941 144.646 74.2696C144.62 73.8766 144.366 73.4043 144.054 73.1643C143.848 73.0049 143.215 73.0716 143.049 73.2709C142.749 73.6239 142.556 74.1363 142.496 74.6023C142.409 75.3344 142.47 76.0862 142.47 76.8322C142.47 77.0912 142.47 77.3579 142.47 77.6703H140.586V71.6804L140.592 71.6671Z" fill="#2052A0"/>
<path d="M110.202 74.695C110.195 76.5255 108.864 77.857 107.034 77.8703C105.163 77.8836 103.812 76.5325 103.819 74.662C103.826 72.8049 105.203 71.4538 107.067 71.4874C108.891 71.5141 110.216 72.8716 110.209 74.695H110.202ZM105.736 74.629C105.816 74.9947 105.79 75.4011 105.976 75.6404C106.222 75.9598 106.642 76.3725 106.967 76.3592C107.34 76.3395 107.926 75.9535 108.006 75.6271C108.159 75.0017 108.125 74.276 107.966 73.6436C107.892 73.3509 107.353 73.0049 107.021 72.9979C106.688 72.9916 106.268 73.3109 106.036 73.6036C105.83 73.8633 105.823 74.2893 105.729 74.629H105.736Z" fill="#2052A0"/>
<path d="M137.325 71.6738H139.209V77.6643H137.372C137.345 77.4713 137.318 77.2516 137.285 77.0186C136.946 77.2649 136.68 77.538 136.353 77.684C134.863 78.35 133.445 77.4376 133.372 75.7208C133.312 74.4027 133.358 73.0719 133.358 71.7005H135.289C135.289 72.6592 135.289 73.6307 135.289 74.6027C135.289 74.9221 135.235 75.2948 135.382 75.5341C135.568 75.8472 135.927 76.2465 136.227 76.2529C136.54 76.2529 137.006 75.9138 137.139 75.6008C137.332 75.1614 137.305 74.6224 137.318 74.1234C137.345 73.331 137.318 72.5392 137.318 71.6675L137.325 71.6738Z" fill="#2052A0"/>
<path d="M221.636 71.4874C223.46 71.4741 224.825 72.7985 224.858 74.6157C224.891 76.4791 223.546 77.8569 221.689 77.8703C219.846 77.8836 218.501 76.5788 218.475 74.742C218.441 72.8715 219.779 71.5007 221.643 71.4874H221.636ZM220.418 74.629C220.458 74.9014 220.478 75.1414 220.531 75.3674C220.665 75.9668 220.99 76.3991 221.643 76.4061C222.282 76.4061 222.701 76.0265 222.767 75.4011C222.828 74.862 222.88 74.2626 222.694 73.7833C222.555 73.4309 222.035 73.0182 221.676 73.0112C221.317 73.0112 220.898 73.4239 220.618 73.7566C220.438 73.9699 220.478 74.356 220.425 74.6353L220.418 74.629Z" fill="#2052A0"/>
<path d="M196.749 74.6818C196.749 76.5459 195.378 77.897 193.514 77.8767C191.677 77.857 190.359 76.5256 190.359 74.6888C190.359 72.8253 191.724 71.4742 193.588 71.4939C195.411 71.5142 196.743 72.8583 196.749 74.6818ZM192.31 74.6685C192.356 74.9618 192.377 75.2278 192.443 75.4805C192.603 76.0399 192.949 76.4259 193.568 76.4126C194.173 76.3929 194.58 76.0399 194.653 75.4539C194.719 74.9148 194.719 74.3561 194.626 73.8234C194.533 73.271 194.08 72.885 193.548 72.998C193.155 73.085 192.769 73.4577 192.503 73.7904C192.33 74.0031 192.37 74.3891 192.316 74.6755L192.31 74.6685Z" fill="#2052A0"/>
<path d="M156.966 74.0962C156.408 74.1426 155.915 74.1826 155.456 74.2226C155.229 73.8569 155.09 73.4969 154.837 73.2512C154.377 72.7985 153.632 72.8581 153.179 73.3108C152.594 73.8962 152.587 75.4543 153.166 76.0461C153.612 76.5058 154.331 76.5458 154.83 76.1331C154.91 76.0664 155.01 75.9864 155.036 75.9C155.363 74.7686 156.168 75.208 156.874 75.2943C156.733 76.9248 155.602 77.9032 153.932 77.8765C152.174 77.8499 150.883 76.6588 150.763 74.9413C150.637 73.1711 151.735 71.8067 153.512 71.5267C155.243 71.2607 156.494 72.1458 156.966 74.1026V74.0962Z" fill="#2052A0"/>
<path d="M164.815 73.0582C164.515 73.0113 164.282 72.9782 164.029 72.9382V71.8532C164.688 71.7935 165.241 71.5471 165.32 70.8214C165.413 69.9097 165.959 69.8767 166.705 70.0627V71.6138H168.276V72.9916H166.732C166.732 73.9097 166.732 74.7554 166.732 75.6005C166.732 76.0932 167.011 76.3325 167.49 76.2995C167.75 76.2862 168.01 76.2195 168.262 76.1732C168.568 77.2779 168.389 77.584 167.304 77.817C165.746 78.1433 164.821 77.4113 164.808 75.8335C164.808 74.9351 164.808 74.0297 164.808 73.0582H164.815Z" fill="#2052A0"/>
<path d="M241.609 76.1795C241.809 77.3446 241.722 77.511 240.791 77.7637C239.573 78.0964 238.495 77.7307 238.268 76.7986C238.102 76.1199 238.142 75.3878 238.115 74.6754C238.095 74.1497 238.115 73.617 238.115 73.0716C237.835 73.0316 237.609 72.9916 237.343 72.9516V71.8602C238.222 71.8468 238.608 71.2811 238.734 70.4754C238.874 69.6234 239.506 70.123 240.006 69.9561V71.6468H241.59V72.9649C241.103 72.9846 240.611 73.0113 240.032 73.038C240.032 73.9167 239.979 74.7884 240.065 75.6475C240.092 75.8868 240.484 76.1795 240.771 76.2862C241.004 76.3726 241.33 76.2265 241.609 76.1865V76.1795Z" fill="#2052A0"/>
<path d="M282.823 73.0583C282.531 73.0113 282.298 72.9783 282.038 72.9383V71.8399C282.697 71.7999 283.243 71.5472 283.323 70.8215C283.422 69.9364 283.935 69.8431 284.707 70.0564V71.6005H286.278V72.965C285.799 72.9847 285.306 73.005 284.74 73.0316C284.74 73.9301 284.687 74.8018 284.774 75.6672C284.8 75.9002 285.213 76.1796 285.499 76.2793C285.739 76.3662 286.051 76.2132 286.338 76.1662C286.498 77.4374 286.305 77.6907 285.086 77.8501C283.842 78.0101 282.983 77.4774 282.85 76.3929C282.777 75.7936 282.823 75.1745 282.817 74.5624C282.817 74.0831 282.817 73.6107 282.817 73.0513L282.823 73.0583Z" fill="#2052A0"/>
<path d="M197.921 69.1182H199.751V77.6642H197.921V69.1182Z" fill="#2052A0"/>
<path d="M202.946 77.6906H201.116V69.1445H202.946V77.6906Z" fill="#2052A0"/>
<path d="M226.021 71.6737H227.859C227.886 71.9067 227.905 72.1264 227.919 72.2064C228.544 71.9798 229.237 71.4807 229.842 71.5671C231.081 71.7537 230.049 72.7588 230.348 73.3175C230.221 73.3778 230.168 73.4312 230.128 73.4242C228.298 73.1912 227.912 73.5372 227.912 75.4013C227.912 76.1398 227.912 76.8788 227.912 77.6642H226.028V71.6737H226.021Z" fill="#2052A0"/>
<path d="M263.854 71.6738H265.711C265.738 71.9202 265.757 72.1398 265.791 72.4929C266.43 71.7671 267.149 71.1151 267.987 71.6808C268.314 71.9005 268.187 72.7786 268.26 73.3246C268.034 73.3913 267.981 73.4313 267.934 73.4243C266.21 73.1716 265.751 73.564 265.751 75.2814C265.751 76.0668 265.751 76.8586 265.751 77.684H263.854V71.6808V71.6738Z" fill="#2052A0"/>
<path d="M147.934 71.6738H149.765V77.6643H147.934V71.6738Z" fill="#2052A0"/>
<path d="M178.199 75.6671C178.439 78.6354 178.066 79.3281 176.182 79.4144C176.169 79.1548 176.163 78.9021 176.149 78.7021C176.509 78.429 176.828 78.1833 177.154 77.937C177.121 77.8767 177.088 77.817 177.054 77.7503C176.775 77.7236 176.502 77.697 176.189 77.6703V75.6602H178.199V75.6671Z" fill="#2052A0"/>
<path d="M250.17 77.7442C249.91 77.7238 249.644 77.7105 249.331 77.6908V75.6807H251.261C251.601 78.2896 251.428 79.2883 249.338 79.4413C249.318 79.2883 249.298 79.1416 249.285 78.9886C249.278 78.8553 249.285 78.7289 249.285 78.7156C249.671 78.4229 249.977 78.1899 250.283 77.9569L250.17 77.7372V77.7442Z" fill="#2052A0"/>
<path d="M147.928 69.1377H149.825V70.8082H147.928V69.1377Z" fill="#2052A0"/>
</g>
<defs>
<clipPath id="clip0_719_148">
<rect width="394.921" height="80" fill="white"/>
</clipPath>
</defs>
</svg>
