<svg width="160" height="160" viewBox="0 0 160 160" fill="none" xmlns="http://www.w3.org/2000/svg">
<path d="M30.5879 4.83839C31.1801 4.83669 31.7723 4.83447 32.3645 4.83175C33.9645 4.82608 35.5643 4.82825 37.1643 4.83223C38.8435 4.8354 40.5226 4.83245 42.2018 4.83049C45.021 4.82822 47.8401 4.83121 50.6593 4.83717C53.9126 4.84397 57.1658 4.84177 60.4191 4.83489C63.2188 4.8292 66.0185 4.82842 68.8183 4.83168C70.4876 4.83363 72.1568 4.83391 73.8261 4.82976C75.396 4.82614 76.9657 4.82869 78.5355 4.83588C79.1095 4.83753 79.6836 4.83707 80.2576 4.8343C84.6882 4.8149 88.2102 5.23784 91.562 8.43763C94.2476 11.2509 95.1931 14.352 95.1613 18.1849C95.1645 18.681 95.1645 18.681 95.1679 19.1871C95.1733 20.2683 95.1698 21.3493 95.1655 22.4306C95.1664 23.1863 95.1676 23.9421 95.1692 24.6979C95.171 26.2758 95.1683 27.8535 95.1625 29.4314C95.1553 31.455 95.1595 33.4784 95.1669 35.502C95.1715 37.0598 95.17 38.6176 95.1668 40.1754C95.166 40.9219 95.167 41.6684 95.1699 42.4148C95.1731 43.4553 95.1682 44.4955 95.1613 45.5359C95.1638 45.8446 95.1663 46.1532 95.1689 46.4711C95.1432 48.537 95.1432 48.537 94.4425 49.576C93.7495 50.0001 93.7495 50.0001 92.4995 50.0001C91.9303 55.8223 91.9303 55.8223 93.9351 61.0341C94.7975 61.9091 95.7236 62.6526 96.6987 63.3974C97.6249 64.1228 97.7925 64.315 98.1746 65.4921C98.12 66.6587 97.9199 67.2472 97.3237 68.2423C97.0675 68.6846 97.0675 68.6846 96.8062 69.1359C96.2495 70.0001 96.2495 70.0001 95.6733 70.7472C94.649 72.0011 94.649 72.0011 94.4331 73.5353C94.6719 74.2716 94.9635 74.9345 95.312 75.6251C96.2495 77.7098 96.2495 77.7098 96.2495 79.0626C96.6105 79.0884 96.9714 79.1142 97.3433 79.1408C98.8166 79.3055 100.24 79.6152 101.679 79.9611C101.899 80.0115 102.118 80.062 102.344 80.114C104.366 80.617 104.366 80.617 105 81.5626C105.1 82.467 105.146 83.3027 105.146 84.2079C105.148 84.4672 105.151 84.7265 105.153 84.9936C105.157 85.5418 105.157 86.09 105.156 86.6382C105.156 87.4766 105.169 88.3141 105.183 89.1524C105.184 89.6852 105.185 90.218 105.185 90.7509C105.19 91.0012 105.195 91.2516 105.201 91.5095C105.186 92.718 105.123 93.3037 104.29 94.2058C103.533 94.6333 102.952 94.9055 102.109 95.0831C101.867 95.1355 101.625 95.1879 101.376 95.2418C101.128 95.291 100.88 95.3401 100.625 95.3908C100.376 95.4447 100.128 95.4987 99.8726 95.5543C98.6485 95.8114 97.5074 96.0086 96.2495 95.9376C96.2036 96.1932 96.2036 96.1932 96.1567 96.454C95.834 98.0815 95.355 99.4326 94.5649 100.894C94.2894 101.862 94.5334 102.235 94.9995 103.125C95.6544 104.187 96.3441 105.226 97.0442 106.259C97.8731 107.534 98.4034 108.428 98.1245 110C97.7559 110.62 97.7559 110.62 97.2261 111.172C97.0295 111.39 96.8329 111.607 96.6304 111.831C95.937 112.5 95.937 112.5 95.1069 113.091C93.7884 114.114 92.963 114.845 92.6429 116.498C92.4223 118.704 92.4271 120.912 92.4995 123.125C106.371 114.241 113.623 100.4 117.105 84.5762C118.893 75.9223 119.51 67.1946 119.671 58.3766C119.689 57.3678 119.709 56.359 119.728 55.3502C119.826 50.2336 119.916 45.1169 120 40.0001C119.612 40.01 119.612 40.01 119.216 40.02C118.045 40.0459 116.874 40.0622 115.703 40.0783C115.296 40.0887 114.889 40.0992 114.47 40.11C114.079 40.114 113.688 40.1181 113.286 40.1222C112.926 40.1287 112.566 40.1353 112.195 40.142C111.044 39.9692 110.688 39.6726 110 38.7501C109.492 36.2063 110.914 34.3584 112.187 32.2462C112.415 31.8588 112.643 31.4711 112.87 31.083C113.459 30.0807 114.053 29.0822 114.65 28.0847C115.197 27.1702 115.738 26.2529 116.28 25.3358C116.899 24.2889 117.519 23.2424 118.141 22.1972C119.601 19.7444 121.037 17.2789 122.46 14.8048C122.654 14.469 122.847 14.1332 123.047 13.7872C124.114 11.9339 124.114 11.9339 125.179 10.0786C125.612 9.32214 126.048 8.56722 126.484 7.81263C126.669 7.48717 126.669 7.48717 126.857 7.15513C127.424 6.18085 127.795 5.63629 128.75 5.00013C130.937 4.75312 130.937 4.75312 131.998 5.59217C133.119 6.80681 133.845 8.28343 134.628 9.72669C136.154 12.4817 137.722 15.206 139.335 17.9103C141.215 21.0664 143.073 24.2342 144.898 27.4228C145.787 28.9776 146.685 30.5247 147.619 32.0534C147.781 32.3218 147.943 32.5903 148.11 32.867C148.408 33.3584 148.709 33.8474 149.016 34.333C149.946 35.8813 150.259 36.9399 150 38.7501C149.491 39.4403 149.491 39.4403 148.75 40.0001C147.804 40.142 147.804 40.142 146.713 40.1222C146.323 40.1182 145.932 40.1141 145.529 40.11C145.122 40.0995 144.716 40.089 144.296 40.0783C143.885 40.0726 143.473 40.067 143.049 40.0612C142.032 40.0464 141.016 40.0259 140 40.0001C140.002 40.2323 140.005 40.4644 140.008 40.7035C140.033 42.8922 140.052 45.0807 140.064 47.2695C140.071 48.3947 140.08 49.5198 140.094 50.645C140.107 51.731 140.115 52.817 140.118 53.9031C140.122 54.5187 140.131 55.1343 140.141 55.7498C140.141 56.1251 140.141 56.5004 140.141 56.887C140.144 57.2174 140.147 57.5477 140.15 57.888C139.96 58.9783 139.635 59.3514 138.75 60.0001C138.337 60.0001 137.925 60.0001 137.5 60.0001C137.5 61.6501 137.5 63.3001 137.5 65.0001C138.118 65.1033 138.737 65.2064 139.375 65.3126C140.141 66.4627 140.218 67.4139 140 68.7501C139.368 69.6623 139.004 69.9425 137.923 70.1869C137.68 70.2284 137.437 70.2699 137.187 70.3126C137.159 70.5463 137.131 70.7799 137.102 71.0206C135.214 86.4263 130.8 102.016 119.857 113.526C119.051 114.365 119.051 114.365 118.336 115.283C117.352 116.479 116.186 117.449 115 118.438C114.804 118.601 114.608 118.763 114.407 118.931C108.006 124.166 100.606 128.199 92.4995 130C92.4995 133.3 92.4995 136.6 92.4995 140C93.1183 140.103 93.737 140.206 94.3745 140.313C95.4007 141.852 95.1588 143.514 94.9995 145.313C94.2705 148.648 92.3078 151.286 89.5392 153.246C86.3473 155.285 83.0579 155.179 79.4111 155.162C78.8189 155.164 78.2267 155.166 77.6345 155.169C76.0345 155.174 74.4347 155.172 72.8347 155.168C71.1555 155.165 69.4764 155.168 67.7972 155.17C64.978 155.172 62.1589 155.169 59.3397 155.163C56.0864 155.156 52.8332 155.158 49.5799 155.165C46.7802 155.171 43.9805 155.172 41.1808 155.169C39.5115 155.167 37.8422 155.166 36.1729 155.171C34.6031 155.174 33.0334 155.172 31.4635 155.164C30.8895 155.163 30.3154 155.163 29.7414 155.166C25.3108 155.185 21.7889 154.762 18.437 151.563C15.1748 148.145 14.8144 144.473 14.8408 139.963C14.8393 139.424 14.8374 138.885 14.8349 138.345C14.8297 136.87 14.8322 135.396 14.8361 133.921C14.8389 132.327 14.8346 130.734 14.8311 129.14C14.8256 126.022 14.8268 122.903 14.8304 119.784C14.8332 117.249 14.8336 114.714 14.8322 112.179C14.8321 111.818 14.8319 111.457 14.8317 111.085C14.8313 110.351 14.8309 109.618 14.8304 108.884C14.8269 102.009 14.831 95.1334 14.8377 88.2579C14.8433 82.361 14.8423 76.4641 14.8366 70.5672C14.8299 63.716 14.8272 56.8649 14.8311 50.0137C14.8315 49.2829 14.8319 48.552 14.8322 47.8212C14.8324 47.4616 14.8326 47.1021 14.8328 46.7316C14.8339 44.2001 14.8321 41.6687 14.8291 39.1372C14.8256 36.0514 14.8266 32.9656 14.8332 29.8798C14.8365 28.3059 14.8378 26.7322 14.8337 25.1583C14.83 23.7164 14.832 22.2747 14.8387 20.8328C14.8401 20.3124 14.8394 19.7919 14.8363 19.2715C14.8134 15.0223 15.3999 11.6191 18.437 8.43763C22.043 4.99526 25.868 4.8156 30.5879 4.83839Z" fill="#C4C4FB"/>
<path d="M64.3346 49.8338C64.6905 49.832 64.6905 49.832 65.0536 49.8302C65.5545 49.8294 66.0555 49.8317 66.5563 49.8369C67.3206 49.8436 68.0839 49.837 68.8481 49.829C69.3358 49.8298 69.8235 49.8314 70.3111 49.8338C70.652 49.83 70.652 49.83 70.9998 49.8262C72.0946 49.8463 72.7754 49.9783 73.7273 50.5328C74.4747 51.3605 74.6088 51.7933 74.7374 52.8893C74.8066 53.3583 74.8066 53.3583 74.8771 53.8368C74.9241 54.1626 74.971 54.4884 75.0194 54.8241C75.395 57.2854 75.395 57.2854 76.8041 59.2247C77.769 59.6 78.6702 59.8188 79.6874 59.9999C80.0418 60.1997 80.3963 60.3995 80.7616 60.6053C81.533 61.0217 81.533 61.0217 82.2496 60.7457C83.611 60.0717 84.8098 59.1681 86.0301 58.2677C87.3818 57.3215 88.2979 56.9166 89.9999 57.1874C91.2972 57.9248 92.3491 58.9852 93.4374 59.9999C93.7232 60.2609 93.7232 60.2609 94.0149 60.5272C94.6235 61.0868 95.2229 61.6548 95.8202 62.2264C96.0127 62.4055 96.2053 62.5846 96.4037 62.7692C97.325 63.6768 97.7704 64.2326 98.1432 65.4979C98.1229 66.6773 97.9257 67.2378 97.3241 68.242C97.0679 68.6844 97.0679 68.6844 96.8065 69.1356C96.2499 69.9999 96.2499 69.9999 95.6737 70.7469C94.6493 72.0008 94.6493 72.0008 94.4334 73.535C94.6722 74.2713 94.9639 74.9342 95.3124 75.6249C96.2499 77.7096 96.2499 77.7096 96.2499 79.0624C96.6108 79.0881 96.9717 79.1139 97.3436 79.1405C98.817 79.3052 100.24 79.6149 101.68 79.9608C101.899 80.0112 102.118 80.0617 102.344 80.1137C104.366 80.6168 104.366 80.6168 105 81.5624C105.101 82.4667 105.146 83.3024 105.146 84.2076C105.149 84.4669 105.151 84.7262 105.154 84.9933C105.157 85.5415 105.158 86.0898 105.156 86.638C105.156 87.4763 105.169 88.3138 105.183 89.1521C105.185 89.6849 105.185 90.2177 105.185 90.7506C105.191 91.0009 105.196 91.2513 105.201 91.5092C105.186 92.7178 105.124 93.3035 104.29 94.2056C103.533 94.633 102.952 94.9053 102.109 95.0829C101.868 95.1352 101.626 95.1876 101.377 95.2416C101.129 95.2907 100.881 95.3398 100.625 95.3905C100.377 95.4445 100.129 95.4984 99.8729 95.5541C98.6488 95.8111 97.5078 96.0084 96.2499 95.9374C96.2192 96.1078 96.1886 96.2782 96.1571 96.4537C95.8344 98.0813 95.3554 99.4323 94.5653 100.893C94.2898 101.861 94.5337 102.235 94.9999 103.125C95.6547 104.187 96.3444 105.226 97.0445 106.259C97.8734 107.534 98.4038 108.428 98.1249 110C97.7562 110.62 97.7562 110.62 97.2264 111.172C97.0266 111.382 96.8268 111.593 96.6209 111.81C96.3954 112.038 96.1698 112.265 95.9374 112.5C95.57 112.885 95.57 112.885 95.1952 113.277C90.9537 117.645 90.9537 117.645 88.9989 117.988C87.0678 117.702 85.7712 116.498 84.2449 115.34C82.8655 114.274 82.8655 114.274 81.2071 114.217C80.9119 114.372 80.6166 114.528 80.3124 114.687C79.9659 114.795 79.6195 114.902 79.2626 115.013C78.9129 115.131 78.5632 115.249 78.203 115.371C77.6737 115.542 77.6737 115.542 77.1336 115.716C76.1619 116.182 76.1619 116.182 75.8507 117.24C75.7762 117.635 75.7016 118.03 75.6249 118.437C75.5333 118.855 75.4401 119.273 75.3453 119.69C75.2008 120.336 75.0575 120.981 74.926 121.629C74.5646 123.198 74.0679 124.003 72.8124 125C71.939 125.153 71.2602 125.213 70.3905 125.196C70.1606 125.197 69.9306 125.198 69.6938 125.199C69.2094 125.198 68.7251 125.194 68.2408 125.186C67.5019 125.176 66.7642 125.18 66.0252 125.186C65.5532 125.184 65.0812 125.181 64.6092 125.177C64.3898 125.178 64.1703 125.18 63.9443 125.182C62.8668 125.156 62.2156 125.017 61.2856 124.459C60.5688 123.69 60.3524 123.242 60.1305 122.225C60.065 121.937 59.9995 121.65 59.9321 121.353C59.8707 121.055 59.8092 120.756 59.7459 120.449C59.6785 120.15 59.611 119.85 59.5415 119.541C59.0624 117.371 59.0624 117.371 59.0624 116.25C58.8658 116.197 58.6692 116.144 58.4667 116.089C56.8558 115.633 55.4543 115.124 54.027 114.242C53.1182 113.965 52.7141 114.254 51.8749 114.687C50.8215 115.342 49.7906 116.03 48.7682 116.732C48.5567 116.87 48.3452 117.008 48.1273 117.151C47.8452 117.341 47.8452 117.341 47.5574 117.535C46.5304 117.952 45.7854 117.947 44.6874 117.812C43.9866 117.308 43.4899 116.881 42.9125 116.262C42.7568 116.104 42.6011 115.946 42.4406 115.783C41.9472 115.28 41.462 114.769 40.9764 114.258C40.6433 113.916 40.3096 113.575 39.9754 113.235C37.2515 110.44 37.2515 110.44 37.0482 109.044C37.2711 107.071 38.4845 105.794 39.6593 104.245C40.1441 103.571 40.5824 102.938 40.9374 102.187C40.821 101.187 40.821 101.187 40.3124 100.312C40.2338 99.9732 40.1553 99.634 40.0743 99.2845C39.7523 98.1243 39.43 97.2481 38.7499 96.2499C37.2262 95.4943 35.7365 95.2442 34.0624 94.9999C31.4377 94.5522 31.4377 94.5522 30.5608 93.7242C29.8667 92.5959 29.819 91.6762 29.8338 90.3905C29.8326 90.1606 29.8314 89.9306 29.8302 89.6938C29.8294 89.2094 29.8317 88.7251 29.8369 88.2408C29.8436 87.502 29.8369 86.7641 29.829 86.0252C29.8298 85.5532 29.8314 85.0812 29.8338 84.6092C29.8313 84.3898 29.8288 84.1703 29.8262 83.9443C29.8467 82.8653 29.9819 82.2173 30.5399 81.2856C31.3098 80.5691 31.7576 80.3524 32.7745 80.1305C33.0623 80.065 33.3502 79.9995 33.6467 79.9321C33.945 79.8707 34.2433 79.8092 34.5506 79.7459C34.8501 79.6785 35.1496 79.611 35.4582 79.5415C37.6287 79.0624 37.6287 79.0624 38.7499 79.0624C38.803 78.8658 38.8562 78.6692 38.911 78.4667C39.3671 76.8558 39.8755 75.4543 40.7579 74.027C41.0345 73.1182 40.7456 72.7141 40.3124 71.8749C39.658 70.8215 38.9693 69.7906 38.2677 68.7682C38.1295 68.5567 37.9913 68.3452 37.849 68.1273C37.6586 67.8452 37.6586 67.8452 37.4643 67.5574C37.047 66.5289 37.0521 65.7875 37.1874 64.6874C37.6931 63.9627 38.1291 63.4376 38.7511 62.8331C38.9124 62.6697 39.0736 62.5064 39.2398 62.338C39.581 61.9953 39.925 61.6553 40.2715 61.318C40.7992 60.802 41.3143 60.2754 41.8291 59.7466C42.1631 59.414 42.4977 59.0822 42.8331 58.7511C42.9859 58.5939 43.1386 58.4367 43.296 58.2747C44.1419 57.4678 44.6385 57.1936 45.8088 57.0433C46.8546 57.1846 47.4131 57.3602 48.286 57.9283C48.5285 58.082 48.771 58.2357 49.0209 58.394C49.2666 58.5566 49.5123 58.7191 49.7655 58.8866C50.2614 59.2059 50.7578 59.5245 51.2547 59.8424C51.4716 59.9848 51.6884 60.1271 51.9118 60.2738C52.533 60.6732 52.533 60.6732 53.4374 60.9374C54.1528 60.651 54.1528 60.651 54.9022 60.2147C56.2874 59.4824 57.5308 59.0618 59.0624 58.7499C59.0966 58.5488 59.1308 58.3478 59.1661 58.1407C59.3318 57.1963 59.5077 56.2543 59.6874 55.3124C59.7895 54.7734 59.7895 54.7734 59.8937 54.2235C59.9674 53.8674 60.0411 53.5113 60.117 53.1444C60.1839 52.8129 60.2508 52.4813 60.3197 52.1397C61.0368 50.0487 62.2874 49.8111 64.3346 49.8338Z" fill="#FDEF75"/>
<path d="M130.584 4.8252C131.875 5.16347 132.55 6.15032 133.237 7.22853C133.715 8.05401 134.174 8.88804 134.629 9.72632C136.155 12.4813 137.722 15.2056 139.336 17.9099C141.216 21.066 143.074 24.2338 144.898 27.4225C145.788 28.9772 146.686 30.5243 147.62 32.053C147.782 32.3215 147.944 32.59 148.111 32.8666C148.408 33.358 148.71 33.847 149.017 34.3326C149.947 35.8809 150.26 36.9396 150 38.7498C149.492 39.4399 149.492 39.4399 148.75 39.9998C147.805 40.1417 147.805 40.1417 146.714 40.1218C146.323 40.1178 145.933 40.1138 145.53 40.1096C145.123 40.0991 144.716 40.0887 144.297 40.0779C143.885 40.0722 143.474 40.0666 143.05 40.0608C142.033 40.0461 141.017 40.0255 140 39.9998C140.003 40.2319 140.006 40.464 140.009 40.7032C140.034 42.8918 140.053 45.0804 140.065 47.2691C140.072 48.3943 140.08 49.5194 140.095 50.6446C140.108 51.7307 140.116 52.8166 140.119 53.9028C140.122 54.5183 140.132 55.1339 140.142 55.7494C140.142 56.1247 140.142 56.5 140.142 56.8867C140.145 57.217 140.148 57.5473 140.151 57.8876C139.96 58.9779 139.636 59.351 138.75 59.9998C138.338 59.9998 137.925 59.9998 137.5 59.9998C137.5 61.6498 137.5 63.2998 137.5 64.9998C138.119 65.1029 138.738 65.206 139.375 65.3123C140.142 66.4623 140.218 67.4136 140 68.7498C139.369 69.6619 139.005 69.9422 137.924 70.1865C137.681 70.228 137.438 70.2695 137.188 70.3123C137.16 70.5459 137.132 70.7795 137.103 71.0202C135.215 86.4259 130.801 102.016 119.857 113.525C119.051 114.365 119.051 114.365 118.336 115.283C117.352 116.478 116.187 117.449 115 118.437C114.805 118.6 114.609 118.763 114.408 118.931C107.874 124.275 100.17 128.505 91.8453 130.208C90.3138 130.525 88.8973 130.993 87.4417 131.562C80.6792 134.182 73.8291 135.115 66.6018 135.136C66.3595 135.138 66.1173 135.14 65.8677 135.142C65.1755 135.146 64.4839 135.142 63.7917 135.135C63.3918 135.132 62.9918 135.129 62.5797 135.126C61.5078 134.993 61.0708 134.814 60.3127 134.062C60.0674 133.479 60.0674 133.479 59.9807 132.851C59.9269 132.543 59.9269 132.543 59.8721 132.229C60.0835 131.13 60.7138 130.694 61.5627 130C62.6499 129.809 62.6499 129.809 63.8992 129.812C64.1237 129.81 64.3482 129.808 64.5795 129.805C65.0581 129.801 65.5368 129.8 66.0154 129.802C67.2618 129.806 68.5076 129.78 69.7537 129.756C69.9967 129.751 70.2397 129.747 70.4901 129.742C82.0255 129.503 92.6504 124.398 100.938 116.562C101.172 116.345 101.406 116.127 101.647 115.903C116.012 102.116 119.226 79.4025 119.63 60.5588C119.645 59.8313 119.658 59.1038 119.672 58.3763C119.69 57.3674 119.71 56.3586 119.729 55.3498C119.827 50.2332 119.917 45.1166 120 39.9998C119.612 40.0096 119.612 40.0096 119.217 40.0196C118.046 40.0456 116.875 40.0618 115.703 40.0779C115.297 40.0884 114.89 40.0988 114.47 40.1096C114.08 40.1137 113.689 40.1177 113.286 40.1218C112.926 40.1284 112.566 40.1349 112.195 40.1417C111.045 39.9689 110.689 39.6722 110 38.7498C109.493 36.206 110.914 34.358 112.188 32.2459C112.416 31.8584 112.643 31.4707 112.871 31.0827C113.459 30.0803 114.054 29.0818 114.651 28.0843C115.197 27.1698 115.739 26.2526 116.281 25.3355C116.9 24.2885 117.52 23.242 118.142 22.1968C119.602 19.7441 121.038 17.2785 122.461 14.8044C122.655 14.4686 122.848 14.1328 123.048 13.7868C124.115 11.9335 124.115 11.9335 125.179 10.0782C125.613 9.32176 126.048 8.56684 126.485 7.81226C126.669 7.48679 126.669 7.48679 126.858 7.15475C127.871 5.41255 128.556 4.94847 130.584 4.8252Z" fill="#1DE8B5"/>
<path d="M28.001 9.91835C28.3561 9.91655 28.3561 9.91655 28.7183 9.91472C29.5102 9.9115 30.302 9.91274 31.0938 9.91398C31.6622 9.91263 32.2305 9.91101 32.7988 9.90914C34.342 9.90496 35.8851 9.90478 37.4283 9.90557C38.7174 9.9059 40.0065 9.90438 41.2956 9.90288C44.3379 9.89941 47.3801 9.89928 50.4224 9.90117C53.5582 9.90305 56.6939 9.89921 59.8296 9.89255C62.5237 9.88704 65.2177 9.88517 67.9118 9.88619C69.5199 9.88675 71.1281 9.88594 72.7363 9.88159C74.2496 9.87765 75.7629 9.87827 77.2763 9.88234C77.8304 9.88308 78.3846 9.88223 78.9387 9.87965C84.9688 9.85356 84.9688 9.85356 87.2721 11.4195C89.9459 14.2693 90.0004 15.6883 90.0004 19.9998C82.8848 19.9998 75.7691 19.9998 68.4379 19.9998C69.0566 19.2264 69.0566 19.2264 69.6879 18.4373C69.843 17.145 69.7947 16.7225 69.0629 15.6248C67.8986 15.2367 66.8135 15.2612 65.6004 15.257C65.3432 15.2549 65.086 15.2529 64.821 15.2508C63.9698 15.2446 63.1185 15.241 62.2672 15.2379C61.9766 15.2366 61.686 15.2353 61.3865 15.234C59.8492 15.2275 58.3119 15.223 56.7746 15.2201C55.1853 15.2166 53.5962 15.2059 52.0069 15.1935C50.7858 15.1853 49.5647 15.1827 48.3436 15.1816C47.7576 15.18 47.1716 15.1764 46.5857 15.1706C45.7664 15.163 44.9475 15.1633 44.1283 15.1654C43.8859 15.1614 43.6434 15.1574 43.3937 15.1533C42.2969 15.1639 41.6791 15.2259 40.7873 15.8891C40.1349 16.8149 40.1315 17.3265 40.3129 18.4373C40.7254 18.9529 41.1379 19.4686 41.5629 19.9998C36.0973 19.9998 30.6316 19.9998 25.0004 19.9998C25.0004 59.5998 25.0004 99.1998 25.0004 140C33.766 140 42.5316 140 51.5629 140C51.1504 140.515 50.7379 141.031 50.3129 141.562C50.1354 142.65 50.1487 143.179 50.7426 144.112C52.0322 145.016 53.3097 144.844 54.8441 144.805C55.2895 144.804 55.2895 144.804 55.7438 144.803C57.6498 144.799 57.6498 144.799 59.3754 144.062C59.8212 143.171 59.7849 142.552 59.6879 141.562C59.2754 141.047 58.8629 140.531 58.4379 140C69.3691 140 80.3004 140 91.5629 140C91.1504 140.515 90.7379 141.031 90.3129 141.562C90.0895 142.377 90.0895 142.377 90.0199 143.222C89.6764 145.442 88.8205 146.805 87.2465 148.379C85.3517 149.679 83.5597 150.141 81.2599 150.121C81.0222 150.123 80.7845 150.124 80.5395 150.126C79.7498 150.131 78.9603 150.128 78.1706 150.126C77.6016 150.128 77.0326 150.13 76.4637 150.133C74.9231 150.138 73.3826 150.138 71.8421 150.136C70.5545 150.135 69.2669 150.137 67.9793 150.139C64.9413 150.143 61.9034 150.143 58.8654 150.139C55.7341 150.136 52.6028 150.14 49.4715 150.148C46.7798 150.155 44.0882 150.157 41.3965 150.156C39.7902 150.155 38.184 150.155 36.5778 150.161C35.0675 150.165 33.5573 150.164 32.047 150.158C31.4937 150.157 30.9405 150.158 30.3872 150.161C24.7774 150.192 24.7774 150.192 22.3563 148.078C22.159 147.849 21.9616 147.619 21.7582 147.383C21.556 147.155 21.3538 146.927 21.1454 146.692C20.0847 145.153 19.9221 143.669 19.92 141.833C19.9189 141.614 19.9178 141.396 19.9167 141.171C19.9138 140.44 19.9153 139.709 19.9168 138.978C19.9156 138.448 19.9142 137.918 19.9125 137.389C19.9087 135.934 19.9088 134.478 19.9095 133.023C19.9096 131.453 19.9062 129.884 19.9032 128.314C19.898 125.239 19.8963 122.164 19.896 119.089C19.8957 116.59 19.8944 114.091 19.8924 111.592C19.8869 104.508 19.884 97.4248 19.8845 90.3411C19.8845 89.9592 19.8845 89.5773 19.8846 89.1838C19.8846 88.8014 19.8846 88.419 19.8846 88.025C19.8849 81.826 19.8789 75.627 19.8701 69.4281C19.8611 63.0646 19.8568 56.7012 19.8574 50.3377C19.8576 46.7644 19.8558 43.1912 19.8491 39.6179C19.8434 36.576 19.8421 33.534 19.8463 30.492C19.8484 28.9398 19.8484 27.3877 19.843 25.8355C19.8381 24.4144 19.8389 22.9935 19.8444 21.5724C19.8454 21.0585 19.8442 20.5445 19.8407 20.0306C19.8217 17.0104 19.8387 14.7159 21.9328 12.3558C22.2814 12.0597 22.2814 12.0597 22.6371 11.7576C22.8687 11.5554 23.1004 11.3532 23.339 11.1448C24.8393 10.0671 26.1913 9.90862 28.001 9.91835Z" fill="#D5D5FC"/>
<path d="M30.5879 4.83839C31.1801 4.83669 31.7723 4.83447 32.3645 4.83175C33.9645 4.82608 35.5643 4.82825 37.1643 4.83223C38.8435 4.8354 40.5226 4.83245 42.2018 4.83049C45.021 4.82822 47.8401 4.83121 50.6593 4.83717C53.9126 4.84397 57.1658 4.84177 60.4191 4.83489C63.2188 4.8292 66.0185 4.82842 68.8183 4.83168C70.4876 4.83363 72.1568 4.83391 73.8261 4.82976C75.396 4.82614 76.9657 4.82869 78.5355 4.83588C79.1095 4.83753 79.6836 4.83707 80.2576 4.8343C84.6882 4.8149 88.2102 5.23784 91.562 8.43763C94.2476 11.2509 95.1931 14.352 95.1613 18.1849C95.1645 18.681 95.1645 18.681 95.1679 19.1871C95.1733 20.2683 95.1698 21.3493 95.1655 22.4306C95.1664 23.1863 95.1676 23.9421 95.1692 24.6979C95.171 26.2758 95.1683 27.8535 95.1625 29.4314C95.1553 31.455 95.1595 33.4784 95.1669 35.502C95.1715 37.0598 95.17 38.6176 95.1668 40.1754C95.166 40.9219 95.167 41.6684 95.1699 42.4148C95.1731 43.4553 95.1682 44.4955 95.1613 45.5359C95.1638 45.8446 95.1663 46.1532 95.1689 46.4711C95.1432 48.543 95.1432 48.543 94.4328 49.5675C93.4316 50.2014 92.7216 50.1451 91.562 50.0001C90.5667 49.4501 90.3642 49.2192 89.9995 48.1251C89.9709 47.6826 89.9592 47.2389 89.9585 46.7954C89.9566 46.3887 89.9566 46.3887 89.9547 45.9738C89.9549 45.5289 89.9549 45.5289 89.9552 45.075C89.9541 44.7619 89.953 44.4488 89.9519 44.1262C89.9496 43.4453 89.9479 42.7644 89.9468 42.0836C89.9446 41.0051 89.9397 39.9266 89.9339 38.8481C89.9175 35.7813 89.9025 32.7146 89.8977 29.6477C89.8945 27.7723 89.8853 25.8971 89.8723 24.0217C89.8684 23.3077 89.8668 22.5937 89.8675 21.8797C89.8682 20.8788 89.8613 19.8783 89.8526 18.8775C89.8547 18.584 89.8568 18.2906 89.8589 17.9883C89.8275 15.767 89.287 14.1311 87.845 12.4244C87.5483 12.1719 87.5483 12.1719 87.2456 11.9142C87.0502 11.741 86.8549 11.5678 86.6536 11.3893C85.0018 10.3481 83.2026 10.2206 81.2966 10.2291C80.9404 10.2269 80.9404 10.2269 80.5771 10.2248C79.7864 10.2208 78.9958 10.2213 78.2052 10.2218C77.6362 10.22 77.0673 10.2178 76.4984 10.2155C74.9566 10.21 73.4148 10.2085 71.8729 10.2081C70.909 10.2077 69.9451 10.2063 68.9812 10.2047C65.6169 10.1989 62.2525 10.1963 58.8881 10.1968C55.7545 10.1972 52.6209 10.1906 49.4873 10.1807C46.7943 10.1726 44.1013 10.1692 41.4083 10.1696C39.801 10.1698 38.1938 10.168 36.5865 10.1614C35.0749 10.1553 33.5634 10.1553 32.0519 10.1598C31.4981 10.1605 30.9443 10.159 30.3905 10.1552C26.0917 10.0921 26.0917 10.0921 22.4238 12.1766C22.2554 12.3801 22.0871 12.5835 21.9136 12.7931C21.7404 12.9957 21.5671 13.1984 21.3887 13.4071C20.395 14.8493 20.2336 16.0804 20.2316 17.8154C20.2305 18.0332 20.2294 18.251 20.2283 18.4754C20.2254 19.207 20.2269 19.9385 20.2284 20.6701C20.2273 21.1992 20.2258 21.7283 20.2242 22.2575C20.2203 23.7129 20.2204 25.1683 20.2212 26.6237C20.2213 28.1929 20.2178 29.762 20.2149 31.3312C20.2097 34.4061 20.208 37.4809 20.2076 40.5558C20.2073 43.055 20.206 45.5543 20.204 48.0535C20.1985 55.1374 20.1957 62.2214 20.1961 69.3053C20.1962 69.6873 20.1962 70.0693 20.1962 70.4629C20.1962 70.8454 20.1963 71.2279 20.1963 71.622C20.1965 77.8208 20.1906 84.0196 20.1817 90.2184C20.1728 96.5815 20.1684 102.945 20.169 109.308C20.1692 112.881 20.1675 116.454 20.1608 120.027C20.1551 123.069 20.1537 126.112 20.1579 129.154C20.16 130.706 20.16 132.258 20.1546 133.81C20.1497 135.232 20.1506 136.653 20.156 138.075C20.157 138.589 20.1558 139.102 20.1524 139.616C20.1334 142.619 20.1684 145.216 22.176 147.606C22.3795 147.771 22.5829 147.936 22.7925 148.106C22.9951 148.276 23.1977 148.446 23.4065 148.622C24.8935 149.622 26.24 149.779 27.998 149.771C28.2345 149.773 28.471 149.774 28.7147 149.775C29.5058 149.779 30.2969 149.779 31.088 149.778C31.6558 149.78 32.2236 149.782 32.7914 149.785C34.3334 149.79 35.8752 149.792 37.4172 149.792C38.3812 149.793 39.3452 149.794 40.3092 149.796C43.6742 149.801 47.0393 149.804 50.4044 149.803C53.5377 149.803 56.6709 149.81 59.8041 149.82C62.4966 149.828 65.189 149.831 67.8815 149.831C69.4885 149.831 71.0954 149.832 72.7024 149.839C74.215 149.845 75.7274 149.845 77.2401 149.84C77.7936 149.84 78.3471 149.841 78.9006 149.845C83.49 149.95 83.49 149.95 87.4643 147.914C89.1657 146.119 89.7621 144.035 90.0862 141.636C90.3796 140.729 90.7436 140.468 91.562 140C92.7677 139.849 93.445 139.771 94.4331 140.515C95.5146 141.918 95.1846 143.627 94.9995 145.313C94.1813 149.007 91.8953 151.741 88.7495 153.75C85.7688 155.328 82.6848 155.178 79.4111 155.162C78.8189 155.164 78.2267 155.166 77.6345 155.169C76.0345 155.174 74.4347 155.172 72.8347 155.168C71.1555 155.165 69.4764 155.168 67.7972 155.17C64.978 155.172 62.1589 155.169 59.3397 155.163C56.0864 155.156 52.8332 155.158 49.5799 155.165C46.7802 155.171 43.9805 155.172 41.1808 155.169C39.5115 155.167 37.8422 155.166 36.1729 155.171C34.6031 155.174 33.0334 155.172 31.4635 155.164C30.8895 155.163 30.3154 155.163 29.7414 155.166C25.3108 155.185 21.7889 154.762 18.437 151.563C15.1748 148.145 14.8144 144.473 14.8408 139.963C14.8393 139.424 14.8374 138.885 14.8349 138.345C14.8297 136.87 14.8322 135.396 14.8361 133.921C14.8389 132.327 14.8346 130.734 14.8311 129.14C14.8256 126.022 14.8268 122.903 14.8304 119.784C14.8332 117.249 14.8336 114.714 14.8322 112.179C14.8321 111.818 14.8319 111.457 14.8317 111.085C14.8313 110.351 14.8309 109.618 14.8304 108.884C14.8269 102.009 14.831 95.1334 14.8377 88.2579C14.8433 82.361 14.8423 76.4641 14.8366 70.5672C14.8299 63.716 14.8272 56.8649 14.8311 50.0137C14.8315 49.2829 14.8319 48.552 14.8322 47.8212C14.8324 47.4616 14.8326 47.1021 14.8328 46.7316C14.8339 44.2001 14.8321 41.6687 14.8291 39.1372C14.8256 36.0514 14.8266 32.9656 14.8332 29.8798C14.8365 28.3059 14.8378 26.7322 14.8337 25.1583C14.83 23.7164 14.832 22.2747 14.8387 20.8328C14.8401 20.3124 14.8394 19.7919 14.8363 19.2715C14.8134 15.0223 15.3999 11.6191 18.437 8.43763C22.043 4.99526 25.868 4.8156 30.5879 4.83839Z" fill="#455A64"/>
<path d="M64.3346 49.8338C64.6905 49.832 64.6905 49.832 65.0536 49.8302C65.5545 49.8294 66.0555 49.8317 66.5563 49.8369C67.3206 49.8436 68.0839 49.837 68.8481 49.829C69.3358 49.8298 69.8235 49.8314 70.3111 49.8338C70.652 49.83 70.652 49.83 70.9998 49.8262C72.0946 49.8463 72.7754 49.9783 73.7273 50.5328C74.4747 51.3605 74.6088 51.7933 74.7374 52.8893C74.8066 53.3583 74.8066 53.3583 74.8771 53.8368C74.9241 54.1626 74.971 54.4884 75.0194 54.8241C75.395 57.2854 75.395 57.2854 76.8041 59.2247C77.769 59.6 78.6702 59.8188 79.6874 59.9999C80.0418 60.1997 80.3963 60.3995 80.7616 60.6053C81.533 61.0217 81.533 61.0217 82.2496 60.7457C83.611 60.0717 84.8098 59.1681 86.0301 58.2677C87.3818 57.3215 88.2979 56.9166 89.9999 57.1874C91.2972 57.9248 92.3491 58.9852 93.4374 59.9999C93.7232 60.2609 93.7232 60.2609 94.0149 60.5272C94.6235 61.0868 95.2229 61.6548 95.8202 62.2264C96.0127 62.4055 96.2053 62.5846 96.4037 62.7692C97.325 63.6768 97.7704 64.2326 98.1432 65.4979C98.1229 66.6773 97.9257 67.2378 97.3241 68.242C97.0679 68.6844 97.0679 68.6844 96.8065 69.1356C96.2499 69.9999 96.2499 69.9999 95.6737 70.7469C94.6493 72.0008 94.6493 72.0008 94.4334 73.535C94.6722 74.2713 94.9639 74.9342 95.3124 75.6249C96.2499 77.7096 96.2499 77.7096 96.2499 79.0624C96.6108 79.0881 96.9717 79.1139 97.3436 79.1405C98.817 79.3052 100.24 79.6149 101.68 79.9608C101.899 80.0112 102.118 80.0617 102.344 80.1137C104.366 80.6168 104.366 80.6168 105 81.5624C105.101 82.4667 105.146 83.3024 105.146 84.2076C105.149 84.4669 105.151 84.7262 105.154 84.9933C105.157 85.5415 105.158 86.0898 105.156 86.638C105.156 87.4763 105.169 88.3138 105.183 89.1521C105.185 89.6849 105.185 90.2177 105.185 90.7506C105.191 91.0009 105.196 91.2513 105.201 91.5092C105.186 92.7178 105.124 93.3035 104.29 94.2056C103.533 94.633 102.952 94.9053 102.109 95.0829C101.868 95.1352 101.626 95.1876 101.377 95.2416C101.129 95.2907 100.881 95.3398 100.625 95.3905C100.377 95.4445 100.129 95.4984 99.8729 95.5541C98.6488 95.8111 97.5078 96.0084 96.2499 95.9374C96.2192 96.1078 96.1886 96.2782 96.1571 96.4537C95.8344 98.0813 95.3554 99.4323 94.5653 100.893C94.2898 101.861 94.5337 102.235 94.9999 103.125C95.6547 104.187 96.3444 105.226 97.0445 106.259C97.8734 107.534 98.4038 108.428 98.1249 110C97.7562 110.62 97.7562 110.62 97.2264 111.172C97.0266 111.382 96.8268 111.593 96.6209 111.81C96.3954 112.038 96.1698 112.265 95.9374 112.5C95.57 112.885 95.57 112.885 95.1952 113.277C90.9537 117.645 90.9537 117.645 88.9989 117.988C87.0678 117.702 85.7712 116.498 84.2449 115.34C82.8655 114.274 82.8655 114.274 81.2071 114.217C80.9119 114.372 80.6166 114.528 80.3124 114.687C79.9659 114.795 79.6195 114.902 79.2626 115.013C78.9129 115.131 78.5632 115.249 78.203 115.371C77.6737 115.542 77.6737 115.542 77.1336 115.716C76.1619 116.182 76.1619 116.182 75.8507 117.24C75.7762 117.635 75.7016 118.03 75.6249 118.437C75.5333 118.855 75.4401 119.273 75.3453 119.69C75.2008 120.336 75.0575 120.981 74.926 121.629C74.5646 123.198 74.0679 124.003 72.8124 125C71.939 125.153 71.2602 125.213 70.3905 125.196C70.1606 125.197 69.9306 125.198 69.6938 125.199C69.2094 125.198 68.7251 125.194 68.2408 125.186C67.5019 125.176 66.7642 125.18 66.0252 125.186C65.5532 125.184 65.0812 125.181 64.6092 125.177C64.3898 125.178 64.1703 125.18 63.9443 125.182C62.8668 125.156 62.2156 125.017 61.2856 124.459C60.5688 123.69 60.3524 123.242 60.1305 122.225C60.065 121.937 59.9995 121.65 59.9321 121.353C59.8707 121.055 59.8092 120.756 59.7459 120.449C59.6785 120.15 59.611 119.85 59.5415 119.541C59.0624 117.371 59.0624 117.371 59.0624 116.25C58.8658 116.197 58.6692 116.144 58.4667 116.089C56.8558 115.633 55.4543 115.124 54.027 114.242C53.1182 113.965 52.7141 114.254 51.8749 114.687C50.8215 115.342 49.7906 116.03 48.7682 116.732C48.5567 116.87 48.3452 117.008 48.1273 117.151C47.8452 117.341 47.8452 117.341 47.5574 117.535C46.5304 117.952 45.7854 117.947 44.6874 117.812C43.9866 117.308 43.4899 116.881 42.9125 116.262C42.7568 116.104 42.6011 115.946 42.4406 115.783C41.9472 115.28 41.462 114.769 40.9764 114.258C40.6433 113.916 40.3096 113.575 39.9754 113.235C37.2515 110.44 37.2515 110.44 37.0482 109.044C37.2711 107.071 38.4845 105.794 39.6593 104.245C40.1441 103.571 40.5824 102.938 40.9374 102.187C40.821 101.187 40.821 101.187 40.3124 100.312C40.2338 99.9732 40.1553 99.634 40.0743 99.2845C39.7523 98.1243 39.43 97.2481 38.7499 96.2499C37.2262 95.4943 35.7365 95.2442 34.0624 94.9999C31.4377 94.5522 31.4377 94.5522 30.5608 93.7242C29.8667 92.5959 29.819 91.6762 29.8338 90.3905C29.8326 90.1606 29.8314 89.9306 29.8302 89.6938C29.8294 89.2094 29.8317 88.7251 29.8369 88.2408C29.8436 87.502 29.8369 86.7641 29.829 86.0252C29.8298 85.5532 29.8314 85.0812 29.8338 84.6092C29.8313 84.3898 29.8288 84.1703 29.8262 83.9443C29.8467 82.8653 29.9819 82.2173 30.5399 81.2856C31.3098 80.5691 31.7576 80.3524 32.7745 80.1305C33.0623 80.065 33.3502 79.9995 33.6467 79.9321C33.945 79.8707 34.2433 79.8092 34.5506 79.7459C34.8501 79.6785 35.1496 79.611 35.4582 79.5415C37.6287 79.0624 37.6287 79.0624 38.7499 79.0624C38.803 78.8658 38.8562 78.6692 38.911 78.4667C39.3671 76.8558 39.8755 75.4543 40.7579 74.027C41.0345 73.1182 40.7456 72.7141 40.3124 71.8749C39.658 70.8215 38.9693 69.7906 38.2677 68.7682C38.1295 68.5567 37.9913 68.3452 37.849 68.1273C37.6586 67.8452 37.6586 67.8452 37.4643 67.5574C37.047 66.5289 37.0521 65.7875 37.1874 64.6874C37.6931 63.9627 38.1291 63.4376 38.7511 62.8331C38.9124 62.6697 39.0736 62.5064 39.2398 62.338C39.581 61.9953 39.925 61.6553 40.2715 61.318C40.7992 60.802 41.3143 60.2754 41.8291 59.7466C42.1631 59.414 42.4977 59.0822 42.8331 58.7511C42.9859 58.5939 43.1386 58.4367 43.296 58.2747C44.1419 57.4678 44.6385 57.1936 45.8088 57.0433C46.8546 57.1846 47.4131 57.3602 48.286 57.9283C48.5285 58.082 48.771 58.2357 49.0209 58.394C49.2666 58.5566 49.5123 58.7191 49.7655 58.8866C50.2614 59.2059 50.7578 59.5245 51.2547 59.8424C51.4716 59.9848 51.6884 60.1271 51.9118 60.2738C52.533 60.6732 52.533 60.6732 53.4374 60.9374C54.1528 60.651 54.1528 60.651 54.9022 60.2147C56.2874 59.4824 57.5308 59.0618 59.0624 58.7499C59.0966 58.5488 59.1308 58.3478 59.1661 58.1407C59.3318 57.1963 59.5077 56.2543 59.6874 55.3124C59.7895 54.7734 59.7895 54.7734 59.8937 54.2235C59.9674 53.8674 60.0411 53.5113 60.117 53.1444C60.1839 52.8129 60.2508 52.4813 60.3197 52.1397C61.0368 50.0487 62.2874 49.8111 64.3346 49.8338ZM64.9999 54.9999C64.8943 55.4365 64.7888 55.8732 64.68 56.3231C64.5393 56.8977 64.3985 57.4722 64.2577 58.0467C64.1884 58.3344 64.1191 58.622 64.0477 58.9183C63.9792 59.1963 63.9107 59.4742 63.8402 59.7606C63.778 60.0159 63.7158 60.2712 63.6517 60.5342C63.1124 62.3347 63.1124 62.3347 62.1737 62.8514C61.916 62.9417 61.6582 63.0319 61.3927 63.1249C61.1085 63.228 60.8243 63.3311 60.5315 63.4374C60.2336 63.5405 59.9357 63.6436 59.6288 63.7499C57.2756 64.5547 57.2756 64.5547 55.0816 65.703C53.8485 66.3646 53.2559 66.4803 51.8749 66.2499C50.9076 65.748 50.0403 65.132 49.16 64.492C48.6998 64.1579 48.2364 63.8281 47.7696 63.5033C47.5675 63.356 47.3654 63.2087 47.1572 63.057C46.5559 62.7326 46.5559 62.7326 45.9037 63.0437C45.1707 63.5317 44.5963 64.0939 43.9842 64.7264C43.6531 65.066 43.6531 65.066 43.3153 65.4125C43.0663 65.6723 43.0663 65.6723 42.8124 65.9374C43.3612 67.5355 44.3055 68.8427 45.2806 70.2037C46.1746 71.5244 46.4733 72.4242 46.2499 74.0624C45.8263 75.0792 45.8263 75.0792 45.2538 76.1131C44.2289 78.0037 43.5616 79.841 42.9784 81.9176C42.4431 82.9185 42.0086 83.1939 40.9476 83.5673C39.8119 83.8937 38.6734 84.1793 37.5194 84.4334C37.1541 84.5165 37.1541 84.5165 36.7815 84.6013C36.188 84.736 35.594 84.8682 34.9999 84.9999C34.9999 86.6499 34.9999 88.2999 34.9999 89.9999C35.4329 90.1018 35.8659 90.2037 36.3121 90.3087C36.8838 90.4465 37.4555 90.5844 38.0272 90.7225C38.3122 90.7892 38.5972 90.8558 38.8908 90.9245C41.8373 91.6424 41.8373 91.6424 42.8124 92.4999C43.2408 93.485 43.2408 93.485 43.5741 94.6678C44.1499 96.6117 44.8956 98.3246 45.8946 100.099C46.329 101.124 46.4056 101.706 46.2499 102.812C45.8678 103.656 45.3865 104.419 44.8827 105.195C44.626 105.603 44.3696 106.01 44.1136 106.418C43.9991 106.596 43.8845 106.774 43.7665 106.957C43.4154 107.536 43.1151 108.144 42.8124 108.75C43.8436 109.884 44.8749 111.019 45.9374 112.187C47.5355 111.548 48.8188 110.711 50.2037 109.719C51.5243 108.825 52.4244 108.525 54.0624 108.75C55.0902 109.184 55.0902 109.184 56.1327 109.765C57.9307 110.737 59.6816 111.37 61.6734 111.869C62.6879 112.26 62.9431 112.469 63.4374 113.437C63.7169 114.43 63.9124 115.432 64.1014 116.445C64.2057 116.983 64.3106 117.521 64.4164 118.059C64.4835 118.415 64.4835 118.415 64.552 118.779C64.6676 119.397 64.6676 119.397 64.9999 120C66.6499 120 68.2999 120 69.9999 120C70.1352 119.51 70.2706 119.02 70.41 118.515C70.4966 118.204 70.5832 117.894 70.6725 117.573C70.8497 116.897 71.01 116.216 71.1534 115.532C71.2592 115.037 71.2592 115.037 71.367 114.531C71.4275 114.225 71.4879 113.919 71.5501 113.603C71.9819 112.552 72.4149 112.349 73.4374 111.875C74.1287 111.613 74.826 111.367 75.5272 111.133C77.1867 110.561 78.702 109.908 80.2245 109.037C81.1822 108.651 81.7831 108.618 82.8124 108.75C83.6502 109.131 84.4064 109.614 85.1756 110.117C85.579 110.374 85.9831 110.631 86.3878 110.886C86.5641 111.001 86.7403 111.115 86.9219 111.233C87.6407 111.66 87.6407 111.66 89.0624 112.187C90.0936 111.156 91.1249 110.125 92.1874 109.062C91.7722 108.024 91.4689 107.285 90.8861 106.388C90.7612 106.19 90.6363 105.992 90.5077 105.788C90.2471 105.379 89.9842 104.973 89.7191 104.567C88.9364 103.316 88.5036 102.455 88.7499 100.937C89.1844 99.94 89.1844 99.94 89.7655 98.8866C90.7334 97.082 91.3693 95.3217 91.8688 93.3263C92.2599 92.3118 92.4686 92.0566 93.4374 91.5624C94.4298 91.2828 95.4321 91.0873 96.4452 90.8983C96.9832 90.794 97.5212 90.6891 98.0589 90.5834C98.4152 90.5162 98.4152 90.5162 98.7787 90.4477C99.3973 90.3321 99.3973 90.3321 99.9999 89.9999C99.9999 88.3499 99.9999 86.6999 99.9999 84.9999C99.51 84.8645 99.0202 84.7292 98.5155 84.5897C98.2045 84.5027 97.8935 84.4157 97.5731 84.326C96.8977 84.1498 96.2167 83.9936 95.5321 83.8573C95.2018 83.7896 94.8714 83.7219 94.5311 83.6522C94.225 83.5954 93.9188 83.5386 93.6034 83.4801C92.3307 82.9086 92.1296 81.9098 91.6486 80.6637C91.3313 79.8224 91.0297 78.9758 90.7304 78.1279C90.3402 77.0539 89.9277 76.102 89.315 75.1354C88.6495 73.8718 88.515 73.2825 88.7499 71.8749C89.2517 70.9076 89.8678 70.0403 90.5077 69.16C90.8418 68.6998 91.1716 68.2364 91.4964 67.7696C91.6437 67.5675 91.791 67.3654 91.9428 67.1572C92.2671 66.5559 92.2671 66.5559 91.956 65.9037C91.468 65.1707 90.9058 64.5963 90.2733 63.9842C89.9337 63.6531 89.9337 63.6531 89.5873 63.3153C89.414 63.1493 89.2408 62.9834 89.0624 62.8124C87.4135 63.3884 86.0199 64.3305 84.5671 65.2806C83.3155 66.0634 82.4571 66.4838 80.9374 66.2499C80.0987 65.8946 80.0987 65.8946 79.2381 65.41C77.3667 64.411 75.5166 63.8132 73.485 63.2408C72.2844 62.7186 72.0581 62.4516 71.5624 61.2499C71.2401 60.1847 70.9759 59.1106 70.7225 58.0272C70.6522 57.7362 70.5819 57.4451 70.5095 57.1452C70.3373 56.4307 70.1682 55.7153 69.9999 54.9999C68.3499 54.9999 66.6999 54.9999 64.9999 54.9999Z" fill="#465B64"/>
<path d="M130.584 4.8252C131.875 5.16347 132.55 6.15032 133.237 7.22853C133.715 8.05401 134.174 8.88804 134.629 9.72632C136.155 12.4813 137.722 15.2056 139.336 17.9099C141.216 21.066 143.074 24.2338 144.898 27.4225C145.788 28.9772 146.686 30.5243 147.62 32.053C147.782 32.3215 147.944 32.59 148.111 32.8666C148.408 33.358 148.71 33.847 149.017 34.3326C149.947 35.8809 150.26 36.9396 150 38.7498C149.492 39.4399 149.492 39.4399 148.75 39.9998C147.805 40.1417 147.805 40.1417 146.714 40.1218C146.323 40.1178 145.933 40.1138 145.53 40.1096C145.123 40.0991 144.716 40.0887 144.297 40.0779C143.885 40.0722 143.474 40.0666 143.05 40.0608C142.033 40.0461 141.017 40.0255 140 39.9998C140.003 40.2319 140.006 40.464 140.009 40.7032C140.034 42.8918 140.053 45.0804 140.065 47.2691C140.072 48.3943 140.08 49.5194 140.095 50.6446C140.108 51.7307 140.116 52.8166 140.119 53.9027C140.122 54.5183 140.132 55.1339 140.142 55.7494C140.142 56.1247 140.142 56.5 140.142 56.8867C140.145 57.217 140.148 57.5473 140.151 57.8876C139.961 58.9748 139.622 59.3411 138.75 59.9998C137.577 60.1464 136.863 60.1658 135.821 59.5896C134.828 58.5586 134.954 57.4219 134.94 56.0638C134.936 55.7518 134.936 55.7518 134.932 55.4336C134.924 54.7462 134.919 54.0588 134.915 53.3713C134.913 53.1363 134.911 52.9012 134.91 52.659C134.901 51.4151 134.895 50.1713 134.891 48.9274C134.887 47.8985 134.878 46.8699 134.865 45.8411C134.85 44.5979 134.842 43.3549 134.84 42.1117C134.838 41.6385 134.833 41.1653 134.825 40.6921C134.816 40.0292 134.816 39.367 134.818 38.7041C134.815 38.3274 134.813 37.9506 134.81 37.5624C135.055 36.2745 135.557 35.8124 136.563 34.9998C137.314 34.7937 137.314 34.7937 138.083 34.7788C138.359 34.7697 138.636 34.7607 138.922 34.7513C139.207 34.7495 139.492 34.7477 139.785 34.7458C140.076 34.738 140.367 34.7301 140.667 34.722C141.383 34.7037 142.097 34.6923 142.813 34.6873C140.406 30.4905 137.983 26.3053 135.508 22.1482C133.732 19.164 131.989 16.1658 130.313 13.1248C130.106 13.1248 129.9 13.1248 129.688 13.1248C129.591 13.2983 129.494 13.4718 129.394 13.6507C127.134 17.6924 124.819 21.6983 122.45 25.6774C120.671 28.6665 118.921 31.6717 117.188 34.6873C117.598 34.6989 118.009 34.7106 118.432 34.7227C118.974 34.7432 119.516 34.7639 120.059 34.7849C120.329 34.792 120.599 34.799 120.877 34.8063C122.383 34.8697 123.472 34.9507 124.688 35.9373C125.19 36.9426 125.046 38.039 125.046 39.1434C125.047 39.4109 125.048 39.6783 125.049 39.9539C125.052 40.8448 125.052 41.7358 125.053 42.6267C125.054 43.2509 125.055 43.8752 125.056 44.4994C125.058 45.8151 125.058 47.1307 125.058 48.4464C125.058 49.7811 125.06 51.1157 125.065 52.4503C125.094 61.7306 124.933 70.8188 123.438 79.9998C123.39 80.2984 123.343 80.5971 123.294 80.9048C122.698 84.6146 122.058 88.2817 120.938 91.8748C120.844 92.1776 120.75 92.4805 120.653 92.7926C116.192 107.026 109.19 118.827 96.5627 127.187C96.3065 127.358 96.0503 127.528 95.7864 127.704C93.4697 129.169 90.9792 130.243 88.4377 131.25C88.0833 131.391 88.0833 131.391 87.7216 131.535C80.8909 134.184 73.8063 135.139 66.5237 135.156C66.2834 135.157 66.0432 135.159 65.7957 135.16C65.1128 135.162 64.4306 135.156 63.7478 135.146C63.1598 135.139 63.1598 135.139 62.5599 135.131C61.5029 134.992 61.064 134.802 60.3127 134.062C60.0674 133.479 60.0674 133.479 59.9807 132.851C59.9269 132.543 59.9269 132.543 59.8721 132.229C60.0835 131.13 60.7138 130.694 61.5627 130C62.6499 129.809 62.6499 129.809 63.8992 129.812C64.1237 129.81 64.3482 129.808 64.5795 129.805C65.0581 129.801 65.5368 129.8 66.0154 129.802C67.2618 129.806 68.5076 129.78 69.7537 129.756C69.9967 129.751 70.2397 129.747 70.4901 129.742C82.0255 129.503 92.6504 124.398 100.938 116.562C101.172 116.345 101.406 116.127 101.647 115.903C116.012 102.116 119.226 79.4024 119.63 60.5588C119.645 59.8313 119.658 59.1038 119.672 58.3763C119.69 57.3674 119.71 56.3586 119.729 55.3498C119.827 50.2332 119.917 45.1166 120 39.9998C119.612 40.0096 119.612 40.0096 119.217 40.0196C118.046 40.0456 116.875 40.0618 115.703 40.0779C115.297 40.0884 114.89 40.0988 114.47 40.1096C114.08 40.1136 113.689 40.1177 113.286 40.1218C112.926 40.1284 112.566 40.1349 112.195 40.1417C111.045 39.9689 110.689 39.6722 110 38.7498C109.493 36.206 110.914 34.358 112.188 32.2458C112.416 31.8584 112.643 31.4707 112.871 31.0827C113.459 30.0803 114.054 29.0818 114.651 28.0843C115.197 27.1698 115.739 26.2526 116.281 25.3354C116.9 24.2885 117.52 23.242 118.142 22.1968C119.602 19.744 121.038 17.2785 122.461 14.8044C122.655 14.4686 122.848 14.1328 123.048 13.7868C124.115 11.9335 124.115 11.9335 125.179 10.0782C125.613 9.32176 126.048 8.56684 126.485 7.81226C126.669 7.48679 126.669 7.48679 126.858 7.15475C127.871 5.41255 128.556 4.94847 130.584 4.8252Z" fill="#445A64"/>
<path d="M78.125 73.4375C78.3292 73.5744 78.5335 73.7114 78.7439 73.8525C81.3085 75.8009 83.3294 79.1836 84.375 82.1875C84.4447 82.384 84.5144 82.5806 84.5862 82.7832C85.1357 84.6075 85.2676 86.5536 85 88.4375C84.2969 89.4531 84.2969 89.4531 83.4375 90C83.025 90 82.6125 90 82.1875 90C82.1361 90.3003 82.1361 90.3003 82.0837 90.6066C81.7736 92.2988 81.3673 93.7603 80.625 95.3125C80.8184 95.3962 81.0117 95.48 81.2109 95.5664C81.875 95.9375 81.875 95.9375 82.5 96.875C82.6367 97.7734 82.6367 97.7734 82.5 98.75C81.7216 99.8031 81.2857 100.256 79.9805 100.469C78.9856 100.299 78.5221 100.085 77.8125 99.375C77.8125 99.1687 77.8125 98.9625 77.8125 98.75C77.5789 98.9006 77.3452 99.0513 77.1045 99.2065C76.7967 99.4039 76.489 99.6013 76.1719 99.8046C75.8673 100 75.5628 100.196 75.249 100.398C74.375 100.937 74.375 100.937 73.6572 101.254C72.7614 101.773 72.7687 102.793 72.5 103.75C70.9511 105.299 68.8591 105.095 66.8047 105.099C62.5441 105.026 58.3977 103.232 55.2832 100.322C51.4747 96.264 49.773 91.5207 49.9024 86.0388C50.1253 81.8197 52.239 77.5663 55.3125 74.6875C62.1875 68.9386 70.671 68.3248 78.125 73.4375Z" fill="#C4C4FB"/>
<path d="M20.0001 140C30.4157 140 40.8313 140 51.5626 140C51.1501 140.516 50.7376 141.031 50.3126 141.562C50.1351 142.65 50.1484 143.18 50.7423 144.113C52.0319 145.016 53.3094 144.844 54.8438 144.805C55.2892 144.804 55.2892 144.804 55.7435 144.803C57.6495 144.799 57.6495 144.799 59.3751 144.062C59.8209 143.171 59.7846 142.552 59.6876 141.562C59.2751 141.047 58.8626 140.531 58.4376 140C69.3688 140 80.3001 140 91.5626 140C91.1501 140.516 90.7376 141.031 90.3126 141.562C90.0892 142.377 90.0892 142.377 90.0196 143.223C89.6761 145.442 88.8202 146.805 87.2462 148.379C85.3514 149.679 83.5594 150.141 81.2596 150.121C81.0219 150.123 80.7842 150.125 80.5392 150.126C79.7495 150.131 78.96 150.128 78.1702 150.126C77.6013 150.128 77.0323 150.13 76.4634 150.133C74.9228 150.138 73.3823 150.138 71.8418 150.136C70.5542 150.135 69.2666 150.137 67.979 150.139C64.941 150.143 61.9031 150.143 58.8651 150.139C55.7338 150.136 52.6025 150.14 49.4712 150.149C46.7795 150.156 44.0879 150.158 41.3962 150.156C39.7899 150.155 38.1837 150.155 36.5775 150.161C35.0672 150.166 33.557 150.164 32.0467 150.159C31.4934 150.157 30.9402 150.158 30.3869 150.162C24.7771 150.192 24.7771 150.192 22.356 148.079C22.1587 147.849 21.9613 147.619 21.7579 147.383C21.5557 147.155 21.3535 146.927 21.1451 146.692C19.6243 144.486 20.0001 142.751 20.0001 140Z" fill="#EBEEF0"/>
<path d="M28.0006 9.91835C28.3557 9.91655 28.3557 9.91655 28.7179 9.91472C29.5098 9.9115 30.3016 9.91274 31.0934 9.91398C31.6618 9.91263 32.2301 9.91101 32.7984 9.90914C34.3416 9.90496 35.8847 9.90478 37.4279 9.90557C38.717 9.9059 40.0061 9.90438 41.2952 9.90288C44.3375 9.89941 47.3798 9.89928 50.4221 9.90117C53.5578 9.90305 56.6935 9.89921 59.8292 9.89255C62.5233 9.88704 65.2173 9.88517 67.9114 9.88619C69.5196 9.88675 71.1277 9.88594 72.7359 9.88159C74.2492 9.87765 75.7625 9.87827 77.2759 9.88234C77.83 9.88308 78.3842 9.88223 78.9383 9.87965C84.9684 9.85356 84.9684 9.85356 87.2717 11.4195C89.9455 14.2693 90 15.6883 90 19.9998C82.8844 19.9998 75.7687 19.9998 68.4375 19.9998C69.0563 19.2264 69.0563 19.2264 69.6875 18.4373C69.8426 17.145 69.7943 16.7225 69.0625 15.6248C67.8982 15.2367 66.8131 15.2612 65.6001 15.257C65.3428 15.2549 65.0856 15.2529 64.8206 15.2508C63.9694 15.2446 63.1181 15.241 62.2668 15.2379C61.9762 15.2366 61.6856 15.2353 61.3861 15.234C59.8488 15.2275 58.3115 15.223 56.7742 15.2201C55.1849 15.2166 53.5958 15.2059 52.0065 15.1935C50.7854 15.1853 49.5643 15.1827 48.3432 15.1816C47.7572 15.18 47.1712 15.1764 46.5853 15.1706C45.766 15.163 44.9471 15.1633 44.1279 15.1654C43.8855 15.1614 43.6431 15.1574 43.3933 15.1533C42.2965 15.1639 41.6787 15.2259 40.7869 15.8891C40.1345 16.8149 40.1311 17.3265 40.3125 18.4373C40.725 18.9529 41.1375 19.4686 41.5625 19.9998C34.4469 19.9998 27.3312 19.9998 20 19.9998C20 14.4308 20 14.4308 21.9043 12.4412C23.8662 10.6101 25.2946 9.9038 28.0006 9.91835Z" fill="#FEFEFE"/>
<path d="M78.1254 73.4374C78.3296 73.5743 78.5338 73.7113 78.7443 73.8524C81.3088 75.8008 83.3298 79.1835 84.3754 82.1874C84.4451 82.384 84.5147 82.5805 84.5866 82.7831C85.1368 84.6096 85.2629 86.5508 85.0004 88.4374C84.3363 89.453 84.3363 89.453 83.4379 89.9999C82.3891 90.1711 81.8324 90.147 80.8988 89.6373C80.1009 88.8544 80.1175 88.3095 80.0199 87.2069C79.542 83.4748 78.0383 80.1283 75.0785 77.7343C72.0806 75.6144 68.6127 74.8942 65.0004 75.3124C61.3837 76.2835 58.5392 78.3953 56.5629 81.5624C54.899 84.787 54.8521 88.2439 55.9269 91.6783C57.1948 94.8984 59.2803 97.3853 62.4686 98.8195C64.1338 99.4354 65.7305 99.7159 67.5065 99.6691C67.7276 99.6635 67.9488 99.658 68.1766 99.6523C68.616 99.6369 69.0553 99.6138 69.4938 99.5821C70.7196 99.532 71.1931 99.6422 72.1696 100.414C72.8129 101.25 72.8129 101.25 73.0082 102.187C72.747 103.441 72.2412 103.899 71.2504 104.687C67.6224 106.024 63.0272 104.848 59.6989 103.326C55.1604 101.004 52.2371 97.3289 50.6254 92.4999C49.1929 87.7713 49.8951 83.175 52.1293 78.8085C54.6981 74.3993 58.6046 71.9003 63.3402 70.2147C68.5739 69.1146 73.7705 70.4505 78.1254 73.4374Z" fill="#475C65"/>
<path d="M137.5 119.844C137.706 119.841 137.912 119.837 138.125 119.834C139.054 120.081 139.405 120.5 140 121.25C140.159 122.246 140.159 122.246 140.162 123.438C140.164 123.655 140.166 123.873 140.168 124.097C140.174 124.815 140.17 125.532 140.166 126.25C140.167 126.75 140.168 127.249 140.17 127.749C140.171 128.796 140.169 129.842 140.163 130.889C140.156 132.23 140.16 133.57 140.167 134.911C140.172 135.943 140.171 136.974 140.167 138.006C140.166 138.5 140.167 138.995 140.17 139.489C140.174 140.18 140.169 140.871 140.162 141.562C140.161 141.956 140.16 142.349 140.159 142.754C140 143.75 140 143.75 139.53 144.502C138.418 145.212 137.382 145.175 136.104 145.162C135.837 145.164 135.571 145.166 135.296 145.168C134.416 145.174 133.536 145.17 132.656 145.166C132.044 145.167 131.433 145.168 130.821 145.17C129.539 145.171 128.257 145.169 126.975 145.163C125.331 145.156 123.688 145.16 122.045 145.167C120.781 145.172 119.518 145.171 118.255 145.167C117.649 145.166 117.043 145.167 116.437 145.17C115.59 145.174 114.743 145.169 113.896 145.162C113.52 145.166 113.52 145.166 113.137 145.169C112.012 145.152 111.377 145.097 110.47 144.404C109.961 143.695 109.83 143.363 109.844 142.5C109.839 142.191 109.839 142.191 109.834 141.875C110.082 140.941 110.491 140.594 111.25 140C112.069 139.883 112.755 139.841 113.572 139.858C113.804 139.858 114.036 139.858 114.275 139.858C115.039 139.858 115.803 139.868 116.567 139.878C117.098 139.88 117.629 139.882 118.159 139.883C119.555 139.888 120.95 139.9 122.345 139.914C123.77 139.927 125.194 139.933 126.619 139.939C129.413 139.952 132.206 139.974 135 140C134.997 139.768 134.994 139.536 134.992 139.297C134.967 137.108 134.948 134.919 134.935 132.731C134.929 131.605 134.92 130.48 134.906 129.355C134.892 128.269 134.885 127.183 134.881 126.097C134.878 125.481 134.868 124.866 134.858 124.25C134.858 123.687 134.858 123.687 134.858 123.113C134.855 122.783 134.853 122.452 134.85 122.112C135.105 120.646 136.005 119.82 137.5 119.844Z" fill="#455963"/>
<path d="M44.1534 14.8075C44.4102 14.8057 44.667 14.804 44.9316 14.8022C45.7782 14.7985 46.6242 14.8061 47.4707 14.8142C48.0603 14.8147 48.6498 14.8147 49.2394 14.8142C50.4741 14.8147 51.7086 14.8205 52.9433 14.8304C54.5248 14.8428 56.1061 14.8441 57.6877 14.8418C58.9048 14.8408 60.1219 14.8446 61.339 14.85C61.9221 14.8521 62.5052 14.8531 63.0883 14.8529C63.9037 14.8534 64.7187 14.8601 65.5341 14.8685C65.7744 14.8676 66.0147 14.8667 66.2623 14.8657C67.6622 14.888 68.5755 15.0676 69.6875 15.9372C70.1264 16.8151 70.0778 17.4648 70 18.4372C69.4438 19.4172 69.2115 19.6376 68.125 19.9997C67.2825 20.0362 66.4478 20.0554 65.605 20.06C65.3483 20.0626 65.0916 20.0651 64.8271 20.0678C63.9774 20.0755 63.1276 20.0807 62.2778 20.0852C61.9876 20.0869 61.6973 20.0885 61.3983 20.0902C59.8627 20.0986 58.327 20.1046 56.7914 20.1091C55.52 20.1133 54.2489 20.122 52.9776 20.1348C51.4427 20.1502 49.9078 20.1579 48.3728 20.1602C47.788 20.1623 47.2031 20.167 46.6183 20.1745C45.7998 20.1844 44.9819 20.1844 44.1634 20.1821C43.9221 20.1872 43.6808 20.1923 43.4322 20.1976C42.1843 20.1832 41.6232 20.0475 40.6309 19.2657C40 18.4372 40 18.4372 39.8047 17.4997C40.2968 15.1377 42.0126 14.7706 44.1534 14.8075Z" fill="#465A64"/>
<path d="M89.375 14.6873C90 15.6248 90 15.6248 90 19.9998C82.8844 19.9998 75.7687 19.9998 68.4375 19.9998C68.85 19.4842 69.2625 18.9686 69.6875 18.4373C69.8426 17.145 69.7943 16.7225 69.0625 15.6248C68.7531 15.4186 68.4437 15.2123 68.125 14.9998C70.8848 14.9373 73.6446 14.8799 76.4046 14.829C77.6861 14.8052 78.9675 14.7796 80.2489 14.7501C81.4848 14.7217 82.7207 14.6978 83.9568 14.6772C84.4291 14.6685 84.9013 14.6581 85.3735 14.6461C86.0335 14.6295 86.6933 14.6188 87.3534 14.6096C87.9175 14.5981 87.9175 14.5981 88.4931 14.5864C88.7841 14.6197 89.0752 14.653 89.375 14.6873Z" fill="#EBEEF0"/>
<path d="M31.7053 14.9387C31.9875 14.9396 32.2697 14.9405 32.5604 14.9414C33.4583 14.9449 34.3561 14.9528 35.2539 14.9607C35.8641 14.9639 36.4742 14.9667 37.0844 14.9693C38.5771 14.9761 40.0698 14.9869 41.5625 14.9998C41.3595 15.2383 41.1564 15.4767 40.9473 15.7224C40.2458 16.5156 40.2458 16.5156 40.1562 17.4998C40.2684 18.6425 40.2684 18.6425 41.5625 19.9998C36.0969 19.9998 30.6313 19.9998 25 19.9998C25.3541 17.5208 25.3541 17.5208 26.1719 16.6209C26.325 16.4448 26.478 16.2688 26.6357 16.0874C28.1618 14.8078 29.8177 14.9164 31.7053 14.9387Z" fill="#EBEEF0"/>
<path d="M137.5 104.844C137.706 104.841 137.912 104.837 138.125 104.834C139.037 105.076 139.404 105.528 140 106.25C140.162 107.061 140.162 107.061 140.166 107.969C140.168 108.297 140.169 108.626 140.171 108.965C140.166 109.306 140.161 109.648 140.156 110C140.161 110.342 140.166 110.683 140.171 111.035C140.169 111.364 140.168 111.693 140.166 112.031C140.165 112.331 140.163 112.631 140.162 112.939C139.956 113.973 139.559 114.347 138.75 115C138.125 115.166 138.125 115.166 137.5 115.156C137.191 115.161 137.191 115.161 136.875 115.166C135.963 114.924 135.596 114.472 135 113.75C134.838 112.939 134.838 112.939 134.834 112.031C134.832 111.703 134.831 111.374 134.829 111.035C134.834 110.694 134.839 110.352 134.844 110C134.839 109.658 134.834 109.317 134.829 108.965C134.832 108.472 134.832 108.472 134.834 107.969C134.835 107.669 134.837 107.369 134.838 107.061C135.124 105.629 136.039 104.821 137.5 104.844Z" fill="#455963"/>
<path d="M54.8438 139.844C55.1366 139.843 55.4295 139.842 55.7312 139.841C57.2826 139.863 58.4467 139.9 59.6875 140.938C60.1264 141.815 60.0778 142.465 60 143.438C59.4438 144.418 59.2115 144.638 58.125 145C57.0459 145.095 55.9656 145.101 54.8828 145.117C54.5871 145.129 54.2915 145.141 53.9868 145.153C52.5097 145.171 51.7991 145.177 50.5859 144.27C50 143.438 50 143.438 49.8047 142.5C50.3783 139.747 52.5066 139.773 54.8438 139.844Z" fill="#485C66"/>
<path d="M20.0001 140C21.6501 140 23.3001 140 25.0001 140C25.0001 143.094 25.0001 146.188 25.0001 149.375C23.1447 148.911 21.9061 147.812 20.8107 146.248C19.7603 144.214 19.9055 142.248 20.0001 140Z" fill="#FDFDFD"/>
<path d="M138.75 95C139.532 95.4687 139.532 95.4687 140 96.25C140.248 97.5065 140.195 98.4263 139.532 99.5312C138.431 100.192 137.503 100.255 136.25 100C135.39 99.4046 135.088 98.9732 134.707 98.0078C134.681 96.8965 135.051 96.2492 135.625 95.3125C136.628 94.8112 137.663 94.8516 138.75 95Z" fill="#445863"/>
<path d="M138.75 85C139.532 85.4687 139.532 85.4687 140 86.25C140.248 87.5065 140.195 88.4263 139.532 89.5312C138.431 90.1916 137.503 90.2546 136.25 90C135.39 89.4046 135.088 88.9732 134.707 88.0078C134.681 86.8965 135.051 86.2492 135.625 85.3125C136.628 84.8112 137.663 84.8516 138.75 85Z" fill="#445863"/>
<path d="M138.75 65.0002C139.511 65.4689 139.511 65.4689 140 66.2502C140.251 67.5144 140.199 68.431 139.511 69.5314C138.461 70.1778 137.775 70.1517 136.562 70.0002C135.82 69.6877 135.82 69.6877 135.312 69.0627C135.011 68.2079 134.9 67.4654 135 66.5627C136.028 65.0203 136.936 64.7034 138.75 65.0002Z" fill="#445C65"/>
<path d="M80.1758 95.293C81.3361 95.6516 81.8224 95.8722 82.5 96.875C82.6758 97.793 82.6758 97.793 82.5 98.75C81.7325 99.7884 81.2732 100.243 80 100.508C78.7268 100.243 78.2675 99.7884 77.5 98.75C77.3047 97.8125 77.3047 97.8125 77.5 96.875C78.3354 95.6853 78.7022 95.3188 80.1758 95.293Z" fill="#4A5F66"/>
<path d="M92.5 129.062C92.8094 129.166 93.1188 129.269 93.4375 129.375C93.3344 129.581 93.2313 129.787 93.125 130C92.2973 130.185 91.4713 130.232 90.625 130.312C91.2387 129.842 91.8071 129.409 92.5 129.062Z" fill="#2ED4B3"/>
</svg>
