<svg width="50" height="50" viewBox="0 0 50 50" fill="none" xmlns="http://www.w3.org/2000/svg">
<g clip-path="url(#clip0_794_2)">
<path d="M25.9857 3.38843C26.0961 3.42463 26.2066 3.46084 26.3203 3.49813C26.4372 3.5378 26.554 3.57747 26.6743 3.61834C26.7961 3.65883 26.9178 3.69932 27.0433 3.74103C27.2997 3.82641 27.5558 3.9126 27.8117 3.9994C28.1394 4.11049 28.4677 4.21972 28.7962 4.32839C29.1105 4.43261 29.4244 4.53821 29.7383 4.64373C29.8561 4.6828 29.9739 4.72188 30.0952 4.76213C30.2041 4.79926 30.313 4.83639 30.4252 4.87464C30.5211 4.90695 30.617 4.93926 30.7158 4.97255C30.9662 5.08223 31.0937 5.14801 31.25 5.37119C31.2823 5.56455 31.3145 5.75791 31.3477 5.95713C31.8633 6.11826 32.3789 6.27939 32.9102 6.44541C32.9424 6.34873 32.9746 6.25205 33.0078 6.15244C33.5122 5.90025 34.0735 6.08815 34.5783 6.25477C34.6436 6.27605 34.709 6.29733 34.7763 6.31926C34.9903 6.38926 35.2038 6.46075 35.4172 6.53239C35.5666 6.58186 35.716 6.63128 35.8654 6.68065C36.1775 6.78407 36.4894 6.88826 36.8011 6.99296C37.2005 7.12701 37.6005 7.25891 38.0007 7.39023C38.309 7.49168 38.6168 7.59435 38.9246 7.69739C39.0719 7.74654 39.2194 7.79529 39.3671 7.84361C39.5732 7.91127 39.7787 7.98058 39.9841 8.05035C40.1011 8.08938 40.2181 8.12842 40.3386 8.16863C40.6572 8.31572 40.7723 8.37346 40.918 8.6915C40.9581 8.99659 40.955 9.29811 40.9513 9.60541C40.9513 9.69786 40.9513 9.79031 40.9514 9.88556C40.9512 10.191 40.9489 10.4964 40.9466 10.8018C40.9461 11.0136 40.9457 11.2254 40.9454 11.4373C40.9442 11.9947 40.9414 12.5521 40.9381 13.1095C40.9351 13.6783 40.9338 14.2472 40.9323 14.816C40.9292 15.9321 40.924 17.0481 40.918 18.1642C42.0459 18.1642 43.1739 18.1642 44.336 18.1642C44.4004 18.003 44.4649 17.8419 44.5313 17.6759C44.629 17.5295 44.7316 17.3863 44.8384 17.2463C44.9253 17.1278 44.9253 17.1278 45.014 17.0068C45.136 16.8421 45.2597 16.6785 45.3848 16.5162C45.5502 16.2875 45.6922 16.0811 45.8008 15.8204C45.7146 15.4435 45.7146 15.4435 45.5078 15.1368C45.3383 14.4565 45.3919 13.7921 45.715 13.1673C46.0796 12.6167 46.5379 12.3015 47.168 12.1095C47.8969 12.0033 48.5149 12.0677 49.1211 12.5001C49.6227 12.9219 49.9572 13.3388 50.0412 13.9924C50.075 14.8696 49.9441 15.3516 49.358 15.9871C48.8598 16.4644 48.2969 16.674 47.6136 16.7237C47.3633 16.6993 47.3633 16.6993 47.168 16.6017C47.1434 16.6704 47.1189 16.7391 47.0936 16.8099C46.9586 17.1225 46.7916 17.3828 46.6008 17.6648C46.5649 17.7179 46.529 17.7709 46.492 17.8255C46.4165 17.9369 46.3407 18.0481 46.2648 18.1591C46.1487 18.329 46.0338 18.4995 45.9189 18.6702C45.8451 18.7786 45.7713 18.887 45.6974 18.9954C45.6307 19.0935 45.5639 19.1917 45.4951 19.2928C45.3125 19.5313 45.3125 19.5313 45.0196 19.7267C44.8286 19.7501 44.8286 19.7501 44.6098 19.7488C44.5266 19.7488 44.4433 19.7488 44.3576 19.7488C44.2705 19.7478 44.1834 19.7468 44.0937 19.7457C44.0134 19.7455 43.9331 19.7453 43.8503 19.7451C43.5504 19.7441 43.2504 19.7414 42.9505 19.7389C42.2798 19.7348 41.609 19.7308 40.918 19.7267C40.918 21.2091 40.918 22.6915 40.918 24.2188C42.4649 24.2188 44.0118 24.2188 45.6055 24.2188C45.67 24.0255 45.7344 23.8321 45.8008 23.6329C46.2697 23.0889 46.7653 22.7096 47.4877 22.6327C48.1043 22.6004 48.6033 22.7027 49.1211 23.047C49.6221 23.505 49.9582 23.9483 50.0363 24.6358C50.0502 25.3805 50.0296 25.9055 49.5118 26.4649C48.9905 27.0056 48.5257 27.2477 47.7661 27.2767C47.1489 27.2619 46.6905 27.1265 46.2159 26.7274C45.9961 26.4649 45.9961 26.4649 45.8549 26.1605C45.5727 25.842 45.5248 25.8346 45.1219 25.8035C44.9215 25.7995 44.721 25.7987 44.5206 25.8004C44.4149 25.7991 44.3093 25.7977 44.2004 25.7964C43.8631 25.7927 43.5259 25.7931 43.1885 25.7936C42.9598 25.7918 42.731 25.7898 42.5022 25.7875C41.9416 25.7824 41.381 25.7806 40.8203 25.7813C40.8217 25.8768 40.8217 25.8768 40.823 25.9742C40.8267 26.4403 40.8193 26.8881 40.7452 27.3496C40.7207 27.5028 40.7207 27.5028 40.6958 27.6591C40.6785 27.7625 40.6612 27.866 40.6433 27.9725C40.6272 28.0755 40.611 28.1786 40.5943 28.2847C40.4838 28.9622 40.3224 29.613 40.1368 30.2735C40.1958 30.2731 40.2549 30.2727 40.3158 30.2722C40.9304 30.2679 41.5451 30.265 42.1597 30.2628C42.3892 30.2618 42.6186 30.2605 42.848 30.2588C43.1777 30.2564 43.5073 30.2553 43.837 30.2545C43.9397 30.2535 44.0423 30.2524 44.1481 30.2514C44.2439 30.2514 44.3396 30.2514 44.4383 30.2514C44.5224 30.2509 44.6066 30.2505 44.6933 30.25C44.9465 30.2761 45.0982 30.333 45.3125 30.4688C45.4722 30.6697 45.6154 30.8662 45.7566 31.0792C45.7972 31.1392 45.8378 31.1991 45.8797 31.2609C45.9651 31.3873 46.0501 31.5141 46.1347 31.6411C46.2646 31.836 46.396 32.0298 46.5275 32.2236C46.6104 32.3466 46.6932 32.4697 46.7759 32.5929C46.8152 32.6511 46.8546 32.7093 46.8951 32.7692C47.168 33.1806 47.168 33.1806 47.168 33.3985C47.2424 33.3929 47.3168 33.3872 47.3935 33.3814C48.1308 33.3491 48.6327 33.4237 49.2188 33.8868C49.6702 34.313 49.9634 34.7258 50.0328 35.3566C50.0422 36.1359 49.9959 36.7001 49.4484 37.28C48.8131 37.8585 48.2561 37.9359 47.4072 37.9209C46.7856 37.8653 46.3957 37.6376 45.9656 37.1949C45.554 36.6686 45.3684 36.0543 45.4224 35.3883C45.4514 35.1657 45.4886 34.9935 45.6038 34.7995C45.7219 34.5806 45.7815 34.4292 45.8008 34.1798C45.6215 33.7672 45.3581 33.4257 45.0867 33.0689C44.9464 32.8772 44.8064 32.6852 44.6667 32.4929C44.5719 32.3669 44.5719 32.3669 44.4751 32.2383C44.336 32.0313 44.336 32.0313 44.336 31.836C42.7891 31.836 41.2422 31.836 39.6485 31.836C39.5035 32.3194 39.5035 32.3194 39.3555 32.8126C39.2465 33.0875 39.1355 33.3555 39.0137 33.6244C38.9802 33.6986 38.9467 33.7728 38.9121 33.8493C37.6214 36.6639 35.9236 39.073 33.7891 41.3087C33.6964 41.4074 33.6964 41.4074 33.6018 41.5082C33.2016 41.9236 32.7615 42.2841 32.312 42.645C32.1313 42.7906 31.9521 42.9382 31.7749 43.0882C30.1571 44.4533 27.0368 46.854 24.8277 46.8058C24.4044 46.7508 24.0313 46.5736 23.6451 46.399C23.5557 46.3596 23.4664 46.3201 23.3744 46.2794C19.9617 44.742 16.7493 42.3221 14.4532 39.3556C14.3551 39.2332 14.2569 39.1109 14.1587 38.9886C12.7508 37.2159 11.6825 35.2623 10.7972 33.1849C10.7637 33.1065 10.7302 33.0282 10.6958 32.9474C10.6495 32.8363 10.6495 32.8363 10.6022 32.723C10.575 32.6577 10.5477 32.5925 10.5197 32.5253C10.4493 32.3243 10.4493 32.3243 10.3516 31.836C8.80472 31.836 7.25785 31.836 5.6641 31.836C5.59964 31.9972 5.53519 32.1583 5.46878 32.3243C5.37018 32.4642 5.26636 32.6005 5.15827 32.7333C4.4623 33.5514 4.4623 33.5514 4.20955 34.5426C4.3229 34.8584 4.3229 34.8584 4.46895 35.1571C4.67822 35.6628 4.57193 36.1172 4.39457 36.6212C4.06274 37.2431 3.60188 37.6667 2.92972 37.8907C2.15746 37.9506 1.41301 38.0025 0.781284 37.5001C0.321863 37.0654 0.0332404 36.6514 -0.032772 36.0089C-0.0471731 34.7028 -0.0471731 34.7028 0.390659 34.1798C0.861556 33.7494 1.35717 33.3988 2.00199 33.3314C2.11226 33.3187 2.11226 33.3187 2.22477 33.3058C2.4465 33.3008 2.62064 33.3346 2.83207 33.3985C2.85757 33.3284 2.88308 33.2582 2.90936 33.1859C3.03203 32.8994 3.17785 32.6638 3.35315 32.4063C3.41685 32.3127 3.48055 32.2191 3.54618 32.1227C3.61264 32.0261 3.67911 31.9295 3.74759 31.8299C3.84616 31.6844 3.84616 31.6844 3.94672 31.536C4.67129 30.477 4.67129 30.477 5.07816 30.2735C5.23176 30.2647 5.38574 30.2621 5.53959 30.2624C5.63538 30.2625 5.73117 30.2625 5.82986 30.2625C5.93352 30.263 6.03718 30.2635 6.14399 30.264C6.30289 30.2642 6.30289 30.2642 6.465 30.2644C6.80432 30.265 7.14363 30.2662 7.48294 30.2674C7.71259 30.2679 7.94223 30.2684 8.17188 30.2688C8.73569 30.2698 9.2995 30.2715 9.86332 30.2735C9.8371 30.1719 9.81088 30.0702 9.78387 29.9654C9.59635 29.2315 9.41547 28.5024 9.30179 27.7528C9.28958 27.6803 9.27737 27.6079 9.26479 27.5332C9.19947 27.1159 9.17396 26.7127 9.17658 26.29C9.17703 26.1944 9.17748 26.0988 9.17795 26.0003C9.17854 25.928 9.17912 25.8558 9.17972 25.7813C8.50712 25.7755 7.83472 25.7757 7.16211 25.7802C6.93335 25.7809 6.70459 25.7804 6.47584 25.7783C6.14677 25.7757 5.81806 25.778 5.489 25.7813C5.33578 25.7785 5.33578 25.7785 5.17946 25.7756C4.64877 25.7738 4.64877 25.7738 4.22556 26.0531C4.09216 26.2602 4.09216 26.2602 3.99462 26.4752C3.87964 26.716 3.74013 26.8183 3.50956 26.9471C3.4142 27.0028 3.4142 27.0028 3.31691 27.0597C2.71238 27.3397 1.97961 27.3428 1.34891 27.1424C0.695163 26.8619 0.26666 26.3303 3.44177e-05 25.6837C-0.0832877 25.0463 -0.13348 24.3448 0.20145 23.7733C0.610118 23.2434 1.08631 22.788 1.75785 22.6563C2.4487 22.5806 3.02731 22.657 3.61332 23.047C4.00725 23.4076 4.26374 23.6955 4.39457 24.2188C5.94144 24.2188 7.48832 24.2188 9.08207 24.2188C9.08207 22.7364 9.08207 21.254 9.08207 19.7267C7.75418 19.746 7.75418 19.746 6.42639 19.7706C6.2594 19.7721 6.0924 19.7733 5.9254 19.7743C5.83934 19.7768 5.75328 19.7793 5.66461 19.7819C5.24389 19.7822 5.04581 19.7764 4.70298 19.5155C4.48944 19.2347 4.27982 18.9552 4.08138 18.6635C4.02714 18.584 4.02714 18.584 3.97181 18.5028C3.89631 18.3918 3.82107 18.2806 3.74609 18.1692C3.63092 17.9983 3.5147 17.8282 3.39836 17.6581C3.32486 17.5498 3.25143 17.4414 3.17806 17.3329C3.11161 17.2348 3.04517 17.1366 2.97671 17.0355C2.83207 16.797 2.83207 16.797 2.83207 16.6017C2.76761 16.6339 2.70316 16.6661 2.63675 16.6993C1.97587 16.7845 1.4474 16.6493 0.878941 16.3087C0.420773 15.9202 0.0302218 15.4425 -0.0301017 14.8316C-0.0581256 13.9892 -0.00832559 13.3448 0.585972 12.6954C1.19235 12.2032 1.74475 12.0673 2.51888 12.0767C3.1837 12.1463 3.71429 12.441 4.15043 12.9457C4.50962 13.4855 4.63587 14.1403 4.56394 14.7824C4.49828 15.0625 4.40516 15.3122 4.27044 15.5661C4.1689 15.8242 4.1689 15.8242 4.31155 16.07C4.37394 16.1562 4.43633 16.2424 4.50061 16.3312C4.60069 16.4729 4.60069 16.4729 4.70279 16.6175C4.7743 16.715 4.8458 16.8125 4.91947 16.9129C5.05893 17.1074 5.19806 17.302 5.3368 17.497C5.39941 17.5828 5.46202 17.6687 5.52653 17.7572C5.6641 17.9688 5.6641 17.9688 5.6641 18.1642C6.79203 18.1642 7.91996 18.1642 9.08207 18.1642C9.08053 17.8793 9.079 17.5943 9.07742 17.3008C9.07257 16.3603 9.06933 15.4197 9.06689 14.4792C9.06536 13.9088 9.06328 13.3385 9.05996 12.7681C9.05679 12.2179 9.05503 11.6677 9.05427 11.1174C9.05373 10.9073 9.05267 10.6972 9.05109 10.4871C9.04897 10.1932 9.04867 9.89933 9.04881 9.60541C9.04775 9.51824 9.0467 9.43107 9.04561 9.34125C9.04602 9.26101 9.04642 9.18077 9.04684 9.0981C9.04657 9.0286 9.0463 8.95911 9.04602 8.88751C9.09569 8.61742 9.18193 8.49672 9.37503 8.30088C9.64682 8.17351 9.64682 8.17351 9.98336 8.06112C10.0453 8.04005 10.1072 8.01898 10.171 7.99727C10.3784 7.92704 10.5863 7.85872 10.7944 7.79038C10.9433 7.7404 11.0921 7.69031 11.241 7.64011C11.6453 7.50413 12.0502 7.36981 12.4553 7.23585C12.8793 7.09538 13.3029 6.95359 13.7265 6.81201C14.4384 6.57433 15.1506 6.33775 15.863 6.1018C16.6859 5.82926 17.5082 5.55494 18.3302 5.27968C19.1214 5.01476 19.913 4.75117 20.7049 4.48816C21.0415 4.3763 21.378 4.26397 21.7144 4.15126C22.1111 4.01841 22.5081 3.88673 22.9054 3.75593C23.0509 3.70783 23.1963 3.65934 23.3415 3.61042C24.2809 3.29423 25.0121 3.06401 25.9857 3.38843Z" fill="#22D69A"/>
<path d="M26.3626 8.33778C26.5209 8.39041 26.5209 8.39041 26.6824 8.4441C27.03 8.55996 27.3771 8.67727 27.7242 8.79461C27.9657 8.87548 28.2073 8.95625 28.4489 9.03694C28.9546 9.20597 29.46 9.37574 29.9652 9.54604C30.678 9.78633 31.3914 10.0253 32.1048 10.264C33.1123 10.6012 34.1196 10.939 35.1265 11.2781C35.2261 11.3116 35.3257 11.345 35.4283 11.3795C35.5188 11.41 35.6093 11.4405 35.7025 11.472C35.7814 11.4986 35.8602 11.5251 35.9415 11.5525C36.1329 11.6209 36.1329 11.6209 36.3282 11.7186C36.3328 13.4869 36.3362 15.2553 36.3383 17.0236C36.3393 17.8448 36.3407 18.666 36.3429 19.4873C36.3449 20.2037 36.3461 20.9202 36.3466 21.6366C36.3468 22.0154 36.3474 22.3941 36.3489 22.7728C36.3502 23.1307 36.3506 23.4885 36.3503 23.8463C36.3504 24.0375 36.3514 24.2287 36.3525 24.4199C36.3471 26.8168 35.8228 29.1214 34.961 31.3475C34.9329 31.4204 34.9049 31.4932 34.8759 31.5683C33.2853 35.6182 30.1607 39.0091 26.4445 41.2049C26.2799 41.3023 26.1168 41.4022 25.9538 41.5022C25.8606 41.5571 25.7674 41.612 25.6715 41.6685C25.5927 41.7152 25.5139 41.7619 25.4327 41.8101C25.0558 41.944 24.781 41.8735 24.4202 41.7119C24.203 41.6014 23.9911 41.4841 23.7794 41.3634C23.7021 41.3197 23.6247 41.276 23.5451 41.231C21.9306 40.3027 20.5511 39.1177 19.2262 37.8172C19.1451 37.7387 19.064 37.6601 18.9804 37.5792C18.5491 37.1491 18.279 36.8089 18.0665 36.2303C17.9686 36.0387 17.8682 35.8483 17.7663 35.6589C17.0498 34.3182 16.3988 32.989 15.918 31.5428C15.8909 31.4617 15.8638 31.3806 15.8358 31.297C15.5432 30.4077 15.3002 29.5121 15.1124 28.5948C15.0976 28.5231 15.0829 28.4514 15.0677 28.3775C14.8173 27.0722 14.7167 25.771 14.724 24.4432C14.7241 24.2987 14.724 24.1541 14.7239 24.0096C14.7239 23.6231 14.725 23.2366 14.7264 22.8501C14.7276 22.444 14.7277 22.0379 14.7279 21.6318C14.7285 20.8654 14.7301 20.099 14.7321 19.3327C14.7343 18.4591 14.7354 17.5854 14.7363 16.7118C14.7384 14.9172 14.7418 13.1226 14.7462 11.328C19.7133 9.62956 19.7133 9.62956 21.518 9.02316C21.7703 8.93817 22.0224 8.85286 22.2744 8.76701C22.6498 8.63913 23.0257 8.51292 23.4017 8.38682C23.5138 8.34839 23.6259 8.30996 23.7414 8.27036C23.8457 8.23567 23.95 8.20098 24.0575 8.16524C24.148 8.13466 24.2385 8.10409 24.3317 8.07259C25.0758 7.89857 25.6619 8.09874 26.3626 8.33778Z" fill="#35F393"/>
<path d="M25.9857 3.38843C26.0961 3.42463 26.2066 3.46084 26.3203 3.49813C26.4372 3.5378 26.554 3.57747 26.6743 3.61834C26.7961 3.65883 26.9178 3.69932 27.0433 3.74103C27.2997 3.82641 27.5558 3.9126 27.8117 3.9994C28.1394 4.11049 28.4677 4.21972 28.7962 4.32839C29.1105 4.43261 29.4244 4.53821 29.7383 4.64373C29.8561 4.6828 29.9739 4.72188 30.0952 4.76213C30.2041 4.79926 30.313 4.83639 30.4252 4.87464C30.5211 4.90695 30.617 4.93926 30.7158 4.97255C31.0499 5.11886 31.2049 5.25995 31.3416 5.59702C31.3504 5.97506 31.1875 6.15573 30.9571 6.44541C30.5564 6.64572 30.1656 6.55206 29.7557 6.42221C29.5947 6.36716 29.434 6.31113 29.2736 6.25429C29.1877 6.22464 29.1017 6.19499 29.0132 6.16444C28.7392 6.06973 28.4657 5.97379 28.1922 5.87778C28.0094 5.81431 27.8266 5.75092 27.6438 5.68762C27.3057 5.57048 26.9677 5.45278 26.6299 5.33464C26.5538 5.30841 26.4777 5.28217 26.3992 5.25514C26.2462 5.20179 26.0938 5.14683 25.942 5.09035C25.8675 5.06348 25.7931 5.0366 25.7164 5.00891C25.6512 4.98468 25.5861 4.96045 25.5189 4.93548C24.9869 4.81169 24.5163 4.88548 24.0058 5.0565C23.8893 5.09498 23.7727 5.13346 23.6527 5.1731C23.5254 5.21628 23.3982 5.25948 23.2709 5.30269C23.1355 5.34784 23 5.3929 22.8646 5.43788C22.4981 5.55983 22.132 5.68305 21.7661 5.80652C21.3828 5.93557 20.9992 6.06348 20.6156 6.19152C19.9721 6.40652 19.3287 6.62226 18.6856 6.83854C17.7779 7.14378 16.8697 7.44768 15.9615 7.75131C15.2566 7.98701 14.5518 8.22306 13.847 8.45919C13.7713 8.48455 13.6956 8.5099 13.6176 8.53603C13.1832 8.6816 12.7488 8.82734 12.3146 8.97334C12.1829 9.0176 12.0511 9.06181 11.9194 9.10597C11.74 9.1661 11.5608 9.22642 11.3815 9.28676C11.2308 9.3374 11.2308 9.3374 11.077 9.38906C10.8431 9.46612 10.8431 9.46612 10.6446 9.57041C10.6377 11.5926 10.6325 13.6149 10.6294 15.6371C10.6279 16.5763 10.6258 17.5155 10.6225 18.4547C10.6195 19.2745 10.6176 20.0943 10.617 20.914C10.6166 21.347 10.6158 21.78 10.6136 22.2131C10.5804 29.1341 12.5876 35.3468 17.4927 40.3688C17.9821 40.8471 18.5073 41.2743 19.043 41.6993C19.1586 41.7954 19.1586 41.7954 19.2765 41.8935C20.5882 42.9772 23.3143 45.2291 25.0843 45.0963C25.4363 45.0082 25.7618 44.8854 26.0926 44.7389C26.1933 44.6942 26.1933 44.6942 26.2961 44.6487C30.3295 42.8092 33.7696 39.6324 36.0352 35.8399C36.0927 35.7448 36.0927 35.7448 36.1513 35.6477C36.8983 34.3998 37.4567 33.0899 37.9883 31.7384C38.0289 31.638 38.0289 31.638 38.0703 31.5355C39.0922 29.0043 39.3736 26.1448 39.3666 23.4396C39.3666 23.2874 39.3666 23.1352 39.3666 22.983C39.3667 22.5739 39.3661 22.1648 39.3654 21.7557C39.3648 21.3266 39.3647 20.8976 39.3646 20.4685C39.3643 19.6579 39.3635 18.8472 39.3625 18.0366C39.3614 17.1129 39.3609 16.1892 39.3604 15.2655C39.3594 13.3672 39.3577 11.4688 39.3555 9.57041C39.2793 9.5458 39.2031 9.52119 39.1246 9.49584C38.4056 9.26336 37.6871 9.02933 36.9692 8.79354C36.6002 8.67238 36.2309 8.55183 35.8612 8.43265C35.5042 8.31756 35.1478 8.20089 34.7917 8.08313C34.656 8.03853 34.52 7.9945 34.3838 7.95105C34.1928 7.88997 34.0025 7.82689 33.8123 7.76332C33.7038 7.72797 33.5954 7.69262 33.4837 7.6562C33.1556 7.49646 33.0097 7.33586 32.8125 7.03135C32.7541 6.67361 32.7653 6.51723 32.9651 6.21348C33.2908 5.99635 33.4986 6.03128 33.8868 6.05479C34.2228 6.13743 34.2228 6.13743 34.5783 6.25477C34.6436 6.27605 34.709 6.29733 34.7763 6.31926C34.9903 6.38926 35.2038 6.46075 35.4172 6.53239C35.5666 6.58186 35.716 6.63128 35.8654 6.68065C36.1775 6.78407 36.4894 6.88826 36.8011 6.99296C37.2005 7.12701 37.6005 7.25891 38.0007 7.39023C38.309 7.49168 38.6168 7.59435 38.9246 7.69739C39.0719 7.74654 39.2194 7.79529 39.3671 7.84361C39.5732 7.91127 39.7787 7.98058 39.9841 8.05035C40.1011 8.08938 40.2181 8.12842 40.3386 8.16863C40.6572 8.31572 40.7723 8.37346 40.918 8.6915C40.9581 8.99659 40.955 9.29811 40.9513 9.60541C40.9513 9.69786 40.9513 9.79031 40.9514 9.88556C40.9512 10.191 40.9489 10.4964 40.9466 10.8018C40.9461 11.0136 40.9457 11.2254 40.9454 11.4373C40.9442 11.9947 40.9414 12.5521 40.9381 13.1095C40.9351 13.6783 40.9338 14.2472 40.9323 14.816C40.9292 15.9321 40.924 17.0481 40.918 18.1642C42.0459 18.1642 43.1739 18.1642 44.336 18.1642C44.4004 18.003 44.4649 17.8419 44.5313 17.6759C44.629 17.5295 44.7316 17.3863 44.8384 17.2463C44.9253 17.1278 44.9253 17.1278 45.014 17.0068C45.136 16.8421 45.2597 16.6785 45.3848 16.5162C45.5502 16.2875 45.6922 16.0811 45.8008 15.8204C45.7146 15.4435 45.7146 15.4435 45.5078 15.1368C45.3383 14.4565 45.3919 13.7921 45.715 13.1673C46.0796 12.6167 46.5379 12.3015 47.168 12.1095C47.8969 12.0033 48.5149 12.0677 49.1211 12.5001C49.6227 12.9219 49.9572 13.3388 50.0412 13.9924C50.075 14.8696 49.9441 15.3516 49.358 15.9871C48.8598 16.4644 48.2969 16.674 47.6136 16.7237C47.3633 16.6993 47.3633 16.6993 47.168 16.6017C47.1434 16.6704 47.1189 16.7391 47.0936 16.8099C46.9586 17.1225 46.7916 17.3828 46.6008 17.6648C46.5649 17.7179 46.529 17.7709 46.492 17.8255C46.4165 17.9369 46.3407 18.0481 46.2648 18.1591C46.1487 18.329 46.0338 18.4995 45.9189 18.6702C45.8451 18.7786 45.7713 18.887 45.6974 18.9954C45.6307 19.0935 45.5639 19.1917 45.4951 19.2928C45.3125 19.5313 45.3125 19.5313 45.0196 19.7267C44.8286 19.7501 44.8286 19.7501 44.6098 19.7488C44.5266 19.7488 44.4433 19.7488 44.3576 19.7488C44.2705 19.7478 44.1834 19.7468 44.0937 19.7457C44.0134 19.7455 43.9331 19.7453 43.8503 19.7451C43.5504 19.7441 43.2504 19.7414 42.9505 19.7389C42.2798 19.7348 41.609 19.7308 40.918 19.7267C40.918 21.2091 40.918 22.6915 40.918 24.2188C42.4649 24.2188 44.0118 24.2188 45.6055 24.2188C45.67 24.0255 45.7344 23.8321 45.8008 23.6329C46.2697 23.0889 46.7653 22.7096 47.4877 22.6327C48.1043 22.6004 48.6033 22.7027 49.1211 23.047C49.6221 23.505 49.9582 23.9483 50.0363 24.6358C50.0502 25.3805 50.0296 25.9055 49.5118 26.4649C48.9905 27.0056 48.5257 27.2477 47.7661 27.2767C47.1489 27.2619 46.6905 27.1265 46.2159 26.7274C45.9961 26.4649 45.9961 26.4649 45.8549 26.1605C45.5727 25.842 45.5248 25.8346 45.1219 25.8035C44.9215 25.7995 44.721 25.7987 44.5206 25.8004C44.4149 25.7991 44.3093 25.7977 44.2004 25.7964C43.8631 25.7927 43.5259 25.7931 43.1885 25.7936C42.9598 25.7918 42.731 25.7898 42.5022 25.7875C41.9416 25.7824 41.381 25.7806 40.8203 25.7813C40.8217 25.8768 40.8217 25.8768 40.823 25.9742C40.8267 26.4403 40.8193 26.8881 40.7452 27.3496C40.7207 27.5028 40.7207 27.5028 40.6958 27.6591C40.6785 27.7625 40.6612 27.866 40.6433 27.9725C40.6272 28.0755 40.611 28.1786 40.5943 28.2847C40.4838 28.9622 40.3224 29.613 40.1368 30.2735C40.1958 30.2731 40.2549 30.2727 40.3158 30.2722C40.9304 30.2679 41.5451 30.265 42.1597 30.2628C42.3892 30.2618 42.6186 30.2605 42.848 30.2588C43.1777 30.2564 43.5073 30.2553 43.837 30.2545C43.9397 30.2535 44.0423 30.2524 44.1481 30.2514C44.2439 30.2514 44.3396 30.2514 44.4383 30.2514C44.5224 30.2509 44.6066 30.2505 44.6933 30.25C44.9465 30.2761 45.0982 30.333 45.3125 30.4688C45.4722 30.6697 45.6154 30.8662 45.7566 31.0792C45.7972 31.1392 45.8378 31.1991 45.8797 31.2609C45.9651 31.3873 46.0501 31.5141 46.1347 31.6411C46.2646 31.836 46.396 32.0298 46.5275 32.2236C46.6104 32.3466 46.6932 32.4697 46.7759 32.5929C46.8152 32.6511 46.8546 32.7093 46.8951 32.7692C47.168 33.1806 47.168 33.1806 47.168 33.3985C47.2424 33.3929 47.3168 33.3872 47.3935 33.3814C48.1308 33.3491 48.6327 33.4237 49.2188 33.8868C49.6702 34.313 49.9634 34.7258 50.0328 35.3566C50.0422 36.1359 49.9959 36.7001 49.4484 37.28C48.8131 37.8585 48.2561 37.9359 47.4072 37.9209C46.7856 37.8653 46.3957 37.6376 45.9656 37.1949C45.554 36.6686 45.3684 36.0543 45.4224 35.3883C45.4514 35.1657 45.4886 34.9935 45.6038 34.7995C45.7219 34.5806 45.7815 34.4292 45.8008 34.1798C45.6215 33.7672 45.3581 33.4257 45.0867 33.0689C44.9464 32.8772 44.8064 32.6852 44.6667 32.4929C44.5719 32.3669 44.5719 32.3669 44.4751 32.2383C44.336 32.0313 44.336 32.0313 44.336 31.836C42.7891 31.836 41.2422 31.836 39.6485 31.836C39.5035 32.3194 39.5035 32.3194 39.3555 32.8126C39.2465 33.0875 39.1355 33.3555 39.0137 33.6244C38.9802 33.6986 38.9467 33.7728 38.9121 33.8493C37.6214 36.6639 35.9236 39.073 33.7891 41.3087C33.6964 41.4074 33.6964 41.4074 33.6018 41.5082C33.2016 41.9236 32.7615 42.2841 32.312 42.645C32.1313 42.7906 31.9521 42.9382 31.7749 43.0882C30.1571 44.4533 27.0368 46.854 24.8277 46.8058C24.4044 46.7508 24.0313 46.5736 23.6451 46.399C23.5557 46.3596 23.4664 46.3201 23.3744 46.2794C19.9617 44.742 16.7493 42.3221 14.4532 39.3556C14.3551 39.2332 14.2569 39.1109 14.1587 38.9886C12.7508 37.2159 11.6825 35.2623 10.7972 33.1849C10.7637 33.1065 10.7302 33.0282 10.6958 32.9474C10.6495 32.8363 10.6495 32.8363 10.6022 32.723C10.575 32.6577 10.5477 32.5925 10.5197 32.5253C10.4493 32.3243 10.4493 32.3243 10.3516 31.836C8.80472 31.836 7.25785 31.836 5.6641 31.836C5.59964 31.9972 5.53519 32.1583 5.46878 32.3243C5.37018 32.4642 5.26636 32.6005 5.15827 32.7333C4.4623 33.5514 4.4623 33.5514 4.20955 34.5426C4.3229 34.8584 4.3229 34.8584 4.46895 35.1571C4.67822 35.6628 4.57193 36.1172 4.39457 36.6212C4.06274 37.2431 3.60188 37.6667 2.92972 37.8907C2.15746 37.9506 1.41301 38.0025 0.781284 37.5001C0.321863 37.0654 0.0332404 36.6514 -0.032772 36.0089C-0.0471731 34.7028 -0.0471731 34.7028 0.390659 34.1798C0.861556 33.7494 1.35717 33.3988 2.00199 33.3314C2.11226 33.3187 2.11226 33.3187 2.22477 33.3058C2.4465 33.3008 2.62064 33.3346 2.83207 33.3985C2.85757 33.3284 2.88308 33.2582 2.90936 33.1859C3.03203 32.8994 3.17785 32.6638 3.35315 32.4063C3.41685 32.3127 3.48055 32.2191 3.54618 32.1227C3.61264 32.0261 3.67911 31.9295 3.74759 31.8299C3.84616 31.6844 3.84616 31.6844 3.94672 31.536C4.67129 30.477 4.67129 30.477 5.07816 30.2735C5.23176 30.2647 5.38574 30.2621 5.53959 30.2624C5.63538 30.2625 5.73117 30.2625 5.82986 30.2625C5.93352 30.263 6.03718 30.2635 6.14399 30.264C6.30289 30.2642 6.30289 30.2642 6.465 30.2644C6.80432 30.265 7.14363 30.2662 7.48294 30.2674C7.71259 30.2679 7.94223 30.2684 8.17188 30.2688C8.73569 30.2698 9.2995 30.2715 9.86332 30.2735C9.8371 30.1719 9.81088 30.0702 9.78387 29.9654C9.59635 29.2315 9.41547 28.5024 9.30179 27.7528C9.28958 27.6803 9.27737 27.6079 9.26479 27.5332C9.19947 27.1159 9.17396 26.7127 9.17658 26.29C9.17703 26.1944 9.17748 26.0988 9.17795 26.0003C9.17854 25.928 9.17912 25.8558 9.17972 25.7813C8.50712 25.7755 7.83472 25.7757 7.16211 25.7802C6.93335 25.7809 6.70459 25.7804 6.47584 25.7783C6.14677 25.7757 5.81806 25.778 5.489 25.7813C5.33578 25.7785 5.33578 25.7785 5.17946 25.7756C4.64877 25.7738 4.64877 25.7738 4.22556 26.0531C4.09216 26.2602 4.09216 26.2602 3.99462 26.4752C3.87964 26.716 3.74013 26.8183 3.50956 26.9471C3.4142 27.0028 3.4142 27.0028 3.31691 27.0597C2.71238 27.3397 1.97961 27.3428 1.34891 27.1424C0.695163 26.8619 0.26666 26.3303 3.44177e-05 25.6837C-0.0832877 25.0463 -0.13348 24.3448 0.20145 23.7733C0.610118 23.2434 1.08631 22.788 1.75785 22.6563C2.4487 22.5806 3.02731 22.657 3.61332 23.047C4.00725 23.4076 4.26374 23.6955 4.39457 24.2188C5.94144 24.2188 7.48832 24.2188 9.08207 24.2188C9.08207 22.7364 9.08207 21.254 9.08207 19.7267C7.75418 19.746 7.75418 19.746 6.42639 19.7706C6.2594 19.7721 6.0924 19.7733 5.9254 19.7743C5.83934 19.7768 5.75328 19.7793 5.66461 19.7819C5.24389 19.7822 5.04581 19.7764 4.70298 19.5155C4.48944 19.2347 4.27982 18.9552 4.08138 18.6635C4.02714 18.584 4.02714 18.584 3.97181 18.5028C3.89631 18.3918 3.82107 18.2806 3.74609 18.1692C3.63092 17.9983 3.5147 17.8282 3.39836 17.6581C3.32486 17.5498 3.25143 17.4414 3.17806 17.3329C3.11161 17.2348 3.04517 17.1366 2.97671 17.0355C2.83207 16.797 2.83207 16.797 2.83207 16.6017C2.76761 16.6339 2.70316 16.6661 2.63675 16.6993C1.97587 16.7845 1.4474 16.6493 0.878941 16.3087C0.420773 15.9202 0.0302218 15.4425 -0.0301017 14.8316C-0.0581256 13.9892 -0.00832559 13.3448 0.585972 12.6954C1.19235 12.2032 1.74475 12.0673 2.51888 12.0767C3.1837 12.1463 3.71429 12.441 4.15043 12.9457C4.50962 13.4855 4.63587 14.1403 4.56394 14.7824C4.49828 15.0625 4.40516 15.3122 4.27044 15.5661C4.1689 15.8242 4.1689 15.8242 4.31155 16.07C4.37394 16.1562 4.43633 16.2424 4.50061 16.3312C4.60069 16.4729 4.60069 16.4729 4.70279 16.6175C4.7743 16.715 4.8458 16.8125 4.91947 16.9129C5.05893 17.1074 5.19806 17.302 5.3368 17.497C5.39941 17.5828 5.46202 17.6687 5.52653 17.7572C5.6641 17.9688 5.6641 17.9688 5.6641 18.1642C6.79203 18.1642 7.91996 18.1642 9.08207 18.1642C9.08053 17.8793 9.079 17.5943 9.07742 17.3008C9.07257 16.3603 9.06933 15.4197 9.06689 14.4792C9.06536 13.9088 9.06328 13.3385 9.05996 12.7681C9.05679 12.2179 9.05503 11.6677 9.05427 11.1174C9.05373 10.9073 9.05267 10.6972 9.05109 10.4871C9.04897 10.1932 9.04867 9.89933 9.04881 9.60541C9.04775 9.51824 9.0467 9.43107 9.04561 9.34125C9.04602 9.26101 9.04642 9.18077 9.04684 9.0981C9.04657 9.0286 9.0463 8.95911 9.04602 8.88751C9.09569 8.61742 9.18193 8.49672 9.37503 8.30088C9.64682 8.17351 9.64682 8.17351 9.98336 8.06112C10.0453 8.04005 10.1072 8.01898 10.171 7.99727C10.3784 7.92704 10.5863 7.85872 10.7944 7.79038C10.9433 7.7404 11.0921 7.69031 11.241 7.64011C11.6453 7.50413 12.0502 7.36981 12.4553 7.23585C12.8793 7.09538 13.3029 6.95359 13.7265 6.81201C14.4384 6.57433 15.1506 6.33775 15.863 6.1018C16.6859 5.82926 17.5082 5.55494 18.3302 5.27968C19.1214 5.01476 19.913 4.75117 20.7049 4.48816C21.0415 4.3763 21.378 4.26397 21.7144 4.15126C22.1111 4.01841 22.5081 3.88673 22.9054 3.75593C23.0509 3.70783 23.1963 3.65934 23.3415 3.61042C24.2809 3.29423 25.0121 3.06401 25.9857 3.38843Z" fill="black"/>
<path d="M28.0789 13.1071C29.1692 13.8925 29.9463 15.0256 30.2322 16.3461C30.3058 16.8007 30.2973 17.2531 30.2926 17.7126C30.2923 17.8154 30.2921 17.9182 30.2918 18.0241C30.2907 18.3494 30.2882 18.6747 30.2857 19C30.2848 19.2218 30.2839 19.4437 30.2831 19.6655C30.2809 20.2066 30.2777 20.7477 30.2735 21.2888C30.3548 21.2858 30.3548 21.2858 30.4377 21.2826C30.684 21.2745 30.9304 21.2694 31.1769 21.2644C31.2621 21.2612 31.3473 21.2579 31.4351 21.2545C31.5588 21.2526 31.5588 21.2526 31.685 21.2507C31.7985 21.2476 31.7985 21.2476 31.9143 21.2445C32.129 21.2888 32.129 21.2888 32.3489 21.4197C32.6233 21.8372 32.5739 22.2597 32.5702 22.7485C32.5709 22.8575 32.5715 22.9665 32.5722 23.0787C32.574 23.4394 32.5728 23.7999 32.5715 24.1605C32.5718 24.4108 32.5722 24.6611 32.5726 24.9114C32.5732 25.4362 32.5724 25.9609 32.5706 26.4856C32.5684 27.0921 32.5691 27.6985 32.5713 28.3049C32.5733 28.8886 32.573 29.4723 32.5719 30.056C32.5716 30.3042 32.572 30.5525 32.5729 30.8007C32.5739 31.1475 32.5724 31.4941 32.5702 31.8409C32.571 31.9439 32.5718 32.0469 32.5726 32.153C32.5646 32.8383 32.5646 32.8383 32.3572 33.1689C32.0704 33.3344 31.8839 33.3501 31.553 33.3511C31.379 33.3529 31.379 33.3529 31.2014 33.3548C31.014 33.3536 31.014 33.3536 30.8229 33.3524C30.6943 33.3528 30.5657 33.3532 30.4332 33.3536C30.1613 33.3541 29.8895 33.3533 29.6176 33.3515C29.2695 33.3493 28.9215 33.3505 28.5734 33.3529C28.2408 33.3546 27.9083 33.3534 27.5758 33.3524C27.4509 33.3532 27.3259 33.354 27.1972 33.3548C27.0812 33.3536 26.9652 33.3524 26.8456 33.3511C26.6926 33.3506 26.6926 33.3506 26.5364 33.3502C26.2012 33.2878 26.0827 33.1791 25.879 32.9099C25.879 32.8133 25.879 32.7166 25.879 32.617C25.2989 32.617 24.7188 32.617 24.1212 32.617C24.089 32.7781 24.0567 32.9392 24.0235 33.1052C23.6856 33.3305 23.5538 33.3261 23.1551 33.3289C23.0368 33.3302 22.9185 33.3314 22.7966 33.3327C22.6688 33.3329 22.5409 33.3331 22.4092 33.3334C22.2767 33.334 22.1443 33.3346 22.0118 33.3353C21.7344 33.3365 21.4569 33.3369 21.1794 33.3367C20.8238 33.3367 20.4682 33.3394 20.1125 33.3428C19.8391 33.3449 19.5656 33.3453 19.2922 33.3452C19.0973 33.3456 18.9024 33.3477 18.7075 33.3498C18.5892 33.3492 18.4709 33.3486 18.349 33.348C18.2447 33.3483 18.1404 33.3486 18.0329 33.3488C17.7735 33.3006 17.7735 33.3006 17.6132 33.1319C17.4597 32.875 17.4436 32.7321 17.4427 32.4349C17.4417 32.3394 17.4408 32.244 17.4398 32.1457C17.4402 32.0416 17.4407 31.9376 17.4411 31.8303C17.4404 31.7203 17.4398 31.6102 17.4391 31.4968C17.4373 31.1325 17.4377 30.7683 17.4382 30.4041C17.4378 30.1513 17.4373 29.8986 17.4367 29.6459C17.4358 29.1161 17.436 28.5864 17.437 28.0567C17.4381 27.4441 17.4368 26.8316 17.4341 26.2191C17.4317 25.6298 17.4315 25.0405 17.4321 24.4511C17.4321 24.2003 17.4315 23.9496 17.4303 23.6988C17.4289 23.3487 17.4299 22.9988 17.4316 22.6488C17.4306 22.5445 17.4297 22.4402 17.4287 22.3328C17.4297 22.2377 17.4306 22.1425 17.4316 22.0445C17.4316 21.9617 17.4317 21.8789 17.4317 21.7937C17.4806 21.5818 17.4806 21.5818 17.6655 21.4085C17.9045 21.2695 18.0407 21.2547 18.3152 21.2602C18.3977 21.2612 18.4801 21.2621 18.5651 21.2631C18.6503 21.2655 18.7355 21.268 18.8233 21.2705C18.9534 21.2725 18.9534 21.2725 19.0862 21.2745C19.2997 21.278 19.5132 21.2828 19.7267 21.2888C19.7258 21.2303 19.7249 21.1717 19.724 21.1114C19.7153 20.4966 19.7095 19.8819 19.7052 19.267C19.7032 19.0382 19.7006 18.8094 19.6972 18.5806C19.6924 18.2499 19.6902 17.9193 19.6885 17.5886C19.6865 17.4878 19.6845 17.3871 19.6824 17.2833C19.6821 16.3366 19.9194 15.4516 20.453 14.6604C20.5072 14.5781 20.5615 14.4958 20.6174 14.4109C22.4013 11.9706 25.5696 11.4418 28.0789 13.1071Z" fill="#040401"/>
<path d="M26.6748 6.91675C26.7916 6.95535 26.9084 6.99394 27.0288 7.03371C27.3472 7.13896 27.6652 7.24513 27.9832 7.35153C28.2491 7.4404 28.5152 7.52881 28.7813 7.61722C29.4087 7.82572 30.0359 8.03497 30.6629 8.2447C31.3096 8.46096 31.9565 8.67605 32.6037 8.89055C33.1602 9.07502 33.7165 9.26018 34.2725 9.4459C34.6043 9.5567 34.9362 9.66726 35.2682 9.77718C35.638 9.89959 36.0072 10.0234 36.3764 10.1474C36.4864 10.1837 36.5964 10.2199 36.7098 10.2572C36.8102 10.2912 36.9105 10.3251 37.0139 10.3601C37.1012 10.3892 37.1885 10.4184 37.2784 10.4484C37.5186 10.555 37.6431 10.6234 37.7928 10.8396C37.8297 11.0994 37.8297 11.0994 37.83 11.4189C37.8309 11.54 37.8317 11.6611 37.8325 11.7859C37.832 11.9204 37.8314 12.0549 37.8307 12.1894C37.8311 12.3309 37.8317 12.4724 37.8323 12.6139C37.8336 12.9992 37.8331 13.3845 37.8322 13.7698C37.8314 14.175 37.8321 14.5801 37.8326 14.9853C37.8331 15.6679 37.8324 16.3506 37.831 17.0332C37.8294 17.8165 37.8299 18.5998 37.8316 19.3831C37.8329 20.0587 37.8331 20.7343 37.8323 21.4099C37.8319 21.812 37.8318 22.214 37.8328 22.616C37.8377 24.94 37.7949 27.25 37.1092 29.492C37.0808 29.5865 37.0524 29.6809 37.0231 29.7783C36.0339 33.0198 34.5251 35.8659 32.2249 38.3619C32.0544 38.5485 31.8926 38.7391 31.732 38.9341C31.41 39.3113 31.0423 39.622 30.6639 39.9412C30.5724 40.0218 30.4809 40.1023 30.3866 40.1853C29.126 41.2887 27.7511 42.19 26.2694 42.9685C26.1662 43.0234 26.0629 43.0783 25.9566 43.1349C25.4138 43.4048 25.1202 43.5076 24.5116 43.3592C24.1692 43.2136 23.8437 43.0419 23.5167 42.8648C23.4256 42.8161 23.3344 42.7674 23.2405 42.7172C18.2712 40.0282 14.6094 35.3359 12.9561 29.9555C12.3209 27.7735 12.1409 25.5448 12.156 23.2813C12.1581 22.8987 12.156 22.5162 12.1535 22.1336C12.1537 21.8888 12.1542 21.6439 12.155 21.3991C12.1542 21.2855 12.1534 21.1719 12.1526 21.0548C12.1539 20.95 12.1551 20.8451 12.1564 20.7371C12.1567 20.6453 12.157 20.5535 12.1573 20.4589C12.222 20.1402 12.3454 20.0233 12.5975 19.824C12.8844 19.7691 12.8844 19.7691 13.1835 19.824C13.4747 20.0252 13.647 20.1847 13.716 20.5406C13.733 20.8313 13.7342 21.1186 13.7305 21.4098C13.7313 21.5184 13.7321 21.6271 13.7329 21.739C13.7351 22.0874 13.7342 22.4358 13.7328 22.7842C13.7265 28.3774 15.2149 33.47 19.1405 37.5975C19.1914 37.6516 19.2424 37.7057 19.2948 37.7614C20.6143 39.1551 22.0616 40.2677 23.7303 41.2107C23.8324 41.2725 23.9345 41.3344 24.0397 41.398C24.133 41.453 24.2263 41.5081 24.3224 41.5647C24.4021 41.6123 24.4817 41.6599 24.5638 41.7089C24.9566 41.8521 25.2284 41.7743 25.6025 41.6006C25.8552 41.4687 26.1022 41.3295 26.3487 41.1863C26.439 41.1342 26.5292 41.0821 26.6222 41.0284C27.9654 40.2358 29.1535 39.2644 30.2733 38.1834C30.3692 38.0937 30.465 38.0041 30.5609 37.9145C32.8468 35.7434 34.3063 32.9165 35.3514 29.9803C35.3917 29.8679 35.432 29.7554 35.4735 29.6396C35.6869 28.9969 35.8258 28.3429 35.9557 27.6792C35.972 27.5962 35.9883 27.5131 36.0052 27.4275C36.2107 26.3204 36.2453 25.2147 36.2504 24.091C36.2513 23.9552 36.2523 23.8194 36.2533 23.6835C36.2559 23.3186 36.258 22.9537 36.26 22.5888C36.2621 22.206 36.2648 21.8232 36.2674 21.4404C36.2722 20.7173 36.2766 19.9941 36.2809 19.271C36.2857 18.447 36.2911 17.623 36.2965 16.7989C36.3075 15.1055 36.318 13.412 36.328 11.7185C36.2623 11.7013 36.1967 11.6841 36.1291 11.6663C35.4871 11.495 34.8572 11.3014 34.2283 11.0875C34.1321 11.0551 34.0359 11.0227 33.9367 10.9893C33.7299 10.9195 33.5231 10.8497 33.3164 10.7797C32.9889 10.6689 32.6612 10.5587 32.3335 10.4486C31.4024 10.1358 30.4715 9.82253 29.5412 9.50777C28.9703 9.31469 28.3992 9.12261 27.8278 8.93118C27.6108 8.85824 27.3938 8.78492 27.177 8.71122C26.8742 8.60834 26.5711 8.50674 26.2678 8.40541C26.1788 8.37483 26.0898 8.34424 25.9981 8.31272C25.1281 8.02501 24.5162 8.1023 23.6627 8.3949C23.5702 8.4257 23.4777 8.45651 23.3824 8.48825C23.0775 8.59003 22.7732 8.69325 22.4688 8.79649C22.2559 8.8679 22.0429 8.93921 21.8299 9.01044C21.2693 9.19819 20.709 9.38716 20.1489 9.5764C19.582 9.76768 19.0148 9.95782 18.4476 10.148C17.5239 10.4579 16.6005 10.7687 15.6773 11.08C15.0418 11.2943 14.4059 11.5074 13.7694 11.7185C13.7692 11.827 13.7692 11.827 13.769 11.9377C13.7672 12.6202 13.7632 13.3027 13.7565 13.9852C13.7532 14.336 13.7507 14.6868 13.7503 15.0377C13.7499 15.3765 13.7471 15.7152 13.7427 16.054C13.7408 16.2457 13.7414 16.4375 13.742 16.6292C13.7261 17.5995 13.7261 17.5995 13.442 17.9017C13.1242 18.1039 12.9672 18.137 12.5975 18.0662C12.3074 17.8491 12.2164 17.7331 12.1566 17.3717C12.156 17.2523 12.1554 17.1329 12.1548 17.0099C12.154 16.9438 12.1531 16.8777 12.1523 16.8096C12.15 16.5916 12.1507 16.3738 12.1516 16.1558C12.1511 16.004 12.1505 15.8523 12.1497 15.7005C12.1487 15.3826 12.1492 15.0648 12.1506 14.7469C12.1523 14.3397 12.15 13.9326 12.1466 13.5254C12.1444 13.212 12.1445 12.8987 12.1454 12.5854C12.1454 12.4353 12.1448 12.2851 12.1433 12.135C12.1416 11.925 12.143 11.7153 12.1453 11.5053C12.1454 11.3859 12.1455 11.2665 12.1455 11.1435C12.2069 10.8396 12.2069 10.8396 12.3833 10.6286C12.8468 10.3617 13.3343 10.2032 13.8409 10.0356C13.9568 9.99631 14.0728 9.95704 14.1923 9.91659C14.5094 9.80949 14.8269 9.70334 15.1445 9.59769C15.4101 9.50923 15.6755 9.42016 15.9409 9.33111C16.5673 9.12096 17.1941 8.91192 17.8211 8.70353C18.4668 8.48889 19.1119 8.27233 19.7566 8.05481C20.3113 7.86778 20.8663 7.68201 21.4217 7.49722C21.7529 7.38699 22.084 7.27629 22.4147 7.16435C22.7836 7.03954 23.1534 6.91734 23.5233 6.79537C23.6321 6.7582 23.7408 6.72102 23.8528 6.68272C24.9242 6.33426 25.6363 6.56794 26.6748 6.91675Z" fill="#000302"/>
<path d="M18.9453 22.7539C22.9414 22.7539 26.9375 22.7539 31.0547 22.7539C31.0547 25.751 31.0547 28.748 31.0547 31.8359C28.7354 31.8604 28.7354 31.8604 28.0046 31.865C27.8133 31.8679 27.622 31.8709 27.4307 31.8741C27.2819 31.8742 27.2819 31.8742 27.1301 31.8744C26.5856 31.8772 26.5856 31.8772 26.1115 32.1143C25.9619 32.3281 25.9619 32.3281 25.8789 32.6172C25.2988 32.6172 24.7187 32.6172 24.1211 32.6172C24.0566 32.4561 23.9922 32.2949 23.9258 32.1289C23.6141 31.9211 23.528 31.9081 23.1693 31.9025C23.0741 31.9005 22.979 31.8985 22.881 31.8965C22.7314 31.8949 22.7314 31.8949 22.5788 31.8932C22.441 31.8906 22.441 31.8906 22.3005 31.8879C21.9572 31.8818 21.614 31.8773 21.2708 31.8726C20.5034 31.8605 19.736 31.8484 18.9453 31.8359C18.9453 28.8389 18.9453 25.8418 18.9453 22.7539Z" fill="#FED92C"/>
<path d="M27.1398 5.39226C27.2395 5.42745 27.2395 5.42745 27.3413 5.46334C27.4107 5.48847 27.4801 5.5136 27.5516 5.53949C27.7025 5.59259 27.8533 5.64567 28.0042 5.69875C28.2392 5.78226 28.474 5.86606 28.7088 5.95016C28.9372 6.03174 29.166 6.1122 29.3949 6.19256C29.4644 6.21789 29.534 6.24322 29.6057 6.26931C30.0027 6.40816 30.3412 6.49641 30.7617 6.44548C30.8548 6.36151 30.948 6.27755 31.0439 6.19104C31.3476 5.9572 31.3476 5.9572 31.7184 5.98886C31.8484 6.02912 31.9772 6.07368 32.1044 6.12199C32.1704 6.14533 32.2365 6.16866 32.3045 6.19271C32.5807 6.30262 32.7756 6.38536 32.9337 6.64346C32.9689 6.83626 32.9889 7.03166 33.0078 7.22673C33.3398 7.47555 33.6961 7.60199 34.0878 7.7307C34.2632 7.78885 34.2632 7.78885 34.4422 7.84817C34.5688 7.88949 34.6954 7.93081 34.822 7.97212C34.9525 8.0152 35.0829 8.05833 35.2133 8.10153C35.5554 8.21469 35.8977 8.3272 36.2401 8.43952C36.7894 8.61982 37.3385 8.80094 37.8875 8.98242C38.0794 9.04572 38.2715 9.10862 38.4635 9.17149C38.5792 9.20964 38.695 9.24779 38.8142 9.28709C38.9166 9.32069 39.019 9.35429 39.1245 9.3889C39.3554 9.47282 39.3554 9.47282 39.4531 9.57048C39.4629 9.76463 39.4658 9.95913 39.4661 10.1535C39.4667 10.3438 39.4667 10.3438 39.4674 10.538C39.4673 10.6799 39.4673 10.8219 39.4672 10.9639C39.4675 11.1124 39.4679 11.261 39.4682 11.4095C39.4691 11.8148 39.4693 12.2201 39.4694 12.6253C39.4695 12.8793 39.4697 13.1332 39.4699 13.3872C39.4708 14.2755 39.4712 15.1638 39.4712 16.0521C39.4711 16.8757 39.4721 17.6992 39.4737 18.5228C39.475 19.2321 39.4755 19.9415 39.4754 20.6509C39.4754 21.0734 39.4757 21.496 39.4767 21.9185C39.4869 26.3439 39.4869 26.3439 39.0197 28.3876C38.9998 28.4807 38.9798 28.5738 38.9593 28.6697C38.0811 32.6937 36.241 36.455 33.3984 39.4533C33.2941 39.577 33.1903 39.701 33.0871 39.8256C31.6009 41.5237 29.747 42.784 27.832 43.9455C27.773 43.9821 27.7141 44.0187 27.6534 44.0565C27.5066 44.1475 27.3581 44.2359 27.2094 44.3239C27.0935 44.393 27.0935 44.393 26.9752 44.4635C26.7578 44.5314 26.7578 44.5314 26.527 44.4719C26.2109 44.3052 25.9062 44.1238 25.6042 43.9333C25.5458 43.8969 25.4875 43.8605 25.4274 43.823C25.2847 43.734 25.1423 43.6445 24.9999 43.5549C25.1933 43.3615 25.316 43.2936 25.5618 43.186C27.8942 42.1389 29.8383 40.6725 31.6406 38.8674C31.7121 38.8004 31.7836 38.7334 31.8572 38.6644C34.1275 36.503 35.6442 33.5993 36.6638 30.6703C36.7041 30.5547 36.7445 30.4391 36.7861 30.32C37.6576 27.7354 37.7424 25.0811 37.741 22.3804C37.741 22.0571 37.7419 21.7337 37.7427 21.4103C37.7445 20.6486 37.7448 19.8869 37.7442 19.1252C37.7435 18.3406 37.7458 17.5561 37.7494 16.7716C37.7524 16.0942 37.7535 15.4168 37.7531 14.7394C37.7529 14.3364 37.7534 13.9333 37.7558 13.5303C37.758 13.1532 37.7578 12.7763 37.7558 12.3993C37.7555 12.261 37.756 12.1227 37.7574 11.9844C37.7592 11.796 37.7576 11.6076 37.7559 11.4193C37.756 11.2611 37.756 11.2611 37.7562 11.0998C37.7197 10.8229 37.7197 10.8229 37.4792 10.6691C37.2205 10.5531 36.9661 10.4497 36.6975 10.3591C36.5969 10.3249 36.4963 10.2907 36.3926 10.2554C36.2286 10.2006 36.2286 10.2006 36.0613 10.1447C35.9453 10.1054 35.8294 10.0662 35.7099 10.0257C35.3926 9.91856 35.0752 9.81191 34.7577 9.70561C34.5591 9.6391 34.3605 9.57244 34.1619 9.50573C33.4685 9.27281 32.7749 9.04059 32.0811 8.80892C31.4354 8.59331 30.7904 8.37605 30.1455 8.15804C29.5909 7.97062 29.0358 7.78445 28.4804 7.59921C28.1492 7.4887 27.8181 7.37768 27.4874 7.26536C27.1185 7.14009 26.7487 7.01741 26.3788 6.89494C26.2701 6.85761 26.1613 6.82028 26.0493 6.78182C25.071 6.46228 24.4263 6.6114 23.4694 6.93874C23.3783 6.96924 23.2872 6.99973 23.1934 7.03115C22.8944 7.1314 22.5958 7.23267 22.2972 7.33392C22.0889 7.40392 21.8805 7.47384 21.6721 7.54369C21.125 7.72722 20.5783 7.91155 20.0315 8.09613C19.1548 8.39206 18.2778 8.68715 17.4006 8.98152C17.0941 9.08456 16.7878 9.18818 16.4815 9.29184C16.2945 9.35474 16.1075 9.41762 15.9205 9.48047C15.8351 9.50954 15.7497 9.53861 15.6617 9.56856C15.5836 9.59471 15.5054 9.62086 15.4249 9.64781C15.357 9.67073 15.2892 9.69365 15.2193 9.71726C15.039 9.76579 15.039 9.76579 14.746 9.76579C14.7155 9.49724 14.7155 9.49724 14.746 9.17985C15.1636 8.73813 15.7124 8.59708 16.274 8.41164C16.3787 8.37619 16.4834 8.34073 16.5912 8.3042C16.9369 8.18749 17.283 8.0723 17.6292 7.95724C17.8699 7.8766 18.1106 7.79592 18.3513 7.71518C18.8556 7.5463 19.3601 7.3782 19.8649 7.21063C20.4475 7.01721 21.0294 6.82196 21.6111 6.62581C22.1719 6.43679 22.7332 6.24941 23.2947 6.06268C23.5331 5.98319 23.7713 5.90325 24.0093 5.82285C24.3422 5.71061 24.6756 5.60025 25.0092 5.49035C25.1074 5.45682 25.2055 5.4233 25.3066 5.38876C25.9734 5.17216 26.4708 5.15228 27.1398 5.39226Z" fill="#34EF91"/>
<path d="M27.215 14.2922C28.0401 14.8793 28.4888 15.6426 28.8084 16.6016C28.8169 16.7559 28.8199 16.9106 28.8195 17.0651C28.8195 17.2059 28.8195 17.2059 28.8195 17.3495C28.819 17.4505 28.8185 17.5515 28.818 17.6556C28.8178 17.7592 28.8177 17.8628 28.8175 17.9696C28.817 18.301 28.8158 18.6323 28.8145 18.9636C28.814 19.1881 28.8136 19.4126 28.8132 19.6371C28.8121 20.1878 28.8104 20.7384 28.8084 21.2891C28.2928 21.2891 27.7772 21.2891 27.2459 21.2891C27.245 21.16 27.2441 21.031 27.2432 20.8981C27.2392 20.4168 27.2328 19.9356 27.2257 19.4544C27.2229 19.2466 27.2208 19.0388 27.2195 18.831C27.2173 18.5313 27.2128 18.2318 27.2078 17.9321C27.2077 17.84 27.2075 17.748 27.2074 17.6531C27.1924 16.9676 27.0426 16.437 26.5837 15.9157C26.5283 15.8721 26.4729 15.8286 26.4158 15.7837C26.3604 15.7386 26.3051 15.6936 26.248 15.6471C25.6436 15.231 25.0338 15.2541 24.3162 15.332C23.6984 15.5552 23.248 16.0349 22.9386 16.6057C22.8087 17.0359 22.8163 17.4563 22.8109 17.9035C22.8091 18.0004 22.8072 18.0972 22.8052 18.197C22.7994 18.5054 22.7949 18.8139 22.7904 19.1223C22.7866 19.3318 22.7828 19.5413 22.7789 19.7508C22.7695 20.2635 22.7613 20.7763 22.7537 21.2891C22.2381 21.2891 21.7225 21.2891 21.1912 21.2891C21.1815 20.6394 21.1745 19.9897 21.1698 19.34C21.1678 19.1193 21.1652 18.8986 21.1618 18.678C21.157 18.3594 21.1548 18.0409 21.1531 17.7223C21.1511 17.6248 21.1491 17.5273 21.147 17.4269C21.1466 16.3084 21.5737 15.4465 22.3517 14.6572C23.7844 13.334 25.5923 13.251 27.215 14.2922Z" fill="#C9D5EF"/>
<path d="M26.013 24.2677C26.5194 24.5691 26.8889 25.0259 27.191 25.525C27.3356 26.1996 27.302 26.8085 26.9927 27.4304C26.7176 27.8438 26.3375 28.2399 25.8544 28.3875C25.7698 28.4027 25.7698 28.4027 25.6835 28.4181C25.6903 28.5487 25.6903 28.5487 25.6972 28.682C25.7025 28.8535 25.7025 28.8535 25.7079 29.0284C25.7124 29.1417 25.7169 29.255 25.7216 29.3717C25.6835 29.6876 25.6835 29.6876 25.5045 29.9207C25.2928 30.0782 25.2928 30.0782 25.006 30.1332C24.7069 30.0782 24.7069 30.0782 24.4322 29.9073C24.1931 29.552 24.1963 29.4202 24.1881 29.004C24.1855 28.5857 24.1855 28.5857 23.9596 28.2609C23.8224 28.1863 23.6832 28.1153 23.5423 28.048C23.1124 27.7971 22.9062 27.3129 22.7538 26.8556C22.6957 26.2264 22.7334 25.6558 23.0467 25.0978C23.8164 24.2065 24.8591 23.7531 26.013 24.2677Z" fill="#030301"/>
<path d="M18.9453 22.7539C19.332 22.7539 19.7188 22.7539 20.1172 22.7539C20.1172 25.751 20.1172 28.748 20.1172 31.8359C19.7305 31.8359 19.3437 31.8359 18.9453 31.8359C18.9453 28.8389 18.9453 25.8418 18.9453 22.7539Z" fill="#FDBF00"/>
<path d="M25.2928 16.6992C25.5669 16.8957 25.7524 17.0499 25.8234 17.3901C25.8376 17.639 25.836 17.8832 25.8288 18.1324C25.8281 18.2227 25.8274 18.3131 25.8267 18.4062C25.8239 18.6938 25.8178 18.9812 25.8116 19.2688C25.8092 19.4642 25.8069 19.6595 25.8049 19.8549C25.7996 20.333 25.7911 20.811 25.7811 21.2891C25.2655 21.2891 24.7498 21.2891 24.2186 21.2891C24.2089 20.6982 24.2018 20.1073 24.1971 19.5164C24.1952 19.3154 24.1925 19.1144 24.1891 18.9134C24.1844 18.6244 24.1822 18.3356 24.1804 18.0466C24.1784 17.9567 24.1764 17.8669 24.1743 17.7743C24.1741 17.1532 24.1741 17.1532 24.3953 16.8382C24.7147 16.6307 24.9203 16.6404 25.2928 16.6992Z" fill="#34EF91"/>
<path d="M23.242 13.9648C23.3065 13.9971 23.3709 14.0293 23.4373 14.0625C23.3948 14.1053 23.3522 14.1481 23.3084 14.1922C22.3427 15.2206 21.9485 16.3655 21.932 17.7486C21.9302 17.8474 21.9283 17.9461 21.9263 18.0479C21.9205 18.3612 21.916 18.6746 21.9114 18.988C21.9077 19.2013 21.9039 19.4146 21.9 19.628C21.8907 20.1491 21.8824 20.6702 21.8748 21.1914C22.1649 21.1914 22.4549 21.1914 22.7537 21.1914C22.7537 21.2236 22.7537 21.2559 22.7537 21.2891C22.2381 21.2891 21.7225 21.2891 21.1912 21.2891C21.1815 20.6394 21.1745 19.9897 21.1698 19.34C21.1678 19.1193 21.1652 18.8986 21.1618 18.6779C21.157 18.3594 21.1548 18.0409 21.1531 17.7223C21.1511 17.6248 21.1491 17.5273 21.147 17.4269C21.1467 16.4142 21.4871 15.5927 22.1678 14.8438C22.5062 14.5182 22.8512 14.2254 23.242 13.9648Z" fill="#AFBFDC"/>
<path d="M26.6602 15.918C27.2743 16.0751 27.5827 16.374 27.9297 16.8945C27.9532 17.0929 27.9532 17.0929 27.9519 17.3222C27.9518 17.4512 27.9518 17.4512 27.9518 17.5829C27.9508 17.6753 27.9498 17.7678 27.9488 17.8631C27.9485 17.958 27.9482 18.053 27.9479 18.1508C27.9468 18.4543 27.9444 18.7578 27.9419 19.0613C27.9409 19.267 27.94 19.4726 27.9392 19.6783C27.9371 20.1827 27.9337 20.687 27.9297 21.1914C28.2197 21.1914 28.5098 21.1914 28.8086 21.1914C28.8086 21.2236 28.8086 21.2559 28.8086 21.2891C28.293 21.2891 27.7773 21.2891 27.2461 21.2891C27.2447 21.0955 27.2447 21.0955 27.2433 20.8981C27.2394 20.4168 27.233 19.9356 27.2258 19.4544C27.2231 19.2466 27.221 19.0388 27.2196 18.831C27.2175 18.5313 27.213 18.2318 27.2079 17.9321C27.2078 17.84 27.2077 17.7479 27.2076 17.6531C27.1943 17.0476 27.0708 16.6304 26.7578 16.1133C26.7256 16.0488 26.6934 15.9844 26.6602 15.918Z" fill="#AFC0DD"/>
<path d="M47.7539 34.8022C48.1556 34.8859 48.3005 35.0173 48.5352 35.3516C48.542 35.7414 48.4947 35.9525 48.2727 36.2732C47.971 36.4771 47.8185 36.4915 47.4609 36.4258C47.1365 36.1859 46.9945 36.0424 46.9116 35.6445C47.0136 35.1549 47.2642 34.9043 47.7539 34.8022Z" fill="#34EC8F"/>
<path d="M2.24597 34.8022C2.64386 34.8851 2.78738 35.0271 3.02722 35.3516C3.08826 35.6445 3.08826 35.6445 3.02722 35.9375C2.78738 36.262 2.64386 36.4039 2.24597 36.4868C1.84809 36.4039 1.70456 36.262 1.46472 35.9375C1.40369 35.6445 1.40369 35.6445 1.46472 35.3516C1.70456 35.0271 1.84809 34.8851 2.24597 34.8022Z" fill="#34EC8F"/>
<path d="M47.8637 13.5684C48.1874 13.688 48.3364 13.78 48.535 14.0627C48.5972 14.428 48.56 14.6008 48.3886 14.9294C48.0927 15.1809 47.9289 15.2098 47.5493 15.1843C47.3632 15.137 47.3632 15.137 47.119 14.9294C46.9443 14.5945 46.8952 14.4342 46.9725 14.0627C47.2619 13.7389 47.4215 13.5772 47.8637 13.5684Z" fill="#34ED90"/>
<path d="M2.35584 13.5684C2.67954 13.688 2.82854 13.78 3.02723 14.0627C3.08939 14.428 3.05221 14.6008 2.88074 14.9294C2.58493 15.1809 2.42112 15.2098 2.04151 15.1843C1.85535 15.137 1.85535 15.137 1.61121 14.9294C1.43645 14.5945 1.38735 14.4342 1.46473 14.0627C1.75411 13.7389 1.91373 13.5772 2.35584 13.5684Z" fill="#34ED90"/>
<path d="M25.3905 25.5857C25.6346 25.7444 25.6346 25.7444 25.7811 25.9763C25.8433 26.3416 25.8061 26.5144 25.6346 26.843C25.3388 27.0945 25.175 27.1234 24.7954 27.0979C24.6092 27.0506 24.6092 27.0506 24.3651 26.843C24.1936 26.5144 24.1564 26.3416 24.2186 25.9763C24.5068 25.5201 24.8919 25.4856 25.3905 25.5857Z" fill="#4D63CB"/>
<path d="M48.1444 24.2185C48.3885 24.3772 48.3885 24.3772 48.535 24.6091C48.5972 24.9744 48.56 25.1472 48.3885 25.4758C48.0927 25.7273 47.9289 25.7562 47.5493 25.7307C47.3631 25.6834 47.3631 25.6834 47.119 25.4758C46.9475 25.1472 46.9104 24.9744 46.9725 24.6091C47.2607 24.1529 47.6458 24.1184 48.1444 24.2185Z" fill="#34EF91"/>
<path d="M2.63658 24.2185C2.88072 24.3772 2.88072 24.3772 3.02721 24.6091C3.08937 24.9744 3.05219 25.1472 2.88072 25.4758C2.58491 25.7273 2.4211 25.7562 2.04149 25.7307C1.85533 25.6834 1.85533 25.6834 1.61119 25.4758C1.43972 25.1472 1.40254 24.9744 1.46471 24.6091C1.75288 24.1529 2.13801 24.1184 2.63658 24.2185Z" fill="#34EF91"/>
</g>
<defs>
<clipPath id="clip0_794_2">
<rect width="50" height="50" fill="white"/>
</clipPath>
</defs>
</svg>
