<svg width="50" height="50" viewBox="0 0 50 50" fill="none" xmlns="http://www.w3.org/2000/svg">
<g clip-path="url(#clip0_707_10)">
<path d="M31.2257 3.24099C32.9265 4.74425 33.9894 6.74928 34.3752 8.9844C34.4995 11.0746 34.3006 12.6203 33.4963 14.5508C35.5265 14.5508 37.5568 14.5508 39.6486 14.5508C40.971 16.9753 40.971 16.9753 41.4064 17.8223C41.782 18.5477 42.166 19.2674 42.56 19.9829C43.0528 20.8786 43.5239 21.7845 43.9911 22.6936C44.3893 23.468 44.7944 24.2376 45.215 25C45.7019 25.8827 46.1664 26.776 46.627 27.6726C47.0864 28.5662 47.5566 29.4531 48.044 30.3318C48.1289 30.4855 48.213 30.6397 48.2958 30.7945C48.3898 30.967 48.4875 31.1374 48.5889 31.3056C49.0477 32.1164 49.1063 32.8113 49.0948 33.7278C49.0951 33.8748 49.0957 34.0219 49.0965 34.169C49.0979 34.5649 49.0956 34.9606 49.0927 35.3565C49.0901 35.7724 49.0906 36.1883 49.0907 36.6043C49.0904 37.302 49.0879 37.9997 49.0839 38.6975C49.0793 39.5027 49.0777 40.3079 49.078 41.1132C49.0782 41.9732 49.0761 42.8333 49.0734 43.6933C49.0728 43.9401 49.0726 44.1869 49.0725 44.4337C49.0722 44.822 49.0704 45.2103 49.0675 45.5985C49.0666 45.7406 49.0662 45.8826 49.0664 46.0246C49.0676 47.6462 49.0676 47.6462 48.5048 48.3155C47.826 48.8837 47.3932 49.0384 46.5244 49.0363C46.4113 49.0366 46.4113 49.0366 46.2959 49.0369C46.0418 49.0375 45.7876 49.0373 45.5335 49.0372C45.35 49.0374 45.1666 49.0377 44.9831 49.0381C44.4778 49.0388 43.9724 49.039 43.4671 49.0391C42.9226 49.0393 42.378 49.04 41.8335 49.0407C40.6422 49.042 39.451 49.0426 38.2598 49.043C37.5162 49.0433 36.7727 49.0437 36.0292 49.0441C33.9714 49.0453 31.9135 49.0463 29.8557 49.0467C29.7226 49.0467 29.5896 49.0467 29.4565 49.0467C29.3231 49.0467 29.1897 49.0468 29.0563 49.0468C28.7887 49.0468 28.5211 49.0469 28.2534 49.0469C28.1871 49.0469 28.1207 49.0469 28.0524 49.047C25.9006 49.0473 23.7488 49.0489 21.597 49.0511C19.3222 49.0535 17.0474 49.0549 14.7725 49.055C13.5324 49.0551 12.2923 49.0557 11.0522 49.0574C9.99633 49.0589 8.94046 49.0594 7.88459 49.0586C7.34573 49.0582 6.80689 49.0583 6.26803 49.0597C5.7748 49.0609 5.28158 49.0608 4.78834 49.0596C4.60985 49.0595 4.43136 49.0598 4.25287 49.0606C4.01024 49.0617 3.76767 49.061 3.52504 49.0598C3.42112 49.0609 3.42112 49.0609 3.3151 49.062C2.6106 49.0547 1.97031 48.8452 1.46501 48.3399C1.08239 47.7866 0.966529 47.3311 0.954468 46.6681C0.952076 46.5454 0.949682 46.4227 0.947217 46.2963C0.945071 46.1605 0.942946 46.0246 0.940842 45.8888C0.938311 45.7455 0.935762 45.6022 0.933195 45.4589C0.910521 44.142 0.897857 42.8249 0.887747 41.5079C0.880812 40.6248 0.870982 39.7419 0.853486 38.8589C0.838181 38.0864 0.828682 37.3141 0.82574 36.5415C0.82401 36.1341 0.819752 35.7272 0.808535 35.3199C0.748386 33.0402 1.14881 31.4607 2.3475 29.5132C2.62675 29.0559 2.87819 28.5848 3.13127 28.1128C3.22481 27.9426 3.3185 27.7724 3.41241 27.6024C3.76738 26.9524 4.10505 26.2935 4.44352 25.6348C4.91743 24.7125 5.40181 23.7974 5.90264 22.8894C6.30809 22.1509 6.69524 21.4035 7.08024 20.6543C7.55806 19.7245 8.04589 18.8014 8.55073 17.8859C8.99931 17.0699 9.42784 16.2438 9.85376 15.4157C9.90467 15.317 9.95557 15.2182 10.008 15.1165C10.0758 14.9844 10.0758 14.9844 10.145 14.8496C10.2541 14.6485 10.2541 14.6485 10.3517 14.5508C10.5435 14.5416 10.7356 14.5393 10.9276 14.5397C11.0507 14.5397 11.1739 14.5397 11.3008 14.5397C11.4362 14.5402 11.5717 14.5407 11.7071 14.5413C11.8449 14.5415 11.9827 14.5416 12.1205 14.5417C12.4838 14.5421 12.8471 14.543 13.2104 14.5441C13.5809 14.5451 13.9514 14.5455 14.3219 14.546C15.0493 14.5471 15.7767 14.5488 16.5041 14.5508C16.4708 14.4729 16.4375 14.3949 16.4033 14.3146C16.3376 14.1592 16.3376 14.1592 16.2706 14.0007C16.2273 13.8986 16.1839 13.7965 16.1393 13.6913C15.2767 11.5095 15.3896 8.91329 16.2653 6.76081C16.6687 5.85912 17.1354 5.0509 17.7736 4.2969C17.8221 4.23433 17.8705 4.17177 17.9205 4.10731C19.3103 2.38311 21.6083 1.28048 23.7798 1.00405C26.5262 0.783119 29.0955 1.43158 31.2257 3.24099Z" fill="#6EBBFE"/>
<path d="M31.2256 3.24099C32.9264 4.74425 33.9892 6.74928 34.375 8.9844C34.4993 11.0746 34.3005 12.6203 33.4961 14.5508C35.4941 14.5508 37.4922 14.5508 39.5508 14.5508C39.5687 16.3445 39.5687 16.3445 39.5747 16.9558C39.5848 17.9659 39.5963 18.9759 39.6101 19.986C39.6156 20.3986 39.621 20.8112 39.6263 21.2239C39.6276 21.3258 39.629 21.4277 39.6304 21.5327C39.6455 22.7223 39.6489 23.9095 39.6217 25.0988C39.5761 27.5678 39.8926 29.3932 41.1556 31.5443C41.2988 31.8173 41.3541 32.0245 41.4062 32.3242C41.3518 32.3243 41.2974 32.3244 41.2414 32.3244C39.9169 32.3259 38.5924 32.33 37.2679 32.3371C36.6274 32.3405 35.9869 32.3429 35.3464 32.3433C34.7284 32.3438 34.1104 32.3465 33.4924 32.3509C33.2565 32.3522 33.0206 32.3526 32.7847 32.3522C32.4545 32.3517 32.1245 32.3542 31.7943 32.3575C31.6965 32.3567 31.5987 32.3558 31.498 32.355C31.0464 32.3624 30.8308 32.3699 30.4614 32.6479C30.232 32.968 30.1311 33.2849 30.0354 33.6609C29.6304 35.0832 28.8205 36.1591 27.5391 36.9141C26.2633 37.551 24.8168 37.7068 23.4409 37.3135C21.9569 36.7806 20.9403 35.8704 20.264 34.4659C20.0526 33.9998 19.8984 33.5347 19.8013 33.0307C19.6954 32.7217 19.6042 32.6165 19.3359 32.4219C18.9932 32.3612 18.6528 32.3669 18.3055 32.3686C18.2007 32.3676 18.0958 32.3666 17.9878 32.3655C17.6412 32.3627 17.2946 32.3625 16.9479 32.3624C16.7077 32.3609 16.4674 32.3593 16.2271 32.3575C15.5945 32.3532 14.962 32.3513 14.3294 32.3498C13.684 32.3479 13.0386 32.3438 12.3932 32.3399C11.1267 32.3325 9.86024 32.3275 8.59375 32.3242C8.75129 31.7997 8.91872 31.3553 9.23104 30.9C10.8731 28.1972 10.5389 24.9975 10.495 21.9504C10.4827 21.0752 10.4801 20.2001 10.4774 19.3249C10.4745 18.4321 10.4708 17.5393 10.4608 16.6465C10.4594 16.511 10.458 16.3755 10.4566 16.24C10.4539 15.9888 10.4507 15.7375 10.4471 15.4863C10.446 15.3766 10.4448 15.2669 10.4436 15.1538C10.4417 15.0101 10.4417 15.0101 10.4398 14.8635C10.4492 14.6485 10.4492 14.6485 10.5469 14.5508C10.7327 14.5416 10.9188 14.5393 11.1048 14.5397C11.2241 14.5397 11.3433 14.5397 11.4662 14.5397C11.5973 14.5402 11.7284 14.5407 11.8595 14.5413C11.9929 14.5415 12.1263 14.5416 12.2598 14.5417C12.6115 14.5421 12.9633 14.543 13.315 14.5441C13.6737 14.5451 14.0324 14.5455 14.3911 14.546C15.0954 14.5471 15.7996 14.5488 16.5039 14.5508C16.4706 14.4729 16.4374 14.3949 16.4031 14.3146C16.3374 14.1592 16.3374 14.1592 16.2704 14.0007C16.2271 13.8986 16.1838 13.7965 16.1391 13.6913C15.2765 11.5095 15.3894 8.91329 16.2651 6.76081C16.6685 5.85912 17.1352 5.0509 17.7734 4.2969C17.8219 4.23433 17.8704 4.17177 17.9203 4.10731C19.3101 2.38311 21.6081 1.28048 23.7797 1.00405C26.526 0.783119 29.0954 1.43158 31.2256 3.24099Z" fill="#5FAEFE"/>
<path d="M31.2258 3.24099C32.9266 4.74425 33.9894 6.74928 34.3752 8.9844C34.4637 10.4723 34.4954 11.9644 33.9846 13.3789C33.9349 13.5268 33.9349 13.5268 33.8842 13.6776C32.9854 16.0862 31.1395 17.9075 28.8469 18.9972C28.0995 19.321 27.377 19.5663 26.5627 19.6289C26.5394 19.706 26.5161 19.783 26.4921 19.8624C26.3332 20.3113 26.1368 20.7365 25.934 21.167C25.8954 21.2512 25.8568 21.3355 25.8171 21.4222C25.7793 21.5027 25.7414 21.5831 25.7025 21.666C25.6684 21.739 25.6344 21.8119 25.5993 21.8871C25.4885 22.0703 25.4885 22.0703 25.1955 22.2656C24.9094 22.2752 24.9094 22.2752 24.6096 22.168C24.4432 21.9167 24.3254 21.7018 24.2067 21.4295C24.1754 21.3619 24.144 21.2944 24.1117 21.2248C24.0484 21.0883 23.9859 20.9514 23.9243 20.8141C23.795 20.5332 23.6531 20.2593 23.5098 19.9852C23.4377 19.8242 23.4377 19.8242 23.4377 19.6289C23.3723 19.6228 23.307 19.6166 23.2397 19.6102C20.9828 19.3224 18.9229 17.9198 17.5276 16.1602C15.8846 13.9124 15.2905 11.4247 15.6736 8.64947C15.9941 7.05276 16.7233 5.53779 17.7736 4.2969C17.8463 4.20305 17.8463 4.20305 17.9205 4.10731C19.3103 2.38311 21.6083 1.28048 23.7799 1.00405C26.5262 0.783119 29.0956 1.43158 31.2258 3.24099Z" fill="#E2EFF8"/>
<path d="M10.6479 28.1128C10.7363 28.1129 10.8247 28.1129 10.9157 28.113C11.0681 28.1127 11.0681 28.1127 11.2235 28.1124C11.3365 28.1127 11.4494 28.1129 11.5658 28.1132C11.6847 28.1131 11.8036 28.1131 11.9261 28.113C12.2577 28.1128 12.5893 28.1131 12.9209 28.1136C13.2779 28.1141 13.6349 28.1139 13.9919 28.1138C14.611 28.1138 15.23 28.1141 15.849 28.1146C16.7441 28.1154 17.6391 28.1157 18.5341 28.1158C19.9861 28.116 21.4381 28.1167 22.8901 28.1176C24.3009 28.1185 25.7118 28.1192 27.1226 28.1196C27.2095 28.1196 27.2964 28.1197 27.386 28.1197C27.8219 28.1198 28.2578 28.1199 28.6938 28.1201C32.3128 28.1211 35.9318 28.1228 39.5508 28.125C39.6747 28.3712 39.7983 28.6174 39.922 28.8637C39.9566 28.9326 39.9913 29.0014 40.027 29.0723C40.3439 29.7044 40.6353 30.3454 40.918 30.9936C40.9657 31.1014 41.0134 31.2091 41.0625 31.3202C41.4062 32.1038 41.4062 32.1038 41.4062 32.3242C41.3246 32.3243 41.3246 32.3243 41.2414 32.3244C39.9169 32.3258 38.5924 32.33 37.2679 32.3371C36.6274 32.3404 35.9869 32.3429 35.3464 32.3433C34.7284 32.3437 34.1104 32.3465 33.4924 32.3509C33.2565 32.3522 33.0206 32.3526 32.7847 32.3521C32.4545 32.3517 32.1245 32.3542 31.7943 32.3574C31.6965 32.3566 31.5987 32.3558 31.498 32.3549C31.0464 32.3624 30.8308 32.3698 30.4614 32.6478C30.232 32.9679 30.1311 33.2848 30.0354 33.6609C29.6304 35.0831 28.8205 36.159 27.5391 36.914C26.2633 37.5509 24.8168 37.7068 23.4409 37.3134C21.9569 36.7806 20.9403 35.8703 20.264 34.4659C20.0526 33.9997 19.8984 33.5347 19.8013 33.0307C19.6954 32.7216 19.6042 32.6164 19.3359 32.4218C18.9932 32.3611 18.6528 32.3668 18.3055 32.3685C18.1482 32.367 18.1482 32.367 17.9878 32.3655C17.6412 32.3626 17.2946 32.3625 16.9479 32.3623C16.7077 32.3609 16.4674 32.3592 16.2271 32.3574C15.5945 32.3532 14.962 32.3512 14.3294 32.3498C13.684 32.3478 13.0386 32.3437 12.3932 32.3398C11.1267 32.3325 9.86024 32.3275 8.59375 32.3242C8.63891 32.1858 8.68433 32.0476 8.72985 31.9094C8.75511 31.8324 8.78037 31.7554 8.8064 31.676C8.92789 31.327 9.0779 30.9934 9.23233 30.6579C9.2642 30.5879 9.29607 30.5178 9.3289 30.4456C9.39549 30.2995 9.46229 30.1534 9.5293 30.0075C9.63225 29.7832 9.73446 29.5585 9.83658 29.3338C9.90164 29.1913 9.96674 29.0487 10.0319 28.9062C10.0778 28.8054 10.0778 28.8054 10.1247 28.7025C10.3887 28.1287 10.3887 28.1287 10.6479 28.1128Z" fill="#4795EA"/>
<path d="M5.52341 39.5335C5.58918 39.5329 5.65494 39.5322 5.72269 39.5316C5.94075 39.5296 6.1588 39.5285 6.37686 39.5275C6.45136 39.5271 6.52587 39.5267 6.60264 39.5263C6.99716 39.5243 7.39167 39.5229 7.7862 39.522C8.19318 39.5209 8.60011 39.5175 9.00707 39.5137C9.3204 39.5111 9.63373 39.5103 9.94707 39.5099C10.097 39.5095 10.247 39.5083 10.397 39.5065C10.6074 39.5041 10.8176 39.5042 11.028 39.5049C11.1476 39.5043 11.2671 39.5038 11.3903 39.5032C11.7865 39.5606 11.995 39.6922 12.3049 39.9414C12.5138 40.2549 12.5251 40.3385 12.527 40.6992C12.528 40.7934 12.5289 40.8876 12.5299 40.9846C12.5298 41.0863 12.5297 41.1879 12.5296 41.2926C12.53 41.3972 12.5304 41.5019 12.5308 41.6097C12.5314 41.8312 12.5315 42.0526 12.531 42.2741C12.5307 42.6128 12.533 42.9513 12.5355 43.29C12.5357 43.5051 12.5358 43.7203 12.5357 43.9354C12.5366 44.0366 12.5375 44.1379 12.5384 44.2422C12.5327 45.1322 12.5327 45.1322 12.2072 45.5078C11.8658 45.8344 11.5984 45.8387 11.1346 45.8418C11.0328 45.8431 11.0328 45.8431 10.929 45.8443C10.7051 45.8466 10.4814 45.8467 10.2575 45.8466C10.1016 45.8473 9.94572 45.848 9.7898 45.8488C9.46316 45.8501 9.13654 45.8503 8.80989 45.8497C8.39172 45.8492 7.97366 45.8521 7.55551 45.8561C7.23355 45.8586 6.91161 45.8589 6.58964 45.8585C6.43549 45.8587 6.28134 45.8596 6.12721 45.8614C5.91141 45.8636 5.69584 45.8626 5.48004 45.8609C5.3574 45.8611 5.23475 45.8613 5.10839 45.8615C4.69942 45.7847 4.5569 45.6298 4.29708 45.3125C4.17885 45.076 4.18452 44.9204 4.18059 44.6561C4.17902 44.5603 4.17745 44.4644 4.17584 44.3657C4.1715 43.9266 4.16749 43.4876 4.16524 43.0485C4.16362 42.817 4.16096 42.5855 4.15723 42.354C4.15188 42.0203 4.14974 41.6867 4.14831 41.3529C4.1461 41.2497 4.14388 41.1465 4.1416 41.0402C4.1439 40.2375 4.1439 40.2375 4.43456 39.8776C4.81758 39.5309 5.01268 39.5376 5.52341 39.5335Z" fill="#E0EEF8"/>
<path d="M22.1682 6.25C22.5962 6.50032 22.9338 6.79716 23.2813 7.14874C23.3282 7.19588 23.3751 7.24301 23.4233 7.29157C23.571 7.44034 23.718 7.58978 23.865 7.73926C23.9658 7.84103 24.0666 7.94275 24.1675 8.04443C24.4131 8.29213 24.658 8.54043 24.9026 8.78906C25.2825 8.63496 25.5351 8.37544 25.8158 8.08678C25.8647 8.03743 25.9135 7.98808 25.9638 7.93724C26.1192 7.78015 26.2739 7.62242 26.4285 7.4646C26.5839 7.30651 26.7394 7.14857 26.8952 6.99091C26.992 6.89293 27.0885 6.79469 27.1847 6.69616C27.4828 6.39373 27.6219 6.26084 28.052 6.21948C28.4847 6.25554 28.6739 6.3641 29.0042 6.64062C29.2023 6.89042 29.1994 7.02626 29.2056 7.34863C28.9631 8.20454 28.0643 8.86222 27.4478 9.47266C27.3623 9.55763 27.2769 9.6426 27.1889 9.73015C26.9804 9.93751 26.7717 10.1446 26.5627 10.3516C27.1171 11.0228 27.7333 11.6228 28.356 12.2301C28.4365 12.3095 28.5169 12.3889 28.5998 12.4706C28.6728 12.542 28.7458 12.6133 28.8209 12.6868C29.1087 13.0069 29.203 13.1827 29.1873 13.6169C29.0946 13.9941 28.9793 14.1768 28.7112 14.4531C28.3882 14.6146 28.0811 14.6241 27.7346 14.5508C27.5563 14.4306 27.5563 14.4306 27.3783 14.2666C27.3108 14.2046 27.2433 14.1426 27.1737 14.0787C26.769 13.6903 26.3715 13.2953 25.9768 12.8967C25.8918 12.8113 25.8069 12.7259 25.7193 12.6379C25.5119 12.4294 25.3048 12.2207 25.0979 12.0117C24.718 12.1658 24.4654 12.4253 24.1847 12.714C24.1358 12.7634 24.087 12.8127 24.0367 12.8635C23.8813 13.0206 23.7266 13.1784 23.572 13.3362C23.4166 13.4943 23.2611 13.6522 23.1053 13.8099C23.0085 13.9079 22.912 14.0061 22.8157 14.1046C22.4913 14.4338 22.3646 14.5427 21.8936 14.5813C21.5787 14.5773 21.4853 14.5512 21.2039 14.3799C20.896 14.0539 20.8037 13.9067 20.7949 13.4521C21.0374 12.5962 21.9362 11.9386 22.5527 11.3281C22.6381 11.2432 22.7236 11.1582 22.8116 11.0706C23.0201 10.8633 23.2288 10.6561 23.4377 10.4492C22.8834 9.77801 22.2671 9.178 21.6445 8.57067C21.564 8.4913 21.4836 8.41193 21.4007 8.33015C21.3277 8.25882 21.2547 8.18748 21.1795 8.11398C20.8918 7.79387 20.7974 7.61803 20.8132 7.18384C20.9059 6.8067 21.0212 6.62393 21.2893 6.34766C21.593 6.19582 21.8325 6.22203 22.1682 6.25Z" fill="#EA3E32"/>
<path d="M15.7751 39.5335C15.8671 39.5323 15.959 39.531 16.0537 39.5297C16.2033 39.5286 16.2033 39.5286 16.3558 39.5275C16.4582 39.5267 16.5606 39.5259 16.6661 39.5251C16.8831 39.5238 17.1002 39.5227 17.3172 39.522C17.6486 39.5203 17.9799 39.516 18.3112 39.5117C18.5221 39.5107 18.7329 39.5099 18.9437 39.5092C19.0921 39.5066 19.0921 39.5066 19.2434 39.504C19.8267 39.5058 20.1633 39.5493 20.6054 39.9414C20.8458 40.302 20.8677 40.597 20.8007 41.0156C20.5883 41.3646 20.3937 41.5459 20.0195 41.6992C19.7978 41.7247 19.7978 41.7247 19.5526 41.726C19.4603 41.727 19.3681 41.7279 19.273 41.7289C19.1741 41.7288 19.0751 41.7287 18.9731 41.7286C18.8196 41.7292 18.8196 41.7292 18.663 41.7299C18.4467 41.7304 18.2304 41.7305 18.0141 41.7301C17.6834 41.7297 17.3528 41.732 17.0221 41.7345C16.8118 41.7347 16.6015 41.7348 16.3913 41.7347C16.2925 41.7356 16.1937 41.7365 16.0919 41.7374C15.2243 41.7317 15.2243 41.7317 14.8437 41.4063C14.5685 40.9936 14.5703 40.6215 14.6484 40.1367C14.9895 39.6969 15.2316 39.5399 15.7751 39.5335Z" fill="#FE914C"/>
<path d="M16.6077 43.7011C16.7314 43.7009 16.8551 43.7006 16.9825 43.7004C17.67 43.7076 18.1133 43.7229 18.6341 44.2077C18.8049 44.5404 18.814 44.8535 18.7501 45.2148C18.5748 45.5248 18.4456 45.6634 18.1225 45.8122C17.628 45.9344 17.1518 45.9267 16.6444 45.9228C16.544 45.9236 16.4436 45.9243 16.3401 45.9251C16.243 45.9249 16.1459 45.9246 16.0458 45.9244C15.958 45.9241 15.8702 45.9239 15.7797 45.9237C15.3401 45.8797 15.0873 45.746 14.7584 45.4529C14.5055 45.1254 14.515 44.8577 14.5528 44.4576C14.9431 43.5635 15.764 43.6822 16.6077 43.7011Z" fill="#7FD758"/>
<path d="M8.07756 41.6576C8.28084 41.6565 8.48382 41.6517 8.68703 41.6468C9.77513 41.6333 9.77513 41.6333 10.1444 41.922C10.423 42.279 10.5037 42.5201 10.4492 42.9687C10.257 43.3394 10.113 43.5184 9.76564 43.75C9.36638 43.7921 8.96706 43.7904 8.56575 43.7915C8.36964 43.7927 8.17356 43.7976 7.9775 43.8024C6.91742 43.8083 6.91742 43.8083 6.55748 43.5306C6.25856 43.1475 6.211 42.8605 6.25001 42.3828C6.60651 41.545 7.28022 41.6598 8.07756 41.6576Z" fill="#FC66C2"/>
</g>
<defs>
<clipPath id="clip0_707_10">
<rect width="50" height="50" fill="white"/>
</clipPath>
</defs>
</svg>
