<svg width="50" height="50" viewBox="0 0 50 50" fill="none" xmlns="http://www.w3.org/2000/svg">
<g clip-path="url(#clip0_707_51)">
<path d="M8.17683 -0.037919C8.32827 -0.0383273 8.47971 -0.0388627 8.63114 -0.0395127C9.04392 -0.0409155 9.45667 -0.0405125 9.86944 -0.0397894C10.3159 -0.0393253 10.7624 -0.0405507 11.2089 -0.0415489C12.0823 -0.0432241 12.9557 -0.0433101 13.8292 -0.0427976C14.5395 -0.0424022 15.2498 -0.0425448 15.9601 -0.043066C16.0614 -0.0431391 16.1627 -0.0432122 16.267 -0.0432875C16.4728 -0.0434371 16.6786 -0.0435873 16.8844 -0.0437382C18.8122 -0.0450773 20.7401 -0.0445483 22.6679 -0.0434271C24.4293 -0.0424574 26.1907 -0.0437207 27.952 -0.0460574C29.7632 -0.048442 31.5743 -0.049377 33.3855 -0.048728C34.4013 -0.0483876 35.4171 -0.0486012 36.4329 -0.0503151C37.2976 -0.051756 38.1624 -0.0518105 39.0272 -0.0501128C39.4678 -0.0492842 39.9085 -0.0490658 40.3491 -0.0505671C40.7535 -0.0519277 41.1579 -0.0514436 41.5623 -0.0495672C41.7076 -0.0492025 41.8529 -0.049478 41.9982 -0.0505058C43.2936 -0.0590091 44.5849 0.135716 45.7398 0.756776C45.8365 0.807111 45.8365 0.807111 45.9351 0.858462C46.4985 1.16106 46.9895 1.52045 47.461 1.95307C47.5348 2.0179 47.6085 2.08273 47.6845 2.14952C49.0177 3.38873 49.8891 5.18119 50.0271 6.99595C50.0379 7.38984 50.0397 7.78272 50.0379 8.1767C50.0383 8.32814 50.0389 8.47958 50.0395 8.63102C50.0409 9.0438 50.0405 9.45655 50.0398 9.86932C50.0393 10.3158 50.0406 10.7623 50.0416 11.2088C50.0432 12.0822 50.0433 12.9556 50.0428 13.829C50.0424 14.5394 50.0425 15.2497 50.0431 15.96C50.0431 16.0613 50.0432 16.1625 50.0433 16.2669C50.0434 16.4727 50.0436 16.6785 50.0437 16.8843C50.0451 18.8121 50.0446 20.74 50.0434 22.6678C50.0425 24.4292 50.0437 26.1905 50.0461 27.9519C50.0484 29.7631 50.0494 31.5742 50.0487 33.3854C50.0484 34.4012 50.0486 35.417 50.0503 36.4328C50.0518 37.2975 50.0518 38.1623 50.0501 39.027C50.0493 39.4677 50.0491 39.9083 50.0506 40.349C50.0519 40.7534 50.0514 41.1578 50.0496 41.5622C50.0492 41.7075 50.0495 41.8528 50.0505 41.9981C50.059 43.2891 49.8656 44.581 49.2493 45.7336C49.2161 45.7977 49.1829 45.8619 49.1486 45.9279C48.8225 46.5345 48.416 47.0528 47.9493 47.5585C47.8895 47.6273 47.8297 47.696 47.7681 47.7668C46.5739 49.0654 44.7506 49.8942 43.0041 50.027C42.6102 50.0377 42.2173 50.0396 41.8233 50.0378C41.6719 50.0382 41.5204 50.0387 41.369 50.0394C40.9562 50.0408 40.5435 50.0404 40.1307 50.0397C39.6842 50.0392 39.2377 50.0404 38.7912 50.0414C37.9178 50.0431 37.0444 50.0432 36.171 50.0427C35.4606 50.0423 34.7503 50.0424 34.04 50.0429C33.8881 50.0431 33.8881 50.0431 33.7331 50.0432C33.5273 50.0433 33.3215 50.0435 33.1157 50.0436C31.1879 50.045 29.26 50.0444 27.3322 50.0433C25.5708 50.0423 23.8095 50.0436 22.0481 50.0459C20.2369 50.0483 18.4258 50.0493 16.6146 50.0486C15.5988 50.0483 14.583 50.0485 13.5673 50.0502C12.7025 50.0516 11.8377 50.0517 10.973 50.05C10.5323 50.0492 10.0917 50.0489 9.65099 50.0504C9.24658 50.0518 8.84222 50.0513 8.43782 50.0494C8.29253 50.0491 8.14724 50.0494 8.00195 50.0504C6.71092 50.0589 5.41902 49.8655 4.26642 49.2492C4.20228 49.216 4.13814 49.1827 4.07206 49.1485C3.46547 48.8224 2.94718 48.4159 2.44147 47.9492C2.37274 47.8894 2.304 47.8296 2.23319 47.768C0.934634 46.5738 0.105826 44.7505 -0.0269556 43.0039C-0.0377341 42.61 -0.0395452 42.2172 -0.0377969 41.8232C-0.0382053 41.6717 -0.0387406 41.5203 -0.0393906 41.3689C-0.0407933 40.9561 -0.0403902 40.5433 -0.039667 40.1306C-0.039203 39.6841 -0.0404287 39.2376 -0.0414268 38.7911C-0.043102 37.9177 -0.043188 37.0443 -0.0426756 36.1708C-0.0422801 35.4605 -0.0424226 34.7502 -0.0429438 34.0399C-0.0430169 33.9386 -0.0430905 33.8373 -0.0431658 33.733C-0.0433154 33.5272 -0.0434649 33.3214 -0.0436158 33.1156C-0.044955 31.1878 -0.0444263 29.2599 -0.0433051 27.3321C-0.0423354 25.5707 -0.0435985 23.8093 -0.0459352 22.048C-0.0483197 20.2368 -0.0492551 18.4257 -0.0486062 16.6145C-0.0482657 15.5987 -0.0484794 14.5829 -0.0501932 13.5671C-0.0516342 12.7024 -0.0516882 11.8376 -0.0499905 10.9728C-0.0491619 10.5322 -0.0489438 10.0915 -0.050445 9.65087C-0.0518056 9.24646 -0.0513216 8.8421 -0.0494452 8.4377C-0.0490805 8.29241 -0.0493561 8.14711 -0.0503839 8.00183C-0.0588873 6.70642 0.135838 5.41508 0.756898 4.26019C0.790455 4.19573 0.824011 4.13127 0.858584 4.06486C1.16118 3.50149 1.52057 3.0105 1.95319 2.539C2.01802 2.46523 2.08285 2.39147 2.14964 2.31546C3.73855 0.60614 5.89456 -0.0480467 8.17683 -0.037919Z" fill="#90D2F0"/>
<path d="M8.12425 18.9815C8.30793 18.9796 8.30793 18.9796 8.49533 18.9776C8.63096 18.9787 8.76659 18.9798 8.90222 18.9809C9.0465 18.9804 9.19078 18.9796 9.33506 18.9786C9.73165 18.9766 10.1282 18.9776 10.5248 18.9791C10.9524 18.9802 11.38 18.9785 11.8077 18.9771C12.6455 18.975 13.4832 18.9754 14.321 18.9769C15.0018 18.978 15.6826 18.9781 16.3634 18.9776C16.5086 18.9775 16.5086 18.9775 16.6568 18.9774C16.8535 18.9772 17.0501 18.977 17.2468 18.9769C19.0919 18.9755 20.937 18.9771 22.7821 18.9797C24.3659 18.9819 25.9497 18.9815 27.5335 18.9793C29.3719 18.9766 31.2103 18.9756 33.0487 18.9771C33.2447 18.9773 33.4407 18.9774 33.6366 18.9776C33.7331 18.9777 33.8295 18.9777 33.9288 18.9778C34.6089 18.9782 35.289 18.9775 35.9691 18.9764C36.7978 18.975 37.6264 18.9754 38.455 18.978C38.8779 18.9793 39.3008 18.9798 39.7237 18.9781C40.1107 18.9767 40.4976 18.9775 40.8846 18.9801C41.0248 18.9806 41.1649 18.9803 41.3051 18.9792C41.4953 18.9777 41.6855 18.9795 41.8758 18.9815C42.0344 18.9816 42.0344 18.9816 42.1962 18.9817C42.5806 19.0645 42.7279 19.2263 42.9688 19.5312C43.0297 19.7366 43.0297 19.7366 43.0297 19.9437C43.0308 20.0233 43.032 20.1029 43.0331 20.1849C43.0319 20.2713 43.0307 20.3577 43.0294 20.4467C43.0301 20.5393 43.0307 20.6319 43.0313 20.7273C43.0328 21.0378 43.0308 21.3482 43.0288 21.6587C43.0292 21.8811 43.0297 22.1036 43.0305 22.3261C43.0319 22.9306 43.0302 23.5351 43.0279 24.1396C43.026 24.7717 43.0265 25.4039 43.0268 26.036C43.0267 27.0977 43.0248 28.1593 43.0217 29.221C43.0185 30.3132 43.0171 31.4054 43.0177 32.4976C43.0184 33.814 43.0177 35.1303 43.0156 36.4466C43.0148 36.9494 43.0145 37.4521 43.0147 37.9549C43.0147 38.5468 43.0134 39.1386 43.0108 39.7305C43.0101 39.9479 43.0099 40.1653 43.0103 40.3828C43.0106 40.6792 43.0092 40.9755 43.0073 41.2719C43.0078 41.3583 43.0083 41.4447 43.0089 41.5337C43.0037 41.9936 42.9783 42.3048 42.6758 42.6757C42.3361 42.9022 42.2061 42.8956 41.8052 42.8962C41.6838 42.8968 41.5624 42.8974 41.4374 42.8981C41.3019 42.8978 41.1665 42.8975 41.031 42.8972C40.8877 42.8975 40.7444 42.898 40.6011 42.8985C40.2063 42.8997 39.8116 42.8997 39.4168 42.8994C38.9914 42.8994 38.566 42.9005 38.1406 42.9014C37.3069 42.903 36.4731 42.9036 35.6393 42.9037C34.9618 42.9038 34.2843 42.9042 33.6068 42.9048C31.6871 42.9065 29.7675 42.9074 27.8479 42.9073C27.6925 42.9072 27.6925 42.9072 27.5341 42.9072C27.4304 42.9072 27.3267 42.9072 27.2199 42.9072C25.5392 42.9071 23.8585 42.909 22.1778 42.9118C20.4533 42.9146 18.7288 42.9159 17.0043 42.9157C16.0356 42.9157 15.067 42.9162 14.0983 42.9183C13.2736 42.9201 12.449 42.9205 11.6243 42.9192C11.2033 42.9186 10.7824 42.9185 10.3615 42.9202C9.97629 42.9218 9.59116 42.9215 9.20599 42.9198C9.06647 42.9195 8.92695 42.9198 8.78744 42.9209C8.5981 42.9223 8.40874 42.921 8.21941 42.9197C8.06151 42.9197 8.06151 42.9197 7.90042 42.9198C7.54551 42.8587 7.38267 42.7318 7.12891 42.4804C6.9976 42.0865 7.01646 41.7062 7.01623 41.2954C7.0158 41.203 7.01537 41.1105 7.01493 41.0153C7.01362 40.7043 7.01302 40.3932 7.01242 40.0822C7.01165 39.8597 7.01084 39.6372 7.01 39.4148C7.00744 38.6832 7.00595 37.9516 7.00455 37.22C7.00403 36.9684 7.00351 36.7168 7.00298 36.4652C7.00087 35.419 6.99902 34.3728 6.99794 33.3267C6.99765 33.0552 6.99736 32.7838 6.99707 32.5124C6.99699 32.4449 6.99692 32.3775 6.99685 32.3079C6.99561 31.2145 6.99236 30.1211 6.9883 29.0277C6.98416 27.9053 6.98189 26.7829 6.98134 25.6605C6.98099 25.0302 6.9798 24.4 6.97665 23.7697C6.97372 23.177 6.97309 22.5844 6.97424 21.9917C6.97426 21.774 6.97345 21.5562 6.97174 21.3385C6.96953 21.0416 6.97033 20.7449 6.97188 20.4481C6.97053 20.3615 6.96917 20.275 6.96777 20.1858C6.96881 20.1061 6.96984 20.0264 6.9709 19.9443C6.97077 19.8758 6.97064 19.8073 6.9705 19.7368C7.14188 19.1569 7.56445 18.9819 8.12425 18.9815Z" fill="#FE748F"/>
<path d="M8.17676 -0.037919C8.3282 -0.0383273 8.47964 -0.0388627 8.63108 -0.0395127C9.04385 -0.0409155 9.45661 -0.0405125 9.86938 -0.0397894C10.3159 -0.0393253 10.7624 -0.0405507 11.2088 -0.0415489C12.0823 -0.0432241 12.9557 -0.0433101 13.8291 -0.0427976C14.5394 -0.0424022 15.2497 -0.0425448 15.96 -0.043066C16.0613 -0.0431391 16.1626 -0.0432122 16.267 -0.0432875C16.4728 -0.0434371 16.6786 -0.0435873 16.8843 -0.0437382C18.8122 -0.0450773 20.74 -0.0445483 22.6679 -0.0434271C24.4292 -0.0424574 26.1906 -0.0437207 27.952 -0.0460574C29.7631 -0.048442 31.5743 -0.049377 33.3854 -0.048728C34.4012 -0.0483876 35.417 -0.0486012 36.4328 -0.0503151C37.2976 -0.051756 38.1623 -0.0518105 39.0271 -0.0501128C39.4678 -0.0492842 39.9084 -0.0490658 40.3491 -0.0505671C40.7535 -0.0519277 41.1578 -0.0514436 41.5622 -0.0495672C41.7075 -0.0492025 41.8528 -0.049478 41.9981 -0.0505058C43.2935 -0.0590091 44.5849 0.135716 45.7397 0.756776C45.8364 0.807111 45.8364 0.807111 45.9351 0.858462C46.4984 1.16106 46.9894 1.52045 47.4609 1.95307C47.5347 2.0179 47.6085 2.08273 47.6845 2.14952C49.0068 3.37867 49.5989 4.9025 50 6.64057C50 8.54193 50 10.4433 50 12.4023C33.5 12.4023 17 12.4023 0 12.4023C0 5.66756 0 5.66756 0.756836 4.26019C0.790392 4.19573 0.823948 4.13127 0.858521 4.06486C1.16112 3.50149 1.5205 3.0105 1.95312 2.539C2.01796 2.46523 2.08279 2.39147 2.14958 2.31546C3.73849 0.60614 5.8945 -0.0480467 8.17676 -0.037919Z" fill="#5C84D9"/>
<path d="M0.000199385 12.4023C2.09493 12.4023 4.18965 12.4023 6.34786 12.4023C6.19881 12.8716 6.04976 13.3409 5.8962 13.8245C4.97934 16.7473 4.26291 19.7073 3.94917 22.76C3.9369 22.8761 3.92463 22.9923 3.91198 23.1119C3.8767 23.4482 3.84192 23.7846 3.80879 24.1211C3.80048 24.1985 3.79217 24.2759 3.7836 24.3556C3.71113 25.0713 3.69388 25.7812 3.6913 26.5003C3.69047 26.686 3.69047 26.686 3.68961 26.8753C3.68869 27.1371 3.68802 27.3988 3.68768 27.6605C3.68705 28.0503 3.68371 28.44 3.68062 28.8298C3.67331 30.601 3.78716 32.3245 4.00411 34.082C4.01434 34.1654 4.02457 34.2488 4.03511 34.3347C4.08997 34.7707 4.15373 35.2046 4.22383 35.6384C4.23385 35.7012 4.24387 35.7639 4.25419 35.8285C5.01324 40.5474 6.57896 45.0301 8.66381 49.3216C8.88692 49.7845 8.88692 49.7845 8.88692 50C6.37781 50.0858 4.33831 49.6998 2.44161 47.9492C2.37287 47.8894 2.30414 47.8296 2.23332 47.768C0.943969 46.5823 0.117772 44.7735 -0.0263586 43.04C-0.0363315 42.7034 -0.0374921 42.3681 -0.0350314 42.0315C-0.0352818 41.904 -0.0355321 41.7765 -0.03579 41.6451C-0.0364386 41.295 -0.0352822 40.9449 -0.0338042 40.5948C-0.03253 40.2159 -0.0329678 39.8369 -0.0331896 39.458C-0.0333427 38.8026 -0.0324295 38.1473 -0.0307762 37.492C-0.0283875 36.5446 -0.0276314 35.5971 -0.0272641 34.6497C-0.0266241 33.1122 -0.0246777 31.5748 -0.021902 30.0373C-0.0192097 28.5445 -0.0171375 27.0517 -0.0158939 25.5589C-0.0158169 25.4667 -0.0157399 25.3746 -0.0156606 25.2797C-0.0152783 24.8174 -0.0149081 24.3552 -0.0145439 23.8929C-0.0115105 20.0627 -0.00611162 16.2325 0.000199385 12.4023Z" fill="#59C2E7"/>
<path d="M8.15334 -0.0286643C8.29384 -0.0281161 8.43434 -0.0276999 8.57484 -0.0274081C8.94008 -0.0263031 9.30529 -0.0234372 9.67051 -0.0201706C10.045 -0.0171439 10.4195 -0.0158293 10.7941 -0.0143592C11.5255 -0.0112412 12.257 -0.00625796 12.9885 -5.4054e-05C12.8821 0.169212 12.7755 0.338294 12.6688 0.507301C12.6095 0.601478 12.5501 0.695656 12.489 0.792688C12.3185 1.05336 12.1393 1.30231 11.9509 1.55024C11.3264 2.39312 10.7988 3.30369 10.2541 4.19916C10.1672 4.18368 10.0804 4.1682 9.99088 4.15224C9.30812 4.04491 8.70358 4.01033 8.08811 4.36167C7.64816 4.68455 7.25442 5.12509 7.12909 5.66401C7.03031 6.41904 7.19189 6.98697 7.61737 7.61713C7.86976 7.86885 7.86976 7.86885 8.10565 8.00776C8.03226 8.58442 7.74907 9.08683 7.50541 9.60707C7.08128 10.5274 6.72656 11.4555 6.34784 12.4023C4.25311 12.4023 2.15839 12.4023 0.0001847 12.4023C-0.00787194 11.4838 -0.0159286 10.5654 -0.0242294 9.61909C-0.0277856 9.33251 -0.0313419 9.04593 -0.0350059 8.75067C-0.0466908 7.1566 -0.0149937 5.69579 0.757021 4.2602C0.790577 4.19574 0.824133 4.13128 0.858706 4.06486C1.1613 3.5015 1.52069 3.01051 1.95331 2.53901C2.01814 2.46524 2.08297 2.39147 2.14977 2.31547C3.72978 0.615708 5.87935 -0.0551949 8.15334 -0.0286643Z" fill="#4677D4"/>
<path d="M32.4148 32.2594C33.0507 32.7705 33.435 33.4111 33.6912 34.1797C33.7977 35.4943 33.6563 36.4244 32.8245 37.4939C32.0915 38.2724 31.1349 38.5722 30.084 38.6231C29.1127 38.5929 28.3169 38.1779 27.627 37.5092C26.9233 36.7347 26.5877 35.7706 26.626 34.7206C26.7704 33.6663 27.3234 32.8217 28.1385 32.1598C29.4677 31.2188 31.1147 31.3398 32.4148 32.2594Z" fill="#E0DDDE"/>
<path d="M35.5917 31.4815C35.7427 31.4812 35.7427 31.4812 35.8967 31.481C36.0009 31.4833 36.105 31.4856 36.2124 31.488C36.3154 31.4869 36.4184 31.4859 36.5246 31.4848C37.3171 31.4922 37.8458 31.6494 38.4524 32.1594C38.9917 32.8036 39.1347 33.2204 39.1066 34.0664C39.0212 34.6669 38.7169 35.0465 38.2754 35.4431C38.02 35.6224 37.8908 35.6823 37.5979 35.7422C37.6381 35.7872 37.6784 35.8323 37.7199 35.8787C37.9089 36.0921 38.0951 36.3078 38.2815 36.5234C38.3538 36.6044 38.4262 36.6853 38.5008 36.7687C39.0413 37.3978 39.0413 37.3978 39.1421 37.8784C39.0627 38.1836 39.0627 38.1836 38.8613 38.4277C38.4763 38.6243 38.3066 38.5896 37.8908 38.4765C37.6404 38.2843 37.4422 38.0569 37.2378 37.8174C37.1836 37.7567 37.1294 37.696 37.0735 37.6335C36.7817 37.3045 36.5021 36.9671 36.2307 36.6211C36.2259 36.7152 36.2211 36.8094 36.2162 36.9064C36.2089 37.0298 36.2016 37.1531 36.1941 37.2803C36.1873 37.4026 36.1805 37.525 36.1735 37.651C36.1371 37.9541 36.1082 38.1307 35.9377 38.3789C35.5968 38.6062 35.46 38.6233 35.0588 38.5742C34.8339 38.3919 34.6996 38.2464 34.5705 37.9883C34.5591 37.8014 34.5539 37.6142 34.5517 37.427C34.5501 37.3093 34.5485 37.1917 34.5469 37.0704C34.5426 36.532 34.5385 35.9936 34.5363 35.4552C34.535 35.1709 34.5323 34.8867 34.5283 34.6025C34.5235 34.259 34.5211 33.9157 34.5204 33.5722C34.5194 33.378 34.5161 33.1839 34.5127 32.9898C34.5147 32.1157 34.5147 32.1157 34.7845 31.7069C35.084 31.5279 35.2454 31.4813 35.5917 31.4815Z" fill="#E0DDDE"/>
<path d="M16.3588 31.4813C16.4947 31.4814 16.4947 31.4814 16.6332 31.4815C16.7338 31.4813 16.8343 31.4812 16.9378 31.481C17.0424 31.4833 17.1469 31.4856 17.2547 31.488C17.3573 31.4869 17.46 31.4859 17.5657 31.4848C18.3391 31.492 18.9626 31.6201 19.5645 32.1255C20.0292 32.6993 20.2592 33.1034 20.2393 33.8539C20.1691 34.51 19.8883 34.9837 19.4336 35.4492C19.0137 35.7422 19.0137 35.7422 18.75 35.7422C18.8842 35.907 19.0185 36.0718 19.1528 36.2365C19.2325 36.3347 19.3122 36.4329 19.3943 36.5341C19.5823 36.7603 19.7757 36.9745 19.9768 37.1887C20.1708 37.4157 20.215 37.5008 20.282 37.8052C20.1896 38.1914 20.0439 38.3396 19.7266 38.5742C19.3821 38.6181 19.2091 38.6226 18.9221 38.4197C18.8552 38.3478 18.7884 38.2759 18.7195 38.2019C18.6453 38.1227 18.5712 38.0435 18.4948 37.9619C18.1123 37.5243 17.7459 37.0749 17.3828 36.6211C17.3345 36.5727 17.3345 36.5727 17.2852 36.5234C17.2831 36.6964 17.2831 36.6964 17.281 36.8728C17.2764 37.0249 17.2717 37.177 17.2669 37.3291C17.2663 37.405 17.2657 37.4809 17.2651 37.5591C17.2497 37.9593 17.2388 38.1273 16.9605 38.4323C16.6992 38.5742 16.6992 38.5742 16.3452 38.5742C15.9741 38.4642 15.9084 38.4134 15.7227 38.0859C15.6848 37.8124 15.6848 37.8124 15.6832 37.4935C15.682 37.3739 15.6807 37.2543 15.6795 37.131C15.6797 37.0022 15.68 36.8733 15.6803 36.7405C15.6799 36.6065 15.6794 36.4724 15.6788 36.3384C15.6779 36.0577 15.6781 35.7771 15.6791 35.4964C15.6802 35.1374 15.6783 34.7784 15.6754 34.4194C15.6736 34.1427 15.6736 33.866 15.6742 33.5892C15.6742 33.3927 15.6726 33.1962 15.6709 32.9997C15.6718 32.8797 15.6727 32.7598 15.6737 32.6363C15.6737 32.531 15.6737 32.4257 15.6737 32.3172C15.7462 31.894 15.9304 31.5889 16.3588 31.4813Z" fill="#E0DEDF"/>
<path d="M22.9127 31.4881C23.0654 31.4846 23.0654 31.4846 23.2213 31.481C23.9401 31.4823 24.5028 31.6152 25.0977 32.0313C25.5603 32.5171 25.8483 32.9941 25.9156 33.667C25.8959 34.2486 25.6957 34.7418 25.2953 35.165C25.0465 35.3863 24.8105 35.5928 24.5118 35.7422C24.6348 36.1931 24.8874 36.4223 25.2129 36.7355C25.539 37.063 25.8307 37.3949 25.94 37.854C25.847 38.2075 25.6782 38.3555 25.3907 38.5742C25.0977 38.6292 25.0977 38.6292 24.8048 38.5742C24.4331 38.3118 24.1594 38.0136 23.877 37.6587C23.8055 37.5693 23.734 37.4799 23.6604 37.3879C23.5868 37.296 23.5133 37.2041 23.4376 37.1094C23.2757 36.9133 23.1126 36.7184 22.9493 36.5235C22.9472 36.6841 22.9472 36.6841 22.9451 36.8481C22.9405 36.9901 22.9358 37.1322 22.931 37.2742C22.9304 37.3446 22.9299 37.415 22.9293 37.4876C22.9127 37.891 22.8806 38.0493 22.6212 38.3774C22.3634 38.5742 22.3634 38.5742 22.0643 38.6292C21.7073 38.5608 21.6094 38.4674 21.3868 38.1836C21.3372 37.902 21.3372 37.902 21.3363 37.5717C21.335 37.4479 21.3338 37.3241 21.3325 37.1965C21.3332 37.0616 21.334 36.9268 21.3349 36.792C21.3347 36.6534 21.3343 36.5147 21.3338 36.3761C21.3332 36.0858 21.334 35.7956 21.3359 35.5053C21.3381 35.1336 21.3368 34.7619 21.3345 34.3901C21.3331 34.104 21.3335 33.8178 21.3345 33.5316C21.3348 33.3945 21.3345 33.2575 21.3336 33.1204C21.3326 32.9288 21.3343 32.7371 21.3363 32.5455C21.3366 32.4365 21.3369 32.3275 21.3372 32.2152C21.486 31.3702 22.229 31.481 22.9127 31.4881Z" fill="#E0DEDF"/>
<path d="M12.0542 31.4815C12.1738 31.4813 12.2934 31.4812 12.4166 31.481C12.6028 31.4845 12.6028 31.4845 12.7928 31.488C12.9169 31.4869 13.041 31.4859 13.1689 31.4848C14.2116 31.493 14.2116 31.493 14.6482 31.9336C14.752 32.2754 14.752 32.2754 14.7459 32.6172C14.5661 32.8528 14.4233 32.9738 14.16 33.1054C14.0256 33.1136 13.8909 33.1159 13.7564 33.115C13.6777 33.1147 13.599 33.1144 13.5179 33.114C13.4357 33.1132 13.3535 33.1124 13.2688 33.1115C13.1859 33.1111 13.1029 33.1107 13.0175 33.1102C12.8124 33.1091 12.6073 33.1073 12.4022 33.1054C12.4022 33.4922 12.4022 33.8789 12.4022 34.2773C12.5081 34.2717 12.6141 34.266 12.7233 34.2602C12.8645 34.2556 13.0056 34.2511 13.1468 34.2468C13.2164 34.2427 13.286 34.2386 13.3577 34.2344C13.7496 34.2254 13.992 34.2572 14.3045 34.5051C14.5506 34.7656 14.5506 34.7656 14.6177 35.0586C14.5261 35.4582 14.3856 35.5892 14.0623 35.8398C13.7725 35.8978 13.4957 35.8864 13.2017 35.8703C13.1247 35.8681 13.0478 35.8659 12.9684 35.8637C12.7796 35.8579 12.5908 35.8492 12.4022 35.8398C12.4022 36.2588 12.4022 36.6777 12.4022 37.1094C12.5386 37.1037 12.6751 37.098 12.8157 37.0922C12.9952 37.0876 13.1748 37.0832 13.3543 37.0788C13.4442 37.0747 13.5341 37.0707 13.6267 37.0664C14.2943 37.0543 14.2943 37.0543 14.6105 37.3398C14.7614 37.6272 14.8031 37.7672 14.7459 38.0859C14.57 38.3875 14.4974 38.4617 14.16 38.5742C13.7566 38.5985 13.3533 38.6006 12.9493 38.603C12.8166 38.6041 12.684 38.6061 12.5513 38.609C12.3593 38.6132 12.1673 38.6145 11.9753 38.6158C11.8605 38.6172 11.7458 38.6186 11.6276 38.6201C11.2567 38.5633 11.166 38.4761 10.9373 38.1836C10.887 37.9063 10.887 37.9063 10.8852 37.5822C10.8837 37.4606 10.8821 37.3391 10.8805 37.2138C10.8809 37.0815 10.8814 36.9491 10.882 36.8168C10.8815 36.6806 10.8809 36.5443 10.8802 36.4081C10.8791 36.1229 10.8796 35.8376 10.881 35.5524C10.8827 35.1874 10.8804 34.8226 10.877 34.4576C10.8748 34.1763 10.875 33.8951 10.8758 33.6139C10.8758 33.4793 10.8752 33.3448 10.8737 33.2103C10.872 33.022 10.8738 32.8336 10.8757 32.6452C10.8758 32.5382 10.8759 32.4312 10.876 32.3209C11.0121 31.6782 11.4429 31.4811 12.0542 31.4815Z" fill="#E0DEDE"/>
<path d="M26.0072 4.21138C26.6239 4.5565 26.9747 4.98196 27.1962 5.65791C27.363 6.33022 27.24 6.79038 26.9173 7.38864C26.606 7.83486 26.1973 8.12954 25.6837 8.30073C24.8892 8.38141 24.2544 8.39006 23.6104 7.88226C23.3723 7.65154 23.2026 7.42143 23.047 7.12886C23.0067 7.05434 22.9664 6.97981 22.9249 6.90303C22.7259 6.19012 22.8403 5.6467 23.1946 5.00293C23.8508 4.01941 24.9486 3.72231 26.0072 4.21138Z" fill="#FCFDFE"/>
<path d="M10.4227 4.33231C10.8327 4.62803 11.1036 5.02016 11.3279 5.46871C11.4072 6.28087 11.4394 6.97839 10.9102 7.6427C10.4049 8.15256 9.926 8.31723 9.20996 8.33736C8.57683 8.33279 8.18223 8.24221 7.7146 7.81246C7.24826 7.33351 7.01771 6.81996 6.98828 6.1584C7.0112 5.5534 7.18858 5.12944 7.60435 4.68936C8.47138 3.89446 9.37135 3.75451 10.4227 4.33231Z" fill="#FC7490"/>
<path d="M18.0969 4.21145C18.6352 4.50976 19.006 4.89009 19.2382 5.46878C19.3099 6.14517 19.345 6.8534 18.9853 7.4528C18.5848 7.93099 18.1032 8.26732 17.4766 8.33095C16.7627 8.35661 16.2715 8.33284 15.7001 7.88234C15.462 7.65161 15.2923 7.42151 15.1367 7.12893C15.0964 7.05642 15.0561 6.98391 15.0146 6.90921C14.8491 6.30243 14.8561 5.75806 15.1489 5.19412C15.8185 4.12462 16.9251 3.67008 18.0969 4.21145Z" fill="#8FD1F0"/>
<path d="M22.6441 26.5136C23.0573 26.7119 23.3935 26.7393 23.8335 26.5937C23.9043 26.5673 23.975 26.5409 24.0479 26.5136C24.6631 26.2932 25.348 26.2291 25.9522 26.5136C26.3238 26.6851 26.5478 26.7035 26.9532 26.6601C27.0519 26.6118 27.1506 26.5634 27.2522 26.5136C27.7973 26.2571 28.419 26.2925 29.004 26.3671C29.3461 26.5079 29.6216 26.6918 29.8829 26.9531C29.9181 27.3261 29.9356 27.5543 29.7303 27.8747C29.4089 28.0807 29.1833 28.062 28.8086 28.0273C28.7442 27.9951 28.6797 27.9628 28.6133 27.9296C28.2585 27.8966 28.061 27.9125 27.7405 28.0761C27.1757 28.3421 26.4853 28.2893 25.879 28.2226C25.5585 28.0761 25.5585 28.0761 25.293 27.9296C24.9289 27.8831 24.7489 27.9083 24.4202 28.0761C23.8554 28.3421 23.165 28.2893 22.5586 28.2226C22.3604 28.131 22.1644 28.0341 21.9727 27.9296C21.5666 27.8975 21.5666 27.8975 21.1915 28.0273C20.8168 28.062 20.5912 28.0807 20.2698 27.8747C20.054 27.538 20.0484 27.3455 20.1172 26.9531C20.6897 26.2514 21.846 26.1273 22.6441 26.5136Z" fill="#443E4F"/>
<path d="M30.8591 33.1055C31.4595 33.326 31.8462 33.7494 32.1531 34.3018C32.3326 34.9601 32.2609 35.5217 31.9597 36.1317C31.6703 36.5902 31.2722 36.841 30.7615 37.0117C30.0395 37.0963 29.4868 37.0715 28.906 36.6211C28.44 36.1551 28.1943 35.7454 28.1797 35.083C28.192 34.4092 28.3897 34.0053 28.8667 33.5388C29.4842 33.0048 30.0649 33.028 30.8591 33.1055Z" fill="#FE758F"/>
<path d="M32.129 22.8516C32.4161 23.0542 32.6644 23.2848 32.9103 23.5352C33.1921 23.4085 33.3126 23.3262 33.5206 23.0835C33.7942 22.8472 33.8472 22.8123 34.1859 22.7966C34.5704 22.8516 34.5704 22.8516 34.8146 23.0103C35.005 23.3118 34.9995 23.4754 34.961 23.8281C34.7901 24.0776 34.7901 24.0776 34.5704 24.3042C34.4979 24.3805 34.4254 24.4568 34.3507 24.5354C34.2661 24.6203 34.2661 24.6203 34.1798 24.707C34.2198 24.753 34.2599 24.7989 34.3011 24.8463C34.3537 24.9071 34.4063 24.9679 34.4606 25.0305C34.5127 25.0906 34.5648 25.1506 34.6185 25.2125C34.9639 25.6304 34.9639 25.6304 34.9427 26.0254C34.8634 26.3672 34.8634 26.3672 34.7596 26.5564C34.4382 26.7326 34.1361 26.7526 33.7892 26.6602C33.5252 26.4607 33.3144 26.2324 33.1056 25.9766C32.8269 26.1043 32.6714 26.2125 32.4403 26.4282C32.129 26.6602 32.129 26.6602 31.775 26.7151C31.4454 26.6602 31.4454 26.6602 31.2074 26.5076C30.9843 26.1595 30.9733 25.9935 31.0548 25.5859C31.2894 25.2947 31.5528 25.0481 31.836 24.8047C31.796 24.7587 31.756 24.7128 31.7147 24.6655C31.6621 24.6046 31.6095 24.5438 31.5553 24.4812C31.5032 24.4212 31.451 24.3611 31.3974 24.2992C31.1854 24.0428 31.0609 23.8758 31.0182 23.5413C31.0548 23.2422 31.0548 23.2422 31.2074 23.0103C31.5511 22.7811 31.7219 22.7769 32.129 22.8516Z" fill="#453E50"/>
<path d="M16.0053 22.7924C16.4008 22.9061 16.6416 23.2252 16.8945 23.5351C17.1732 23.4074 17.3287 23.2992 17.5598 23.0835C17.8711 22.8515 17.8711 22.8515 18.2251 22.7966C18.5547 22.8515 18.5547 22.8515 18.7927 23.0102C18.9453 23.2422 18.9453 23.2422 19.0125 23.5107C18.9235 23.9313 18.7095 24.1305 18.4113 24.4304C18.2304 24.608 18.2304 24.608 18.2617 24.9023C18.4132 25.0634 18.4132 25.0634 18.6035 25.2197C18.8793 25.4843 18.9394 25.5544 19.0125 25.946C18.9453 26.2695 18.9453 26.2695 18.7927 26.5075C18.4478 26.7286 18.2753 26.7342 17.8711 26.6601C17.584 26.4575 17.3357 26.2269 17.0898 25.9765C16.8111 26.1043 16.6557 26.2125 16.4246 26.4282C16.1133 26.6601 16.1133 26.6601 15.7593 26.7212C15.4297 26.6601 15.4297 26.6601 15.1855 26.4587C15.0391 26.1718 15.0391 26.1718 15.0208 25.8423C15.1756 25.3696 15.4493 25.1234 15.8203 24.8047C15.7803 24.7587 15.7402 24.7128 15.699 24.6654C15.6464 24.6046 15.5938 24.5438 15.5396 24.4812C15.4874 24.4211 15.4353 24.3611 15.3816 24.2992C15.1697 24.0428 15.0451 23.8758 15.0024 23.5412C15.0391 23.2422 15.0391 23.2422 15.1855 23.0102C15.4605 22.8315 15.6765 22.7795 16.0053 22.7924Z" fill="#453E50"/>
<path d="M17.1875 33.0078C18.0699 32.9607 18.0699 32.9607 18.4692 33.1604C18.6523 33.3984 18.6523 33.3984 18.7073 33.7463C18.6523 34.082 18.6523 34.082 18.4887 34.2483C18.0774 34.4778 17.6488 34.3915 17.1875 34.375C17.1875 33.9238 17.1875 33.4726 17.1875 33.0078Z" fill="#FD7A93"/>
<path d="M22.8516 33.0078C23.7373 32.9606 23.7373 32.9606 24.1333 33.1665C24.3164 33.3984 24.3164 33.3984 24.3713 33.6914C24.3164 33.9844 24.3164 33.9844 24.1882 34.2163C23.7589 34.4759 23.346 34.3986 22.8516 34.375C22.8516 33.9238 22.8516 33.4727 22.8516 33.0078Z" fill="#FD7892"/>
<path d="M36.1328 33.0079C36.9131 32.9729 36.9131 32.9729 37.3047 33.1116C37.5 33.3008 37.5 33.3008 37.6038 33.6365C37.5977 33.9844 37.5977 33.9844 37.4756 34.2225C37.0394 34.4703 36.6282 34.3986 36.1328 34.375C36.1328 33.9239 36.1328 33.4727 36.1328 33.0079Z" fill="#FD7791"/>
</g>
<defs>
<clipPath id="clip0_707_51">
<rect width="50" height="50" fill="white"/>
</clipPath>
</defs>
</svg>
