<svg width="50" height="50" viewBox="0 0 50 50" fill="none" xmlns="http://www.w3.org/2000/svg">
<path d="M33.9937 8.17291C36.7187 8.17291 39.0264 9.21736 40.9167 11.3062C42.8069 13.3951 43.7514 15.916 43.75 18.8687C43.75 19.7354 43.6556 20.5993 43.4667 21.4604C43.2778 22.3215 42.9757 23.1542 42.5604 23.9583H31.7833L28.0542 18.1667H26.1062L22.6125 28.8458L19.2833 23.9583H7.4375C7.02361 23.1542 6.72153 22.3278 6.53125 21.4792C6.34375 20.6319 6.25 19.7799 6.25 18.9229C6.25 15.9326 7.18611 13.3937 9.05833 11.3062C10.9306 9.21875 13.2292 8.1743 15.9542 8.17291C17.3792 8.17291 18.75 8.46319 20.0667 9.04375C21.3819 9.62291 22.559 10.4625 23.5979 11.5625L25 13.0458L26.3229 11.6437C27.3799 10.516 28.5729 9.65555 29.9021 9.0625C31.2312 8.46944 32.5951 8.17291 33.9937 8.17291ZM24.9479 42.7646L9.99167 27.7042C9.73056 27.4431 9.47917 27.1743 9.2375 26.8979C8.99722 26.6243 8.77708 26.3389 8.57708 26.0417H18.1667L22 31.8062H23.9375L27.3896 21.075L30.7062 26.0417H41.4125C41.2125 26.3306 40.9924 26.6125 40.7521 26.8875C40.5118 27.1625 40.2646 27.4305 40.0104 27.6917L24.9479 42.7646Z" fill="#FC66C2"/>
</svg>
