<svg width="50" height="50" viewBox="0 0 50 50" fill="none" xmlns="http://www.w3.org/2000/svg">
<path d="M6.3234 27.5246C6.43563 27.5239 6.54786 27.5232 6.66349 27.5225C6.84689 27.5221 6.84689 27.5221 7.03399 27.5217C7.16478 27.521 7.29556 27.5204 7.42635 27.5197C7.85511 27.5177 8.28388 27.5166 8.71265 27.5157C8.86078 27.5153 9.00891 27.5149 9.15704 27.5145C9.8535 27.5126 10.55 27.5112 11.2464 27.5104C12.0477 27.5095 12.8488 27.5069 13.6501 27.5029C14.271 27.5 14.892 27.4985 15.5129 27.4982C15.883 27.498 16.253 27.4971 16.6231 27.4947C16.9719 27.4924 17.3207 27.492 17.6696 27.493C17.8565 27.493 18.0435 27.4912 18.2304 27.4893C19.5165 27.4969 20.5426 27.8029 21.4743 28.6925C22.176 29.4267 22.4709 30.3178 22.4752 31.3234C22.4762 31.4917 22.4762 31.4917 22.4773 31.6635C22.4776 31.7858 22.4778 31.908 22.4781 32.034C22.4787 32.1648 22.4794 32.2956 22.48 32.4263C22.4821 32.8551 22.4831 33.2839 22.4841 33.7127C22.4845 33.8608 22.4849 34.0089 22.4853 34.157C22.4872 34.8535 22.4885 35.55 22.4894 36.2464C22.4903 37.0477 22.4929 37.8488 22.4968 38.6501C22.4998 39.271 22.5012 39.892 22.5015 40.5129C22.5018 40.883 22.5026 41.253 22.5051 41.6231C22.5074 41.9719 22.5078 42.3207 22.5068 42.6696C22.5067 42.8565 22.5086 43.0435 22.5105 43.2304C22.5029 44.5165 22.1968 45.5426 21.3073 46.4743C20.5731 47.176 19.682 47.4709 18.6764 47.4752C18.508 47.4762 18.508 47.4762 18.3363 47.4773C18.214 47.4776 18.0917 47.4778 17.9658 47.4781C17.835 47.4787 17.7042 47.4794 17.5734 47.48C17.1447 47.4821 16.7159 47.4831 16.2871 47.4841C16.139 47.4845 15.9909 47.4849 15.8427 47.4853C15.1463 47.4872 14.4498 47.4885 13.7533 47.4894C12.9521 47.4903 12.1509 47.4929 11.3497 47.4968C10.7288 47.4998 10.1078 47.5012 9.48683 47.5015C9.11678 47.5018 8.74675 47.5026 8.37671 47.5051C8.02785 47.5074 7.67905 47.5078 7.33019 47.5068C7.14325 47.5067 6.9563 47.5086 6.76937 47.5105C5.48325 47.5029 4.45719 47.1968 3.52542 46.3073C2.82379 45.5731 2.52889 44.682 2.52457 43.6764C2.52387 43.5641 2.52317 43.4519 2.52245 43.3363C2.52219 43.214 2.52193 43.0917 2.52166 42.9658C2.52105 42.835 2.5204 42.7042 2.51971 42.5734C2.51767 42.1447 2.51665 41.7159 2.51567 41.2871C2.51528 41.139 2.51488 40.9909 2.51447 40.8427C2.51261 40.1463 2.51122 39.4498 2.5104 38.7533C2.50945 37.9521 2.50689 37.1509 2.50293 36.3497C2.49998 35.7288 2.49854 35.1078 2.49822 34.4868C2.49799 34.1168 2.49713 33.7468 2.49466 33.3767C2.49236 33.0279 2.49198 32.679 2.49298 32.3302C2.49305 32.1432 2.4912 31.9563 2.48926 31.7694C2.49688 30.4832 2.80292 29.4572 3.69251 28.5254C4.42671 27.8238 5.31775 27.5289 6.3234 27.5246Z" fill="#4FB9AF"/>
<path d="M31.3234 2.52457C31.4356 2.52387 31.5479 2.52317 31.6635 2.52245C31.8469 2.52206 31.8469 2.52206 32.034 2.52166C32.1648 2.52105 32.2956 2.5204 32.4263 2.51971C32.8551 2.51767 33.2839 2.51665 33.7127 2.51567C33.8608 2.51528 34.0089 2.51488 34.157 2.51447C34.8535 2.51261 35.55 2.51122 36.2464 2.5104C37.0477 2.50945 37.8488 2.50689 38.6501 2.50293C39.271 2.49998 39.892 2.49854 40.5129 2.49822C40.883 2.49799 41.253 2.49713 41.6231 2.49466C41.9719 2.49236 42.3207 2.49198 42.6696 2.49298C42.8565 2.49305 43.0435 2.4912 43.2304 2.48926C44.5165 2.49688 45.5426 2.80292 46.4743 3.69251C47.176 4.42671 47.4709 5.31775 47.4752 6.3234C47.4762 6.49174 47.4762 6.49174 47.4773 6.66349C47.4776 6.78576 47.4778 6.90802 47.4781 7.03399C47.4787 7.16478 47.4794 7.29556 47.48 7.42635C47.4821 7.85511 47.4831 8.28388 47.4841 8.71265C47.4845 8.86078 47.4849 9.00891 47.4853 9.15704C47.4872 9.8535 47.4885 10.55 47.4894 11.2464C47.4903 12.0477 47.4929 12.8488 47.4968 13.6501C47.4998 14.271 47.5012 14.892 47.5015 15.5129C47.5018 15.883 47.5026 16.253 47.5051 16.6231C47.5074 16.9719 47.5078 17.3207 47.5068 17.6696C47.5067 17.8565 47.5086 18.0435 47.5105 18.2304C47.5029 19.5165 47.1968 20.5426 46.3073 21.4743C45.5731 22.176 44.682 22.4709 43.6764 22.4752C43.508 22.4762 43.508 22.4762 43.3363 22.4773C43.214 22.4776 43.0917 22.4778 42.9658 22.4781C42.835 22.4787 42.7042 22.4794 42.5734 22.48C42.1447 22.4821 41.7159 22.4831 41.2871 22.4841C41.139 22.4845 40.9909 22.4849 40.8427 22.4853C40.1463 22.4872 39.4498 22.4885 38.7533 22.4894C37.9521 22.4903 37.1509 22.4929 36.3497 22.4968C35.7288 22.4998 35.1078 22.5012 34.4868 22.5015C34.1168 22.5018 33.7468 22.5026 33.3767 22.5051C33.0279 22.5074 32.679 22.5078 32.3302 22.5068C32.1432 22.5067 31.9563 22.5086 31.7694 22.5105C30.4832 22.5029 29.4572 22.1968 28.5254 21.3073C27.8238 20.5731 27.5289 19.682 27.5246 18.6764C27.5239 18.5641 27.5232 18.4519 27.5225 18.3363C27.5222 18.214 27.5219 18.0917 27.5217 17.9658C27.521 17.835 27.5204 17.7042 27.5197 17.5734C27.5177 17.1447 27.5166 16.7159 27.5157 16.2871C27.5153 16.139 27.5149 15.9909 27.5145 15.8427C27.5126 15.1463 27.5112 14.4498 27.5104 13.7533C27.5095 12.9521 27.5069 12.1509 27.5029 11.3497C27.5 10.7288 27.4985 10.1078 27.4982 9.48683C27.498 9.11678 27.4971 8.74675 27.4947 8.37671C27.4924 8.02785 27.492 7.67905 27.493 7.33019C27.493 7.14325 27.4912 6.9563 27.4893 6.76937C27.4969 5.48325 27.8029 4.45719 28.6925 3.52542C29.4267 2.82379 30.3178 2.52889 31.3234 2.52457Z" fill="#4FB9AF"/>
<path d="M6.3234 2.52457C6.43563 2.52387 6.54786 2.52317 6.66349 2.52245C6.84689 2.52206 6.84689 2.52206 7.03399 2.52166C7.16478 2.52105 7.29556 2.5204 7.42635 2.51971C7.85511 2.51767 8.28388 2.51665 8.71265 2.51567C8.86078 2.51528 9.00891 2.51488 9.15704 2.51447C9.8535 2.51261 10.55 2.51122 11.2464 2.5104C12.0477 2.50945 12.8488 2.50689 13.6501 2.50293C14.271 2.49998 14.892 2.49854 15.5129 2.49822C15.883 2.49799 16.253 2.49713 16.6231 2.49466C16.9719 2.49236 17.3207 2.49198 17.6696 2.49298C17.8565 2.49305 18.0435 2.4912 18.2304 2.48926C19.5165 2.49688 20.5426 2.80292 21.4743 3.69251C22.176 4.42671 22.4709 5.31775 22.4752 6.3234C22.4762 6.49174 22.4762 6.49174 22.4773 6.66349C22.4776 6.78576 22.4778 6.90802 22.4781 7.03399C22.4787 7.16478 22.4794 7.29556 22.48 7.42635C22.4821 7.85511 22.4831 8.28388 22.4841 8.71265C22.4845 8.86078 22.4849 9.00891 22.4853 9.15704C22.4872 9.8535 22.4885 10.55 22.4894 11.2464C22.4903 12.0477 22.4929 12.8488 22.4968 13.6501C22.4998 14.271 22.5012 14.892 22.5015 15.5129C22.5018 15.883 22.5026 16.253 22.5051 16.6231C22.5074 16.9719 22.5078 17.3207 22.5068 17.6696C22.5067 17.8565 22.5086 18.0435 22.5105 18.2304C22.5029 19.5165 22.1968 20.5426 21.3073 21.4743C20.5731 22.176 19.682 22.4709 18.6764 22.4752C18.508 22.4762 18.508 22.4762 18.3363 22.4773C18.214 22.4776 18.0917 22.4778 17.9658 22.4781C17.835 22.4787 17.7042 22.4794 17.5734 22.48C17.1447 22.4821 16.7159 22.4831 16.2871 22.4841C16.139 22.4845 15.9909 22.4849 15.8427 22.4853C15.1463 22.4872 14.4498 22.4885 13.7533 22.4894C12.9521 22.4903 12.1509 22.4929 11.3497 22.4968C10.7288 22.4998 10.1078 22.5012 9.48683 22.5015C9.11678 22.5018 8.74675 22.5026 8.37671 22.5051C8.02785 22.5074 7.67905 22.5078 7.33019 22.5068C7.14325 22.5067 6.9563 22.5086 6.76937 22.5105C5.48325 22.5029 4.45719 22.1968 3.52542 21.3073C2.82379 20.5731 2.52889 19.682 2.52457 18.6764C2.52387 18.5641 2.52317 18.4519 2.52245 18.3363C2.52219 18.214 2.52193 18.0917 2.52166 17.9658C2.52105 17.835 2.5204 17.7042 2.51971 17.5734C2.51767 17.1447 2.51665 16.7159 2.51567 16.2871C2.51528 16.139 2.51488 15.9909 2.51447 15.8427C2.51261 15.1463 2.51122 14.4498 2.5104 13.7533C2.50945 12.9521 2.50689 12.1509 2.50293 11.3497C2.49998 10.7288 2.49854 10.1078 2.49822 9.48683C2.49799 9.11678 2.49713 8.74675 2.49466 8.37671C2.49236 8.02785 2.49198 7.67905 2.49298 7.33019C2.49305 7.14325 2.4912 6.9563 2.48926 6.76937C2.49688 5.48325 2.80292 4.45719 3.69251 3.52542C4.42671 2.82379 5.31775 2.52889 6.3234 2.52457Z" fill="#4FB9AF"/>
<path d="M39.3559 26.9533C39.9605 27.3687 40.4896 27.8626 41.0066 28.3803C41.0782 28.4512 41.1497 28.5222 41.2235 28.5952C41.4574 28.8273 41.6905 29.06 41.9236 29.2929C42.0873 29.456 42.251 29.619 42.4148 29.7821C42.7568 30.123 43.0985 30.4643 43.4399 30.8058C43.8759 31.2418 44.3133 31.6765 44.751 32.1109C45.0892 32.4469 45.4266 32.7839 45.7636 33.1211C45.9245 33.2817 46.0856 33.442 46.2471 33.6019C46.4733 33.8262 46.6982 34.0516 46.9228 34.2774C46.9887 34.3423 47.0546 34.4071 47.1225 34.4739C48.0453 35.4088 48.4806 36.3612 48.4734 37.6824C48.4363 39.1179 47.5914 40.0366 46.6203 41.0063C46.5494 41.0779 46.4785 41.1495 46.4054 41.2232C46.1734 41.4571 45.9406 41.6903 45.7078 41.9233C45.5447 42.087 45.3816 42.2508 45.2185 42.4145C44.8776 42.7566 44.5363 43.0982 44.1948 43.4396C43.7588 43.8757 43.3241 44.313 42.8897 44.7508C42.5537 45.089 42.2167 45.4263 41.8795 45.7634C41.7189 45.9242 41.5587 46.0854 41.3987 46.2468C41.1744 46.473 40.949 46.6979 40.7232 46.9226C40.6583 46.9885 40.5935 47.0544 40.5267 47.1223C39.5918 48.0451 38.6394 48.4803 37.3183 48.4732C35.8827 48.436 34.964 47.5911 33.9943 46.62C33.9227 46.5491 33.8511 46.4782 33.7774 46.4051C33.5435 46.1731 33.3104 45.9403 33.0773 45.7075C32.9136 45.5444 32.7498 45.3813 32.5861 45.2182C32.244 44.8774 31.9024 44.5361 31.561 44.1946C31.1249 43.7585 30.6876 43.3238 30.2498 42.8894C29.9116 42.5534 29.5743 42.2165 29.2372 41.8793C29.0764 41.7187 28.9152 41.5584 28.7538 41.3984C28.5276 41.1742 28.3027 40.9487 28.0781 40.7229C28.0121 40.6581 27.9462 40.5933 27.8783 40.5265C26.9556 39.5915 26.5203 38.6392 26.5274 37.318C26.5646 35.8824 27.4095 34.9638 28.3806 33.994C28.4515 33.9224 28.5224 33.8509 28.5955 33.7771C28.8275 33.5432 29.0603 33.3101 29.2931 33.077C29.4562 32.9133 29.6193 32.7496 29.7824 32.5858C30.1232 32.2438 30.4645 31.9021 30.806 31.5607C31.2421 31.1247 31.6768 30.6873 32.1112 30.2496C32.4472 29.9114 32.7841 29.574 33.1213 29.237C33.2819 29.0761 33.4422 28.915 33.6022 28.7535C33.8264 28.5273 34.0519 28.3024 34.2777 28.0778C34.3425 28.0119 34.4073 27.946 34.4741 27.8781C35.796 26.5734 37.6517 26.0712 39.3559 26.9533Z" fill="#4FB9AF"/>
</svg>
