<svg width="50" height="50" viewBox="0 0 50 50" fill="none" xmlns="http://www.w3.org/2000/svg">
<path d="M39.3752 43.75L27.9689 32.3438L32.3439 27.9688L43.7502 39.375L39.3752 43.75ZM10.6252 43.75L6.25016 39.375L20.6252 25L17.0835 21.4584L15.6252 22.9167L12.9689 20.2604V24.5313L11.5106 25.9896L5.2085 19.6875L6.66683 18.2292H10.9377L8.3335 15.625L15.7293 8.22919C16.4238 7.53475 17.1703 7.03127 17.9689 6.71877C18.7675 6.40627 19.5835 6.25002 20.4168 6.25002C21.2502 6.25002 22.0661 6.40627 22.8647 6.71877C23.6634 7.03127 24.4099 7.53475 25.1043 8.22919L20.3127 13.0209L22.9168 15.625L21.4585 17.0834L25.0002 20.625L29.6877 15.9375C29.5488 15.5556 29.4363 15.1563 29.3502 14.7396C29.2641 14.3229 29.2203 13.9063 29.2189 13.4896C29.2189 11.441 29.9224 9.71322 31.3293 8.30627C32.7363 6.89933 34.4634 6.19655 36.5106 6.19794C37.0314 6.19794 37.5266 6.25002 37.996 6.35419C38.4654 6.45836 38.9425 6.61461 39.4272 6.82294L34.271 11.9792L38.021 15.7292L43.1772 10.5729C43.4203 11.0591 43.5856 11.5361 43.6731 12.0042C43.7606 12.4722 43.8036 12.9674 43.8022 13.4896C43.8022 15.5382 43.0995 17.266 41.6939 18.6729C40.2884 20.0799 38.5606 20.7827 36.5106 20.7813C36.0939 20.7813 35.6772 20.7466 35.2606 20.6771C34.8439 20.6077 34.4446 20.4861 34.0627 20.3125L10.6252 43.75Z" fill="#5271FE"/>
</svg>
