<svg width="50" height="50" viewBox="0 0 50 50" fill="none" xmlns="http://www.w3.org/2000/svg">
<path fill-rule="evenodd" clip-rule="evenodd" d="M25 6.11877L45.3125 14.5844V29.6875H42.1875V18.1531L40.625 18.9344V37.0563L39.5687 37.4156L39.5594 37.4188L39.5375 37.425L39.4563 37.4563L39.15 37.5563C37.5411 38.0831 35.9187 38.5676 34.2844 39.0094C31.3844 39.7906 27.6906 40.625 25.0031 40.625C22.3156 40.625 18.6156 39.7875 15.7188 39.0094C13.9796 38.5389 12.2539 38.0199 10.5438 37.4531L10.4625 37.425L10.4406 37.4188H10.4375L10.9375 35.9375L10.4375 37.4156L9.375 37.0531V18.9375L2.5 15.5L25 6.11877ZM12.5 20.5V34.8094C13.8344 35.2363 15.1785 35.6323 16.5312 35.9969C19.4344 36.7781 22.7687 37.5032 25 37.5032C27.2312 37.5032 30.5656 36.7781 33.4687 35.9938C34.8212 35.6281 36.1653 35.2322 37.5 34.8063V20.5L25 26.75L12.5 20.5Z" fill="#FE914C"/>
</svg>
