<svg width="50" height="50" viewBox="0 0 50 50" fill="none" xmlns="http://www.w3.org/2000/svg">
<path d="M6.25 43.75V14.5833H14.5833V6.25H35.4167V22.9167H43.75V43.75H27.0833V35.4167H22.9167V43.75H6.25ZM10.4167 39.5833H14.5833V35.4167H10.4167V39.5833ZM10.4167 31.25H14.5833V27.0833H10.4167V31.25ZM10.4167 22.9167H14.5833V18.75H10.4167V22.9167ZM18.75 31.25H22.9167V27.0833H18.75V31.25ZM18.75 22.9167H22.9167V18.75H18.75V22.9167ZM18.75 14.5833H22.9167V10.4167H18.75V14.5833ZM27.0833 31.25H31.25V27.0833H27.0833V31.25ZM27.0833 22.9167H31.25V18.75H27.0833V22.9167ZM27.0833 14.5833H31.25V10.4167H27.0833V14.5833ZM35.4167 39.5833H39.5833V35.4167H35.4167V39.5833ZM35.4167 31.25H39.5833V27.0833H35.4167V31.25Z" fill="#7FD758"/>
</svg>
