<svg width="50" height="50" viewBox="0 0 50 50" fill="none" xmlns="http://www.w3.org/2000/svg">
<g clip-path="url(#clip0_795_2)">
<path d="M6.207 -0.013212C6.2727 -0.0134417 6.3384 -0.0136714 6.40609 -0.013908C6.62782 -0.0145619 6.84954 -0.0145166 7.07127 -0.0144766C7.23122 -0.0147987 7.39116 -0.0151625 7.55111 -0.0155646C7.9919 -0.0165443 8.43269 -0.0169063 8.87347 -0.0171652C9.34839 -0.017546 9.82331 -0.0184814 10.2982 -0.0193344C11.4458 -0.0212655 12.5934 -0.0222477 13.741 -0.0231164C14.2812 -0.0235443 14.8214 -0.0240684 15.3616 -0.0245801C17.157 -0.0262416 18.9525 -0.0276571 20.7479 -0.0283642C21.214 -0.0285507 21.68 -0.0287383 22.1461 -0.0289292C22.2619 -0.0289765 22.3778 -0.0290237 22.4971 -0.0290724C24.3739 -0.0298831 26.2508 -0.0323575 28.1276 -0.0355289C30.0538 -0.0387573 31.98 -0.0405173 33.9063 -0.0408295C34.988 -0.041041 36.0698 -0.0418971 37.1516 -0.0443901C38.0728 -0.0465083 38.9941 -0.0472969 39.9153 -0.0463465C40.3853 -0.0459022 40.8554 -0.0460906 41.3254 -0.0479833C41.7559 -0.0497018 42.1863 -0.0496105 42.6168 -0.048091C42.7724 -0.0478585 42.928 -0.0482839 43.0835 -0.0494415C44.1694 -0.0570204 45.0172 0.0483703 45.8427 0.802889C46.4457 1.48538 46.5962 2.15994 46.5993 3.04579C46.6 3.12619 46.6006 3.20659 46.6013 3.28943C46.6032 3.55528 46.6043 3.82111 46.6053 4.08696C46.6057 4.17804 46.6061 4.26912 46.6065 4.36296C46.6085 4.84531 46.6099 5.32766 46.6109 5.81001C46.6119 6.30649 46.6153 6.80293 46.6192 7.2994C46.6217 7.68262 46.6225 8.06582 46.6229 8.44905C46.6234 8.63195 46.6245 8.81486 46.6263 8.99776C46.6371 10.1574 46.6472 11.2524 45.7943 12.1478C45.0499 12.7659 44.2905 12.9898 43.3292 12.9474C42.6037 12.833 41.9645 12.522 41.4551 11.9872C40.1631 10.0493 40.8203 8.32254 40.8203 5.76161C27.0918 5.80995 27.0918 5.80995 13.0859 5.85927C13.4727 6.24599 13.8594 6.63271 14.2578 7.03115C14.6267 7.4458 14.6267 7.4458 14.7846 7.63077C15.0721 7.96379 15.3772 8.28054 15.6799 8.59975C15.8179 8.74583 15.9559 8.89193 16.0938 9.03806C16.1625 9.11077 16.2312 9.18349 16.302 9.2584C17.0733 10.0763 17.8381 10.9003 18.5998 11.7271C19.0316 12.1955 19.4664 12.6611 19.9015 13.1265C20.2658 13.5165 20.6285 13.9078 20.99 14.3004C21.4288 14.777 21.871 15.2503 22.3145 15.7226C22.8056 16.2455 23.2945 16.7705 23.7804 17.2984C24.1527 17.7025 24.5272 18.1044 24.9023 18.5058C25.327 18.9601 25.7505 19.4155 26.1719 19.8729C26.5324 20.2642 26.8939 20.6545 27.257 21.0434C27.3717 21.1663 27.4863 21.2894 27.6007 21.4127C27.8949 21.7291 28.1919 22.0419 28.495 22.3498C29.3041 23.1784 30.1281 24.0472 30.1857 25.2719C30.1047 27.0376 28.7405 28.1115 27.559 29.2733C27.2321 29.5961 26.9147 29.921 26.6151 30.2695C26.1607 30.7976 25.6597 31.2783 25.1633 31.7664C24.8202 32.106 24.4846 32.4462 24.1699 32.8124C23.717 33.3394 23.217 33.8186 22.7219 34.3055C22.3788 34.6451 22.0432 34.9852 21.7285 35.3515C21.2756 35.8785 20.7756 36.3577 20.2805 36.8445C19.9374 37.1841 19.6018 37.5243 19.2871 37.8905C18.8342 38.4175 18.3342 38.8967 17.8391 39.3836C17.497 39.7222 17.1623 40.0612 16.8488 40.4265C16.3757 40.977 15.8516 41.4768 15.3347 41.9856C14.9218 42.3946 14.5221 42.8065 14.1485 43.2519C13.8724 43.5602 13.5739 43.8478 13.2813 44.1405C22.3691 44.1727 31.457 44.205 40.8203 44.2382C40.8203 43.1747 40.8203 42.1112 40.8203 41.0155C41.3161 39.8999 41.7277 39.3133 42.8711 38.8671C43.6947 38.6219 44.457 38.7789 45.2148 39.16C45.9014 39.6342 46.3537 40.2073 46.582 41.0155C46.6082 41.3352 46.6082 41.3352 46.6104 41.6851C46.6111 41.7493 46.6117 41.8136 46.6124 41.8798C46.6142 42.0906 46.6146 42.3015 46.6148 42.5124C46.6155 42.6603 46.6161 42.8082 46.6168 42.9561C46.618 43.2657 46.6183 43.5753 46.6182 43.885C46.6182 44.2794 46.6209 44.6738 46.6242 45.0683C46.6264 45.3737 46.6268 45.6792 46.6267 45.9847C46.6269 46.13 46.6278 46.2753 46.6293 46.4206C46.6396 47.5 46.5418 48.4414 45.7794 49.264C45.1866 49.775 44.5682 50.0118 43.793 50.013C43.6945 50.0133 43.6945 50.0133 43.5939 50.0137C43.3722 50.0144 43.1505 50.0143 42.9287 50.0143C42.7688 50.0146 42.6088 50.015 42.4489 50.0154C42.0081 50.0163 41.5673 50.0167 41.1265 50.017C40.6516 50.0173 40.1767 50.0183 39.7018 50.0191C38.5542 50.0211 37.4066 50.022 36.259 50.0229C35.7188 50.0233 35.1786 50.0239 34.6384 50.0244C32.843 50.026 31.0476 50.0274 29.2521 50.0282C28.7861 50.0283 28.32 50.0285 27.8539 50.0287C27.7381 50.0288 27.6222 50.0288 27.5029 50.0289C25.6261 50.0297 23.7492 50.0321 21.8724 50.0353C19.9462 50.0385 18.02 50.0403 16.0937 50.0406C15.012 50.0408 13.9302 50.0417 12.8484 50.0442C11.9272 50.0463 11.006 50.0471 10.0847 50.0461C9.61466 50.0457 9.14464 50.0459 8.6746 50.0478C8.24411 50.0495 7.81366 50.0494 7.38318 50.0479C7.22762 50.0476 7.07205 50.0481 6.9165 50.0492C5.83062 50.0568 4.98281 49.9514 4.15726 49.1969C3.52245 48.4784 3.37759 47.746 3.39317 46.8131C3.47875 45.6783 4.21549 45.0019 4.98047 44.2382C5.03886 44.1796 5.09726 44.1211 5.15742 44.0607C5.63545 43.582 5.63545 43.582 5.86085 43.3613C6.14498 43.0817 6.41547 42.7968 6.67534 42.4945C7.13397 41.9635 7.63754 41.4789 8.13751 40.9873C8.47958 40.6487 8.81422 40.3097 9.12781 39.9444C9.60088 39.3939 10.1249 38.894 10.6419 38.3853C11.0581 37.9731 11.4557 37.5546 11.8372 37.1102C12.2413 36.6558 12.6846 36.2376 13.118 35.8115C13.4611 35.4719 13.7966 35.1317 14.1113 34.7655C14.5643 34.2385 15.0642 33.7593 15.5594 33.2724C15.9025 32.9329 16.238 32.5927 16.5527 32.2265C17.0057 31.6994 17.5056 31.2203 18.0008 30.7334C18.3439 30.3938 18.6794 30.0536 18.9941 29.6874C19.4471 29.1604 19.947 28.6812 20.4422 28.1943C20.8492 27.7915 21.2371 27.3812 21.6103 26.9469C21.8939 26.6256 22.1987 26.3261 22.5037 26.0253C22.5658 25.9636 22.6279 25.9019 22.6919 25.8384C22.8426 25.6889 22.9935 25.5397 23.1445 25.3905C22.7788 24.959 22.4066 24.5353 22.0215 24.121C21.9716 24.0672 21.9218 24.0133 21.8704 23.9579C21.2552 23.2944 20.6374 22.6335 20.0195 21.9726C19.3188 21.2229 18.6189 20.4727 17.9237 19.718C17.4919 19.2496 17.057 18.784 16.6219 18.3186C16.2576 17.9287 15.8949 17.5373 15.5334 17.1447C15.0946 16.6681 14.6525 16.1948 14.209 15.7226C13.7178 15.1996 13.2289 14.6746 12.743 14.1467C12.3708 13.7426 11.9963 13.3407 11.6211 12.9393C11.1984 12.4871 10.777 12.0337 10.3577 11.5783C9.91885 11.1017 9.47671 10.6284 9.0332 10.1561C8.54201 9.63316 8.05316 9.10816 7.56722 8.58029C7.19498 8.17621 6.82047 7.77431 6.44531 7.37294C5.91257 6.8027 5.37989 6.23242 4.85306 5.65671C4.68984 5.47954 4.52485 5.30397 4.35715 5.13104C3.71278 4.4522 3.40461 3.82514 3.36914 2.88076C3.40177 1.98506 3.69047 1.30678 4.30298 0.653353C4.86079 0.166395 5.47821 -0.0121284 6.207 -0.013212Z" fill="#6F6F6F"/>
</g>
<defs>
<clipPath id="clip0_795_2">
<rect width="50" height="50" fill="white"/>
</clipPath>
</defs>
</svg>
