<svg width="50" height="50" viewBox="0 0 50 50" fill="none" xmlns="http://www.w3.org/2000/svg">
<path d="M18.3338 3.33337L20.0005 6.66671H36.6672L38.3338 3.33337H18.3338ZM20.0005 8.33337V12.5C20.0005 12.5 20.0005 21.6667 28.3338 21.6667C36.6672 21.6667 36.6672 12.5 36.6672 12.5V8.33337H20.0005ZM6.61383 13.2867C5.73091 13.3007 4.88964 13.6645 4.27469 14.2982C3.65973 14.932 3.32136 15.7838 3.33383 16.6667V30C3.33342 30.4995 3.44522 30.9926 3.66099 31.443C3.87676 31.8934 4.19098 32.2895 4.58042 32.6022C4.96986 32.9148 5.42458 33.1359 5.91097 33.2492C6.39736 33.3625 6.90299 33.3651 7.3905 33.2567L16.6672 31.19V46.6667L36.2638 23.5667C35.7904 23.4215 35.299 23.343 34.8038 23.3334H21.6672L10.0005 25.8467V16.6667C10.0068 16.2205 9.92346 15.7776 9.75541 15.3643C9.58736 14.9509 9.33803 14.5755 9.02219 14.2603C8.70636 13.9451 8.33045 13.6965 7.91675 13.5292C7.50305 13.362 7.05999 13.2795 6.61383 13.2867ZM39.1605 25.7034L21.3738 46.6667H40.0005V28.53C40.0005 27.4834 39.6872 26.5167 39.1605 25.7034Z" fill="#FF6380"/>
</svg>
